<svg width="122" height="30" viewBox="0 0 122 30" fill="none" xmlns="http://www.w3.org/2000/svg">
<g clip-path="url(#clip0_9254_5040)">
<path d="M63.058 0.816833V12.6909C63.058 13.9132 63.4077 14.8512 64.1091 15.5029C64.8096 16.1556 65.7025 16.4819 66.79 16.4819C68.0199 16.4819 68.9915 16.1212 69.7067 15.3989C70.4208 14.6766 70.7794 13.6069 70.7794 12.1909V0.816833H77.2139V21.6489H70.7794V19.6909C69.4925 21.3855 67.4472 22.2329 64.6455 22.2329C62.3576 22.2329 60.4488 21.4695 58.9193 19.9409C57.3898 18.4132 56.6245 16.3025 56.6245 13.6079V7.08306C52.5398 7.08306 52.2412 7.58496 50.8501 11.0525L47.2311 21.0239C46.0297 24.3016 44.45 26.6489 42.4912 28.0649C40.5324 29.4819 38.0372 30.1203 35.0066 29.981V24.1479C36.4929 24.1479 37.6373 23.8903 38.438 23.3769C39.2386 22.8626 39.882 21.9666 40.3683 20.6899L31.8306 0.816833H38.9085L43.6691 13.5659L45.6859 7.18897C46.8834 3.40176 49.9326 0.816833 56.6058 0.816833H63.057H63.058Z" fill="#7953FF"/>
<path d="M104.364 0.233803C101.532 0.233803 99.4586 1.15079 98.1442 2.9838C96.8848 1.15079 95.0124 0.233803 92.5251 0.233803C89.8658 0.233803 87.9492 1.06682 86.7773 2.7338V0.816819H80.3428V21.6489H86.7773V9.89983C86.7773 8.67846 87.07 7.71949 87.6565 7.02483C88.242 6.33113 89.0652 5.98285 90.1232 5.98285C91.1233 5.98285 91.8885 6.28915 92.418 6.89983C92.9465 7.51148 93.2118 8.34449 93.2118 9.39983V21.6489H99.6463V9.89983C99.6463 8.67846 99.939 7.71949 100.525 7.02483C101.111 6.33113 101.934 5.98285 102.992 5.98285C103.993 5.98285 104.758 6.28915 105.287 6.89983C105.816 7.51148 106.081 8.34449 106.081 9.39983V21.6489H112.515V8.85785C112.515 6.24716 111.772 4.15651 110.284 2.58686C108.797 1.01815 106.824 0.232849 104.366 0.232849L104.364 0.233803Z" fill="#7953FF"/>
<path d="M115.566 21.6489H122.001V4.30534C122.001 2.37882 120.393 0.817749 118.41 0.817749H115.567V21.6498L115.566 21.6489Z" fill="#7953FF"/>
<path d="M8.84433 14.5019C6.4503 15.7872 3.90794 16.5601 1.34888 16.8692C1.44122 17.0515 1.53749 17.2328 1.63966 17.4131C5.14572 23.5754 13.1314 25.8091 19.4755 22.4026C25.8196 18.9971 28.1193 11.2404 24.6133 5.07822C23.3411 2.84253 21.4776 1.12688 19.3183 0.00665283C18.3379 5.93032 14.6698 11.374 8.84433 14.5009V14.5019Z" fill="url(#paint0_linear_9254_5040)"/>
<path d="M6.87255 9.96947C5.03847 6.74714 5.19762 2.97805 6.95114 0C6.89318 0.0295802 6.83424 0.0572519 6.77726 0.0877863C0.434124 3.49428 -1.86658 11.25 1.64047 17.4122C5.14653 23.5744 13.1322 25.8082 19.4763 22.4017C24.727 19.583 27.2036 13.7844 25.9137 8.375C25.0994 10.6651 23.4441 12.6823 21.0893 13.9466C16.0331 16.6613 9.66836 14.8807 6.87353 9.96947H6.87255Z" fill="#7953FF"/>
</g>
<defs>
<linearGradient id="paint0_linear_9254_5040" x1="11.1709" y1="4.53932" x2="15.2502" y2="18.6593" gradientUnits="userSpaceOnUse">
<stop offset="0.26" stop-color="#6E4FEC"/>
<stop offset="0.89" stop-color="#34179E"/>
</linearGradient>
<clipPath id="clip0_9254_5040">
<rect width="122" height="30" fill="white"/>
</clipPath>
</defs>
</svg>
