<svg width="442" height="461" viewBox="0 0 442 461" fill="none" xmlns="http://www.w3.org/2000/svg">
<path d="M343.177 33.3796C343.972 33.1454 344.426 32.3114 344.192 31.5168L340.376 18.5672C340.142 17.7726 339.308 17.3182 338.513 17.5524C337.719 17.7865 337.264 18.6205 337.498 19.4152L340.89 30.9259L329.379 34.3176C328.585 34.5518 328.13 35.3858 328.365 36.1804C328.599 36.9751 329.433 37.4294 330.227 37.1953L343.177 33.3796ZM438.865 342.32C379.419 451.435 239.668 490.105 126.679 428.548L125.244 431.182C239.603 493.486 381.215 454.408 441.5 343.755L438.865 342.32ZM126.679 428.548C13.6897 366.991 -29.5972 228.6 29.8491 119.486L27.2147 118.05C-33.0698 228.703 10.8844 368.879 125.244 431.182L126.679 428.548ZM29.8491 119.486C89.2954 10.3711 229.046 -28.2993 342.035 33.2579L343.471 30.6235C229.111 -31.6801 87.4991 7.39738 27.2147 118.05L29.8491 119.486Z" fill="#F4E5BD"/>
</svg>
