<svg width="314" height="221" viewBox="0 0 314 221" fill="none" xmlns="http://www.w3.org/2000/svg">
<path d="M298.751 219.338C299.105 220.087 299.999 220.407 300.748 220.053L312.952 214.28C313.701 213.926 314.021 213.032 313.666 212.283C313.312 211.534 312.418 211.214 311.669 211.568L300.821 216.7L295.69 205.852C295.336 205.103 294.442 204.783 293.693 205.137C292.944 205.492 292.624 206.386 292.978 207.135L298.751 219.338ZM3.38347 112.549C33.5881 28.1156 124.197 -16.5837 205.7 12.5727L206.71 9.74802C123.558 -19.9985 31.2889 25.6361 0.55877 111.538L3.38347 112.549ZM205.7 12.5727C287.203 41.7292 328.899 133.758 298.695 218.192L301.519 219.202C332.249 133.3 289.863 39.4946 206.71 9.74802L205.7 12.5727Z" fill="#F4E5BD"/>
</svg>
