<svg width="157" height="38" viewBox="0 0 157 38" fill="none" xmlns="http://www.w3.org/2000/svg">
<path d="M9.08456 10.2013C8.81492 10.2013 8.55633 10.3115 8.36567 10.5076C8.175 10.7037 8.06789 10.9697 8.06789 11.247V23.8906C8.06847 25.4968 8.68557 27.0378 9.78498 28.1785C10.8844 29.3191 12.3772 29.9672 13.9387 29.9817H15.3711C15.0014 29.9653 14.652 29.8031 14.3956 29.5288C14.1391 29.2544 13.9951 28.8891 13.9936 28.5085V11.247C13.9936 10.9699 13.8866 10.7041 13.6962 10.508C13.5058 10.3119 13.2475 10.2016 12.9781 10.2013H9.08456Z" fill="url(#paint0_linear_2558_18696)"/>
<path d="M8.06789 23.8894V29.0991C8.06741 30.0151 8.24245 30.9222 8.583 31.7686C8.92355 32.615 9.42294 33.3841 10.0526 34.0318C10.6823 34.6796 11.4299 35.1934 12.2528 35.5438C13.0756 35.8943 13.9575 36.0745 14.8481 36.0741H28.5743C30.0596 35.9509 31.4452 35.2566 32.455 34.1296C33.4649 33.0026 34.0248 31.5257 34.0234 29.9931V28.496C34.0205 28.8883 33.8668 29.2635 33.596 29.5397C33.3251 29.816 32.959 29.9708 32.5776 29.9705L15.3747 29.9805H14.0009C12.4293 29.9812 10.9217 29.3399 9.80965 28.1977C8.69756 27.0555 8.07195 25.5059 8.07033 23.8894H8.06789Z" fill="url(#paint1_linear_2558_18696)"/>
<path d="M15.4017 1.90601H6.84051C6.34071 1.90601 5.97378 2.32856 5.94696 2.84137C5.88917 4.21546 5.66141 5.57637 5.26918 6.89125C5.11681 7.44168 5.45813 8.01969 6.01401 8.01969H32.568C36.5567 8.06107 39.9456 11.3762 39.9456 15.564V8.88985C39.9456 7.48666 39.5348 6.11598 38.7666 4.95639C37.9984 3.7968 36.9084 2.90206 35.6388 2.38874L35.5863 2.36868L35.5656 2.3599C34.7955 2.05853 33.9783 1.9047 33.1544 1.90601H15.4017Z" fill="url(#paint2_linear_2558_18696)"/>
<path d="M34.0124 9.49672H34.021V28.4747V29.9718C34.0221 31.5043 33.4621 32.9811 32.4523 34.108C31.4425 35.2349 30.0571 35.9293 28.5719 36.0529C28.4147 36.0654 28.2574 36.0729 28.0977 36.0729H33.164C34.0546 36.0737 34.9366 35.8939 35.7596 35.5438C36.5826 35.1936 37.3304 34.6799 37.9601 34.0322C38.5899 33.3844 39.0893 32.6153 39.4297 31.7689C39.7702 30.9224 39.945 30.0152 39.9442 29.0991V15.6129C39.9445 13.6038 39.1703 11.6764 37.7912 10.2535C36.4121 8.8306 34.5408 8.02819 32.5874 8.02222C32.9659 8.02487 33.3281 8.18138 33.5948 8.45762C33.8615 8.73386 34.0112 9.10739 34.0112 9.49672" fill="url(#paint3_linear_2558_18696)"/>
<path d="M95.1965 19.4149V19.3635C95.1965 14.2641 98.9901 9.9447 104.328 9.9447C107.316 9.9447 109.191 10.7735 110.96 12.2693C111.005 12.3084 111.034 12.3646 111.04 12.4254C111.045 12.4863 111.027 12.547 110.989 12.594L109.307 14.6616C109.268 14.7075 109.214 14.7362 109.156 14.7413C109.097 14.7465 109.039 14.7278 108.993 14.6892C107.685 13.5771 106.364 12.8849 104.206 12.8849C100.943 12.8849 98.4635 15.8252 98.4635 19.3108V19.3635C98.4635 23.1099 100.867 25.8671 104.484 25.8671C105.943 25.8803 107.372 25.4435 108.586 24.6133C108.64 24.5739 108.684 24.5218 108.714 24.4613C108.744 24.4009 108.76 24.3339 108.759 24.266V19.5102C108.759 19.4495 108.783 19.3914 108.824 19.3484C108.866 19.3054 108.922 19.2811 108.981 19.2807H111.541C111.572 19.279 111.602 19.2838 111.631 19.2948C111.66 19.3058 111.686 19.3228 111.708 19.3447C111.73 19.3666 111.747 19.3929 111.759 19.4221C111.77 19.4512 111.776 19.4825 111.775 19.5139V25.6063C111.775 25.7153 111.751 25.8228 111.705 25.9209C111.659 26.0191 111.592 26.1052 111.51 26.173C109.5 27.8617 106.984 28.784 104.389 28.7835C98.8438 28.7823 95.1965 24.7286 95.1965 19.4149Z" fill="#222526"/>
<path d="M121.649 21.1065L114.957 10.6119C114.934 10.5775 114.922 10.5375 114.92 10.4962C114.918 10.4548 114.927 10.4137 114.946 10.3773C114.965 10.3409 114.993 10.3104 115.028 10.2892C115.062 10.2681 115.102 10.2569 115.142 10.2571H118.179C118.254 10.2572 118.328 10.277 118.394 10.3145C118.46 10.352 118.515 10.406 118.555 10.4715L123.169 17.9945C123.189 18.0271 123.217 18.054 123.25 18.0726C123.283 18.0913 123.32 18.1011 123.357 18.1011C123.395 18.1011 123.432 18.0913 123.464 18.0726C123.497 18.054 123.525 18.0271 123.545 17.9945L128.233 10.4715C128.273 10.4065 128.328 10.3531 128.394 10.316C128.459 10.279 128.533 10.2595 128.607 10.2596H131.523C131.564 10.2595 131.603 10.2707 131.638 10.2919C131.673 10.3132 131.701 10.3437 131.72 10.3802C131.739 10.4168 131.749 10.458 131.747 10.4994C131.745 10.5409 131.732 10.5811 131.71 10.6157L125.022 21.03C124.944 21.1493 124.902 21.2898 124.9 21.4337V28.2395C124.9 28.3 124.877 28.3581 124.835 28.4009C124.794 28.4437 124.737 28.4677 124.679 28.4677H121.986C121.956 28.4679 121.927 28.4621 121.9 28.4507C121.873 28.4393 121.849 28.4225 121.828 28.4013C121.807 28.3801 121.791 28.3549 121.78 28.3271C121.768 28.2994 121.763 28.2696 121.763 28.2395V21.5065C121.762 21.364 121.722 21.2247 121.647 21.1052" fill="#222526"/>
<path d="M136.308 10.2571H138.706C138.788 10.257 138.868 10.2761 138.942 10.3131C139.015 10.35 139.079 10.4038 139.129 10.4702L148.136 22.4268C148.159 22.4568 148.191 22.4787 148.226 22.4895C148.262 22.5003 148.3 22.4995 148.335 22.487C148.37 22.4746 148.4 22.4513 148.421 22.4202C148.443 22.3892 148.455 22.352 148.455 22.3139V10.4865C148.455 10.4257 148.478 10.3673 148.52 10.3243C148.562 10.2813 148.618 10.2571 148.678 10.2571H151.292C151.352 10.2571 151.408 10.2813 151.45 10.3243C151.492 10.3673 151.515 10.4257 151.515 10.4865V28.2395C151.515 28.2696 151.51 28.2994 151.498 28.3271C151.487 28.3549 151.471 28.3801 151.45 28.4013C151.429 28.4225 151.405 28.4393 151.378 28.4507C151.351 28.4621 151.322 28.4679 151.292 28.4677H149.173C149.091 28.468 149.01 28.449 148.937 28.4123C148.864 28.3755 148.8 28.322 148.75 28.2558L139.465 15.9344C139.443 15.9039 139.411 15.8815 139.376 15.8704C139.34 15.8592 139.302 15.86 139.266 15.8724C139.231 15.8849 139.2 15.9085 139.179 15.9399C139.157 15.9713 139.146 16.0088 139.146 16.0473V28.2395C139.146 28.3 139.123 28.3581 139.081 28.4009C139.039 28.4437 138.983 28.4677 138.924 28.4677H136.308C136.279 28.4679 136.25 28.4621 136.223 28.4507C136.196 28.4393 136.171 28.4225 136.15 28.4013C136.13 28.3801 136.113 28.3549 136.102 28.3271C136.091 28.2994 136.085 28.2696 136.085 28.2395V10.4865C136.085 10.4257 136.109 10.3673 136.15 10.3243C136.192 10.2813 136.249 10.2571 136.308 10.2571Z" fill="#222526"/>
<path d="M78.0388 21.7359C78.026 21.7175 78.0177 21.6963 78.0146 21.6739C78.0114 21.6516 78.0135 21.6288 78.0207 21.6074C78.0278 21.5861 78.0399 21.5668 78.0557 21.5512C78.0716 21.5356 78.0908 21.5241 78.1119 21.5177C80.4683 20.7542 82.1262 18.9762 82.1262 16.0598V16.0071C82.1262 14.4198 81.5947 13.0669 80.6633 12.0789C79.5248 10.9341 77.7791 10.2571 75.5532 10.2571H69.4885C69.4593 10.2571 69.4303 10.263 69.4033 10.2746C69.3763 10.2861 69.3518 10.303 69.3312 10.3244C69.3106 10.3457 69.2943 10.371 69.2832 10.3988C69.2721 10.4266 69.2665 10.4565 69.2667 10.4865V12.9428C69.2665 12.9728 69.2721 13.0025 69.2832 13.0303C69.2943 13.0581 69.3107 13.0833 69.3313 13.1045C69.3519 13.1257 69.3764 13.1425 69.4034 13.154C69.4304 13.1654 69.4593 13.1711 69.4885 13.171H75.296C77.5987 13.171 78.964 14.238 78.964 16.189V16.2416C78.964 18.0885 77.5475 19.2859 75.3228 19.2859H71.6962C71.6373 19.2859 71.5809 19.31 71.5393 19.3528C71.4977 19.3955 71.4743 19.4536 71.4743 19.5141V21.8964C71.4742 21.9263 71.4797 21.9559 71.4908 21.9836C71.5018 22.0113 71.518 22.0365 71.5385 22.0577C71.559 22.0789 71.5834 22.0957 71.6102 22.1072C71.6371 22.1187 71.6659 22.1246 71.695 22.1246H74.3914C74.4757 22.1245 74.5587 22.1451 74.6336 22.1848C74.7085 22.2245 74.773 22.2821 74.8218 22.3528L78.8616 28.2395C78.9098 28.3094 78.9736 28.3664 79.0476 28.4057C79.1216 28.4449 79.2037 28.4654 79.287 28.4652H82.2749C82.3143 28.4645 82.3529 28.4529 82.3865 28.4318C82.4202 28.4106 82.4477 28.3806 82.4664 28.3448C82.485 28.309 82.494 28.2688 82.4925 28.2283C82.491 28.1877 82.479 28.1483 82.4577 28.1141L78.0388 21.7359Z" fill="#222526"/>
<path d="M50.1889 19.3373V19.2859C50.1889 14.1126 54.069 9.78064 59.5571 9.78064C65.0451 9.78064 68.8741 14.0612 68.8741 19.232V19.2859C68.8741 24.458 64.9939 28.79 59.5059 28.79C54.0178 28.79 50.1889 24.5044 50.1889 19.3373ZM65.5815 19.3373V19.2859C65.5815 15.7138 63.0545 12.7472 59.5059 12.7472C55.9573 12.7472 53.4827 15.6624 53.4827 19.232V19.2859C53.4827 22.8556 56.0085 25.7971 59.5571 25.7971C63.1057 25.7971 65.5815 22.9133 65.5815 19.3373Z" fill="#222526"/>
<path d="M87.4885 10.2571H90.1546C90.2137 10.2571 90.2705 10.2813 90.3123 10.3243C90.3541 10.3673 90.3776 10.4257 90.3776 10.4865V28.2395C90.3776 28.2696 90.3719 28.2994 90.3606 28.3271C90.3494 28.3549 90.333 28.3801 90.3122 28.4013C90.2915 28.4225 90.2669 28.4393 90.2398 28.4507C90.2128 28.4621 90.1838 28.4679 90.1546 28.4677H87.4885C87.4307 28.4664 87.3756 28.4417 87.3352 28.3991C87.2949 28.3564 87.2724 28.2991 87.2728 28.2395V10.4865C87.2726 10.4565 87.2782 10.4266 87.2893 10.3988C87.3004 10.371 87.3167 10.3457 87.3373 10.3244C87.3579 10.303 87.3825 10.2861 87.4095 10.2746C87.4365 10.263 87.4654 10.2571 87.4946 10.2571" fill="#222526"/>
<defs>
<linearGradient id="paint0_linear_2558_18696" x1="11.7201" y1="10.2013" x2="11.7201" y2="29.9817" gradientUnits="userSpaceOnUse">
<stop offset="0.03" stop-color="#5C5C5C"/>
<stop offset="0.3" stop-color="#777777"/>
<stop offset="0.33" stop-color="#8F8F8F"/>
<stop offset="0.4" stop-color="#989898"/>
<stop offset="0.48" stop-color="#A0A0A0"/>
<stop offset="0.55" stop-color="#A6A6A6"/>
<stop offset="0.63" stop-color="#AEAEAE"/>
<stop offset="0.73" stop-color="#ADADAD"/>
<stop offset="0.88" stop-color="#B6B6B6"/>
<stop offset="0.91" stop-color="#B3B3B3"/>
</linearGradient>
<linearGradient id="paint1_linear_2558_18696" x1="34.0234" y1="29.9818" x2="8.06789" y2="29.9818" gradientUnits="userSpaceOnUse">
<stop offset="0.03" stop-color="#CFCFCF"/>
<stop offset="0.3" stop-color="#B1B1B1"/>
<stop offset="0.36" stop-color="#9C9C9C"/>
<stop offset="0.44" stop-color="#8C8C8C"/>
<stop offset="0.53" stop-color="#858585"/>
<stop offset="0.63" stop-color="#7E7E7E"/>
<stop offset="0.69" stop-color="#7A7A7A"/>
<stop offset="0.79" stop-color="#676767"/>
<stop offset="0.9" stop-color="#4E4E4E"/>
<stop offset="0.91" stop-color="#3F3F3F"/>
</linearGradient>
<linearGradient id="paint2_linear_2558_18696" x1="8.56665" y1="-2.05985" x2="39.9497" y2="15.5561" gradientUnits="userSpaceOnUse">
<stop stop-color="#ECECEC"/>
<stop offset="0.44" stop-color="#F2F2F2"/>
<stop offset="0.57" stop-color="#E5E5E5"/>
<stop offset="0.68" stop-color="#EBEBEB"/>
<stop offset="0.73" stop-color="#D7D7D7"/>
<stop offset="0.84" stop-color="#CCCCCC"/>
<stop offset="1" stop-color="#D0D0D0"/>
</linearGradient>
<linearGradient id="paint3_linear_2558_18696" x1="34.0234" y1="36.0754" x2="34.0234" y2="8.02222" gradientUnits="userSpaceOnUse">
<stop stop-color="#717171"/>
<stop offset="0.06" stop-color="#717171"/>
<stop offset="0.14" stop-color="#717171"/>
<stop offset="0.25" stop-color="#7E7E7E"/>
<stop offset="0.29" stop-color="#818181"/>
<stop offset="0.44" stop-color="#808080"/>
<stop offset="0.66" stop-color="#7F7F7F"/>
<stop offset="0.97" stop-color="#545454"/>
<stop offset="1" stop-color="#515151"/>
</linearGradient>
</defs>
</svg>
