<svg width="17" height="22" viewBox="0 0 17 22" fill="none" xmlns="http://www.w3.org/2000/svg">
<path fill-rule="evenodd" clip-rule="evenodd" d="M12.9061 0H3.39257C1.83581 0 0.625 1.14925 0.625 2.54478V19.3731C0.625 20.8507 1.83581 22 3.39257 22H12.9061C14.9818 22 16.625 20.4403 16.625 18.5522V13.0522C16.625 12.1493 16.0196 11.4104 15.0682 11.1642L14.5493 11L15.0682 10.8358C16.0196 10.5896 16.625 9.85075 16.625 8.94776V3.44776C16.625 1.5597 14.9818 0 12.9061 0ZM13.5115 13.6269V18.0597C13.5115 18.7985 12.9061 19.3731 12.1277 19.3731H9.10068C8.3223 19.3731 7.71689 18.7985 7.71689 18.0597V13.6269C7.71689 12.8881 8.3223 12.3134 9.10068 12.3134H12.1277C12.9061 12.3134 13.5115 12.8881 13.5115 13.6269ZM13.5115 4.02239V8.37313C13.5115 9.11194 12.9061 9.68657 12.1277 9.68657H9.10068C8.3223 9.68657 7.71689 9.11194 7.71689 8.37313V4.02239C7.71689 3.28358 8.3223 2.70896 9.10068 2.70896H12.1277C12.9061 2.70896 13.5115 3.28358 13.5115 4.02239Z" fill="white"/>
</svg>
