<svg width="32" height="32" viewBox="0 0 32 32" fill="none" xmlns="http://www.w3.org/2000/svg">
<path d="M23.6847 8.79095C22.058 8.79095 20.2767 9.67754 18.3978 11.4263C17.5112 12.2478 16.7303 13.1425 16.161 13.8502C16.161 13.8502 17.072 14.8994 18.0724 16.03C18.6174 15.3468 19.3901 14.4195 20.2929 13.5817C21.9604 12.0201 23.0503 11.7028 23.6766 11.7028C26.0191 11.7028 27.9224 13.6712 27.9224 16.1032C27.9224 18.5108 26.0191 20.4792 23.6766 20.5036C23.5627 20.5036 23.4326 20.4873 23.2699 20.4548C23.9531 20.772 24.6933 20.9997 25.3847 20.9997C29.6793 20.9997 30.5252 18.0309 30.574 17.8194C30.696 17.2745 30.7692 16.7051 30.7692 16.1195C30.7611 12.077 27.5889 8.79095 23.6847 8.79095Z" fill="url(#paint0_linear_3764_9393)"/>
<path d="M8.6779 23.4155C10.3047 23.4155 12.0859 22.5289 13.9649 20.7801C14.8514 19.9586 15.6323 19.0639 16.2016 18.3563C16.2016 18.3563 15.2907 17.307 14.2902 16.1764C13.7452 16.8597 12.9725 17.7869 12.0697 18.6247C10.4023 20.1701 9.3042 20.5036 8.68603 20.5036C6.34351 20.5036 4.4402 18.5352 4.4402 16.1032C4.4402 13.6956 6.34351 11.7272 8.68603 11.7028C8.7999 11.7028 8.93005 11.7191 9.09272 11.7516C8.40948 11.4344 7.66931 11.2067 6.97794 11.2067C2.68331 11.1985 1.8374 14.1674 1.78859 14.387C1.66659 14.9319 1.59338 15.5013 1.59338 16.0869C1.59338 20.1294 4.76555 23.4155 8.6779 23.4155Z" fill="url(#paint1_linear_3764_9393)"/>
<path fill-rule="evenodd" clip-rule="evenodd" d="M11.9477 13.6468C11.4759 13.1913 9.18218 11.3287 6.98607 11.2636C3.06559 11.166 1.91873 14.0128 1.81299 14.3789C2.56943 11.1904 5.36745 8.80722 8.68602 8.79095C11.3946 8.79095 14.1356 11.4507 16.161 13.8502L16.1691 13.842C16.1691 13.842 17.0801 14.8913 18.0805 16.0219C18.0805 16.0219 19.2193 17.3639 20.4231 18.5433C20.8948 18.9988 23.1804 20.8371 25.3765 20.9021C29.4027 21.016 30.5171 18.0065 30.574 17.7788C29.8338 20.9916 27.0277 23.3829 23.6928 23.3992C20.9843 23.3992 18.2432 20.7395 16.2098 18.34C16.2098 18.3481 16.2016 18.3481 16.2016 18.3563C16.2016 18.3563 15.2906 17.307 14.2902 16.1764C14.2983 16.1764 13.1596 14.8262 11.9477 13.6468Z" fill="#29ABE2"/>
<defs>
<linearGradient id="paint0_linear_3764_9393" x1="19.8769" y1="9.94972" x2="29.9043" y2="20.0596" gradientUnits="userSpaceOnUse">
<stop offset="0.21" stop-color="#F15A24"/>
<stop offset="0.6841" stop-color="#FBB03B"/>
</linearGradient>
<linearGradient id="paint1_linear_3764_9393" x1="12.4883" y1="22.2583" x2="2.46088" y2="12.1484" gradientUnits="userSpaceOnUse">
<stop offset="0.21" stop-color="#ED1E79"/>
<stop offset="0.8929" stop-color="#522785"/>
</linearGradient>
</defs>
</svg>
