<svg width="24" height="25" viewBox="0 0 24 25" fill="none" xmlns="http://www.w3.org/2000/svg">
<mask id="mask0_1512_1454" style="mask-type:alpha" maskUnits="userSpaceOnUse" x="0" y="0" width="24" height="25">
<rect y="0.543976" width="24" height="24" fill="#D9D9D9"/>
</mask>
<g mask="url(#mask0_1512_1454)">
<path d="M14.25 21.944C13.8667 22.3273 13.3917 22.519 12.825 22.519C12.2583 22.519 11.7833 22.3273 11.4 21.944L2.6 13.144C2.41667 12.9606 2.27083 12.744 2.1625 12.494C2.05417 12.244 2 11.9773 2 11.694V4.54398C2 3.99398 2.19583 3.52314 2.5875 3.13148C2.97917 2.73981 3.45 2.54398 4 2.54398H11.15C11.4333 2.54398 11.7 2.59814 11.95 2.70648C12.2 2.81481 12.4167 2.96064 12.6 3.14398L21.4 11.969C21.7833 12.3523 21.975 12.8231 21.975 13.3815C21.975 13.9398 21.7833 14.4106 21.4 14.794L14.25 21.944ZM12.825 20.544L19.975 13.394L11.15 4.54398H4V11.694L12.825 20.544ZM6.5 8.54398C6.91667 8.54398 7.27083 8.39814 7.5625 8.10648C7.85417 7.81481 8 7.46064 8 7.04398C8 6.62731 7.85417 6.27314 7.5625 5.98148C7.27083 5.68981 6.91667 5.54398 6.5 5.54398C6.08333 5.54398 5.72917 5.68981 5.4375 5.98148C5.14583 6.27314 5 6.62731 5 7.04398C5 7.46064 5.14583 7.81481 5.4375 8.10648C5.72917 8.39814 6.08333 8.54398 6.5 8.54398Z" fill="black"/>
</g>
</svg>
