<svg width="332" height="97" viewBox="0 0 332 97" fill="none" xmlns="http://www.w3.org/2000/svg">
<path d="M65.5455 31.6364C64.7879 29.1818 63.7424 26.9848 62.4091 25.0455C61.1061 23.0758 59.5303 21.3939 57.6818 20C55.8636 18.6061 53.7727 17.5606 51.4091 16.8636C49.0455 16.1364 46.4697 15.7727 43.6818 15.7727C38.6818 15.7727 34.2273 17.0303 30.3182 19.5455C26.4091 22.0606 23.3333 25.7576 21.0909 30.6364C18.8788 35.4848 17.7727 41.3939 17.7727 48.3636C17.7727 55.3939 18.8788 61.3485 21.0909 66.2273C23.303 71.1061 26.3788 74.8182 30.3182 77.3636C34.2576 79.8788 38.8333 81.1364 44.0455 81.1364C48.7727 81.1364 52.8636 80.2273 56.3182 78.4091C59.803 76.5909 62.4849 74.0152 64.3636 70.6818C66.2424 67.3182 67.1818 63.3788 67.1818 58.8636L71 59.4545H45.7273V46.2727H83.5V57.4545C83.5 65.4242 81.803 72.3182 78.4091 78.1364C75.0152 83.9545 70.3485 88.4394 64.4091 91.5909C58.4697 94.7121 51.6515 96.2727 43.9545 96.2727C35.3788 96.2727 27.8485 94.3485 21.3636 90.5C14.9091 86.6212 9.86364 81.1212 6.22727 74C2.62121 66.8485 0.818182 58.3636 0.818182 48.5455C0.818182 41.0303 1.87879 34.3182 4 28.4091C6.15152 22.5 9.15152 17.4848 13 13.3636C16.8485 9.21212 21.3636 6.0606 26.5455 3.90909C31.7273 1.72727 37.3636 0.63636 43.4545 0.63636C48.6061 0.63636 53.4091 1.39394 57.8636 2.90909C62.3182 4.39394 66.2727 6.51515 69.7273 9.27273C73.2121 12.0303 76.0758 15.303 78.3182 19.0909C80.5606 22.8788 82.0303 27.0606 82.7273 31.6364H65.5455ZM99.8068 95V1.90909H116.67V80.8636H157.67V95H99.8068ZM203.852 95H172.307V1.90909H204.489C213.731 1.90909 221.67 3.77273 228.307 7.5C234.973 11.197 240.095 16.5151 243.67 23.4545C247.246 30.3939 249.034 38.697 249.034 48.3636C249.034 58.0606 247.231 66.3939 243.625 73.3636C240.049 80.3333 234.883 85.6818 228.125 89.4091C221.398 93.1364 213.307 95 203.852 95ZM189.17 80.4091H203.034C209.519 80.4091 214.928 79.2273 219.261 76.8636C223.595 74.4697 226.852 70.9091 229.034 66.1818C231.216 61.4242 232.307 55.4848 232.307 48.3636C232.307 41.2424 231.216 35.3333 229.034 30.6364C226.852 25.9091 223.625 22.3788 219.352 20.0455C215.11 17.6818 209.837 16.5 203.534 16.5H189.17V80.4091ZM256.841 16.0455V1.90909H331.114V16.0455H302.341V95H285.614V16.0455H256.841Z" fill="#D3B872"/>
</svg>
