<svg width="343" height="149" viewBox="0 0 343 149" fill="none" xmlns="http://www.w3.org/2000/svg">
<path d="M71.5455 33.6364C70.7879 31.1818 69.7424 28.9848 68.4091 27.0455C67.1061 25.0758 65.5303 23.3939 63.6818 22C61.8636 20.6061 59.7727 19.5606 57.4091 18.8636C55.0455 18.1364 52.4697 17.7727 49.6818 17.7727C44.6818 17.7727 40.2273 19.0303 36.3182 21.5455C32.4091 24.0606 29.3333 27.7576 27.0909 32.6364C24.8788 37.4848 23.7727 43.3939 23.7727 50.3636C23.7727 57.3939 24.8788 63.3485 27.0909 68.2273C29.303 73.1061 32.3788 76.8182 36.3182 79.3636C40.2576 81.8788 44.8333 83.1364 50.0455 83.1364C54.7727 83.1364 58.8636 82.2273 62.3182 80.4091C65.803 78.5909 68.4849 76.0152 70.3636 72.6818C72.2424 69.3182 73.1818 65.3788 73.1818 60.8636L77 61.4545H51.7273V48.2727H89.5V59.4545C89.5 67.4242 87.803 74.3182 84.4091 80.1364C81.0152 85.9545 76.3485 90.4394 70.4091 93.5909C64.4697 96.7121 57.6515 98.2727 49.9545 98.2727C41.3788 98.2727 33.8485 96.3485 27.3636 92.5C20.9091 88.6212 15.8636 83.1212 12.2273 76C8.62121 68.8485 6.81818 60.3636 6.81818 50.5455C6.81818 43.0303 7.87879 36.3182 10 30.4091C12.1515 24.5 15.1515 19.4848 19 15.3636C22.8485 11.2121 27.3636 8.0606 32.5455 5.90909C37.7273 3.72727 43.3636 2.63636 49.4545 2.63636C54.6061 2.63636 59.4091 3.39394 63.8636 4.90909C68.3182 6.39394 72.2727 8.51515 75.7273 11.2727C79.2121 14.0303 82.0758 17.303 84.3182 21.0909C86.5606 24.8788 88.0303 29.0606 88.7273 33.6364H71.5455ZM105.807 97V3.90909H122.67V82.8636H163.67V97H105.807ZM209.852 97H178.307V3.90909H210.489C219.731 3.90909 227.67 5.77273 234.307 9.5C240.973 13.197 246.095 18.5151 249.67 25.4545C253.246 32.3939 255.034 40.697 255.034 50.3636C255.034 60.0606 253.231 68.3939 249.625 75.3636C246.049 82.3333 240.883 87.6818 234.125 91.4091C227.398 95.1364 219.307 97 209.852 97ZM195.17 82.4091H209.034C215.519 82.4091 220.928 81.2273 225.261 78.8636C229.595 76.4697 232.852 72.9091 235.034 68.1818C237.216 63.4242 238.307 57.4848 238.307 50.3636C238.307 43.2424 237.216 37.3333 235.034 32.6364C232.852 27.9091 229.625 24.3788 225.352 22.0455C221.11 19.6818 215.837 18.5 209.534 18.5H195.17V82.4091ZM262.841 18.0455V3.90909H337.114V18.0455H308.341V97H291.614V18.0455H262.841Z" fill="#D3B872"/>
<line x1="10" y1="116.5" x2="333" y2="116.5" stroke="#D3B872"/>
<path d="M19.5966 137C19.4905 136.614 19.3352 136.252 19.1307 135.915C18.9261 135.574 18.6723 135.277 18.3693 135.023C18.0701 134.765 17.7235 134.564 17.3295 134.42C16.9394 134.277 16.5038 134.205 16.0227 134.205C15.2652 134.205 14.5871 134.402 13.9886 134.795C13.3902 135.189 12.9167 135.758 12.5682 136.5C12.2235 137.242 12.0511 138.136 12.0511 139.182C12.0511 140.223 12.2254 141.116 12.5739 141.858C12.9223 142.6 13.3996 143.17 14.0057 143.568C14.6155 143.962 15.3125 144.159 16.0966 144.159C16.8125 144.159 17.4451 144 17.9943 143.682C18.5436 143.364 18.9716 142.909 19.2784 142.318C19.589 141.727 19.7405 141.025 19.733 140.21L20.0739 140.318H16.3466V139.364H20.767V140.318C20.767 141.311 20.5663 142.169 20.1648 142.892C19.7633 143.616 19.2121 144.174 18.5114 144.568C17.8106 144.962 17.0057 145.159 16.0966 145.159C15.0814 145.159 14.1932 144.915 13.4318 144.426C12.6705 143.934 12.0777 143.241 11.6534 142.347C11.233 141.449 11.0227 140.394 11.0227 139.182C11.0227 138.269 11.1439 137.445 11.3864 136.71C11.6288 135.975 11.9716 135.347 12.4148 134.824C12.8617 134.301 13.3902 133.902 14 133.625C14.6098 133.345 15.2841 133.205 16.0227 133.205C16.6591 133.205 17.2405 133.305 17.767 133.506C18.2973 133.706 18.7633 133.983 19.1648 134.335C19.5701 134.684 19.9015 135.087 20.1591 135.545C20.4205 136 20.5966 136.485 20.6875 137H19.5966ZM26.5866 145.182C25.8329 145.182 25.1662 144.991 24.5866 144.608C24.0109 144.225 23.5601 143.697 23.2344 143.023C22.9086 142.345 22.7457 141.562 22.7457 140.676C22.7457 139.782 22.9086 138.996 23.2344 138.318C23.5601 137.636 24.0109 137.106 24.5866 136.727C25.1662 136.345 25.8329 136.153 26.5866 136.153C27.3404 136.153 28.0052 136.345 28.581 136.727C29.1567 137.11 29.6075 137.64 29.9332 138.318C30.2628 138.996 30.4276 139.782 30.4276 140.676C30.4276 141.562 30.2647 142.345 29.9389 143.023C29.6132 143.697 29.1605 144.225 28.581 144.608C28.0052 144.991 27.3404 145.182 26.5866 145.182ZM26.5866 144.256C27.1927 144.256 27.706 144.093 28.1264 143.767C28.5469 143.441 28.8651 143.008 29.081 142.466C29.3007 141.924 29.4105 141.328 29.4105 140.676C29.4105 140.025 29.3007 139.426 29.081 138.881C28.8651 138.335 28.5469 137.898 28.1264 137.568C27.706 137.239 27.1927 137.074 26.5866 137.074C25.9844 137.074 25.4711 137.239 25.0469 137.568C24.6264 137.898 24.3063 138.335 24.0866 138.881C23.8707 139.426 23.7628 140.025 23.7628 140.676C23.7628 141.328 23.8707 141.924 24.0866 142.466C24.3063 143.008 24.6264 143.441 25.0469 143.767C25.4673 144.093 25.9806 144.256 26.5866 144.256ZM33.6591 133.364V145H32.6477V133.364H33.6591ZM39.4773 145.182C38.7614 145.182 38.1345 144.992 37.5966 144.614C37.0587 144.235 36.6383 143.706 36.3352 143.028C36.036 142.35 35.8864 141.561 35.8864 140.659C35.8864 139.761 36.036 138.975 36.3352 138.301C36.6383 137.623 37.0606 137.097 37.6023 136.722C38.1439 136.343 38.7746 136.153 39.4943 136.153C40.0246 136.153 40.4659 136.248 40.8182 136.438C41.1705 136.623 41.4527 136.854 41.6648 137.131C41.8769 137.407 42.0417 137.676 42.1591 137.938H42.25V133.364H43.267V145H42.2784V143.381H42.1591C42.0417 143.646 41.875 143.919 41.6591 144.199C41.4432 144.475 41.1572 144.708 40.8011 144.898C40.4489 145.087 40.0076 145.182 39.4773 145.182ZM39.5966 144.256C40.161 144.256 40.642 144.102 41.0398 143.795C41.4375 143.485 41.7405 143.059 41.9489 142.517C42.161 141.972 42.267 141.347 42.267 140.642C42.267 139.945 42.1629 139.33 41.9545 138.795C41.7462 138.258 41.4432 137.837 41.0455 137.534C40.6477 137.227 40.1648 137.074 39.5966 137.074C39.0133 137.074 38.5208 137.233 38.1193 137.551C37.7216 137.866 37.4186 138.292 37.2102 138.83C37.0057 139.367 36.9034 139.972 36.9034 140.642C36.9034 141.32 37.0076 141.932 37.2159 142.477C37.4242 143.023 37.7273 143.456 38.125 143.778C38.5265 144.097 39.017 144.256 39.5966 144.256ZM46.9545 145.085C46.7311 145.085 46.5379 145.006 46.375 144.847C46.2159 144.684 46.1364 144.491 46.1364 144.267C46.1364 144.04 46.2159 143.847 46.375 143.688C46.5379 143.528 46.7311 143.449 46.9545 143.449C47.1818 143.449 47.375 143.528 47.5341 143.688C47.6932 143.847 47.7727 144.04 47.7727 144.267C47.7727 144.415 47.7348 144.551 47.6591 144.676C47.5871 144.801 47.4886 144.902 47.3636 144.977C47.2424 145.049 47.1061 145.085 46.9545 145.085ZM55.1548 145V133.364H59.081C59.8385 133.364 60.4692 133.496 60.973 133.761C61.4806 134.027 61.8613 134.388 62.1151 134.847C62.3688 135.305 62.4957 135.826 62.4957 136.409C62.4957 136.894 62.4143 137.309 62.2514 137.653C62.0885 137.998 61.867 138.277 61.5866 138.489C61.3063 138.701 60.9938 138.854 60.6491 138.949V139.04C61.0241 139.066 61.3878 139.199 61.7401 139.438C62.0923 139.672 62.3821 140.002 62.6094 140.426C62.8366 140.85 62.9503 141.358 62.9503 141.949C62.9503 142.536 62.8196 143.061 62.5582 143.523C62.2969 143.981 61.8954 144.343 61.3537 144.608C60.8158 144.869 60.1302 145 59.2969 145H55.1548ZM56.2173 144.045H59.2969C60.1946 144.045 60.8575 143.847 61.2855 143.449C61.7173 143.051 61.9332 142.551 61.9332 141.949C61.9332 141.506 61.8253 141.104 61.6094 140.744C61.3973 140.381 61.0961 140.093 60.706 139.881C60.3196 139.669 59.8651 139.562 59.3423 139.562H56.2173V144.045ZM56.2173 138.619H59.1776C59.6359 138.619 60.0374 138.525 60.3821 138.335C60.7268 138.146 60.9957 137.884 61.1889 137.551C61.3821 137.218 61.4787 136.837 61.4787 136.409C61.4787 135.792 61.2779 135.29 60.8764 134.903C60.4749 134.513 59.8764 134.318 59.081 134.318H56.2173V138.619ZM66.3153 133.364V145H65.304V133.364H66.3153ZM72.3835 145.182C71.6297 145.182 70.9631 144.991 70.3835 144.608C69.8078 144.225 69.357 143.697 69.0312 143.023C68.7055 142.345 68.5426 141.562 68.5426 140.676C68.5426 139.782 68.7055 138.996 69.0312 138.318C69.357 137.636 69.8078 137.106 70.3835 136.727C70.9631 136.345 71.6297 136.153 72.3835 136.153C73.1373 136.153 73.8021 136.345 74.3778 136.727C74.9536 137.11 75.4044 137.64 75.7301 138.318C76.0597 138.996 76.2244 139.782 76.2244 140.676C76.2244 141.562 76.0616 142.345 75.7358 143.023C75.41 143.697 74.9574 144.225 74.3778 144.608C73.8021 144.991 73.1373 145.182 72.3835 145.182ZM72.3835 144.256C72.9896 144.256 73.5028 144.093 73.9233 143.767C74.3438 143.441 74.6619 143.008 74.8778 142.466C75.0975 141.924 75.2074 141.328 75.2074 140.676C75.2074 140.025 75.0975 139.426 74.8778 138.881C74.6619 138.335 74.3438 137.898 73.9233 137.568C73.5028 137.239 72.9896 137.074 72.3835 137.074C71.7813 137.074 71.268 137.239 70.8438 137.568C70.4233 137.898 70.1032 138.335 69.8835 138.881C69.6676 139.426 69.5597 140.025 69.5597 140.676C69.5597 141.328 69.6676 141.924 69.8835 142.466C70.1032 143.008 70.4233 143.441 70.8438 143.767C71.2642 144.093 71.7775 144.256 72.3835 144.256ZM81.8537 145.182C81.0734 145.182 80.3935 144.987 79.8139 144.597C79.2382 144.206 78.7912 143.672 78.473 142.994C78.1548 142.316 77.9957 141.544 77.9957 140.676C77.9957 139.801 78.1567 139.023 78.4787 138.341C78.8045 137.659 79.2552 137.125 79.831 136.739C80.4067 136.348 81.0753 136.153 81.8366 136.153C82.42 136.153 82.9484 136.267 83.4219 136.494C83.8954 136.718 84.2855 137.034 84.5923 137.443C84.9029 137.848 85.098 138.322 85.1776 138.864H84.1548C84.0488 138.371 83.7931 137.951 83.3878 137.602C82.9863 137.25 82.4749 137.074 81.8537 137.074C81.2969 137.074 80.8045 137.225 80.3764 137.528C79.9484 137.828 79.6132 138.246 79.3707 138.784C79.1321 139.318 79.0128 139.937 79.0128 140.642C79.0128 141.35 79.1302 141.977 79.3651 142.523C79.5999 143.064 79.9295 143.489 80.3537 143.795C80.7817 144.102 81.2817 144.256 81.8537 144.256C82.2401 144.256 82.5923 144.184 82.9105 144.04C83.2325 143.892 83.5014 143.684 83.7173 143.415C83.937 143.146 84.0848 142.826 84.1605 142.455H85.1832C85.1075 142.981 84.92 143.451 84.6207 143.864C84.3253 144.273 83.9408 144.595 83.4673 144.83C82.9976 145.064 82.4598 145.182 81.8537 145.182ZM88.2713 141.705L88.2599 140.381H88.4872L92.5781 136.273H93.8565L89.8168 140.318L89.7259 140.335L88.2713 141.705ZM87.3509 145V133.364H88.3622V145H87.3509ZM92.7884 145L89.2429 140.517L89.9702 139.818L94.0838 145H92.7884ZM98.8068 145.182C98.0265 145.182 97.3466 144.987 96.767 144.597C96.1913 144.206 95.7443 143.672 95.4261 142.994C95.108 142.316 94.9489 141.544 94.9489 140.676C94.9489 139.801 95.1098 139.023 95.4318 138.341C95.7576 137.659 96.2083 137.125 96.7841 136.739C97.3598 136.348 98.0284 136.153 98.7898 136.153C99.3731 136.153 99.9015 136.267 100.375 136.494C100.848 136.718 101.239 137.034 101.545 137.443C101.856 137.848 102.051 138.322 102.131 138.864H101.108C101.002 138.371 100.746 137.951 100.341 137.602C99.9394 137.25 99.428 137.074 98.8068 137.074C98.25 137.074 97.7576 137.225 97.3295 137.528C96.9015 137.828 96.5663 138.246 96.3239 138.784C96.0852 139.318 95.9659 139.937 95.9659 140.642C95.9659 141.35 96.0833 141.977 96.3182 142.523C96.553 143.064 96.8826 143.489 97.3068 143.795C97.7348 144.102 98.2348 144.256 98.8068 144.256C99.1932 144.256 99.5455 144.184 99.8636 144.04C100.186 143.892 100.455 143.684 100.67 143.415C100.89 143.146 101.038 142.826 101.114 142.455H102.136C102.061 142.981 101.873 143.451 101.574 143.864C101.278 144.273 100.894 144.595 100.42 144.83C99.9508 145.064 99.4129 145.182 98.8068 145.182ZM105.315 139.545V145H104.304V133.364H105.315V137.642H105.406C105.611 137.191 105.927 136.831 106.355 136.562C106.787 136.294 107.332 136.159 107.991 136.159C108.582 136.159 109.101 136.28 109.548 136.523C109.995 136.765 110.344 137.123 110.594 137.597C110.844 138.07 110.969 138.653 110.969 139.347V145H109.952V139.409C109.952 138.689 109.751 138.123 109.349 137.71C108.952 137.294 108.414 137.085 107.736 137.085C107.27 137.085 106.855 137.184 106.491 137.381C106.128 137.578 105.84 137.862 105.628 138.233C105.42 138.6 105.315 139.038 105.315 139.545ZM116.07 145.199C115.543 145.199 115.062 145.097 114.626 144.892C114.191 144.684 113.844 144.384 113.587 143.994C113.329 143.6 113.2 143.123 113.2 142.562C113.2 142.131 113.282 141.767 113.445 141.472C113.607 141.176 113.839 140.934 114.138 140.744C114.437 140.555 114.791 140.405 115.2 140.295C115.609 140.186 116.06 140.1 116.553 140.04C117.041 139.979 117.454 139.926 117.791 139.881C118.132 139.835 118.392 139.763 118.57 139.665C118.748 139.566 118.837 139.407 118.837 139.188V138.983C118.837 138.388 118.659 137.92 118.303 137.58C117.95 137.235 117.443 137.062 116.78 137.062C116.151 137.062 115.638 137.201 115.24 137.477C114.846 137.754 114.57 138.08 114.411 138.455L113.45 138.108C113.647 137.631 113.92 137.25 114.268 136.966C114.617 136.678 115.007 136.472 115.439 136.347C115.871 136.218 116.308 136.153 116.751 136.153C117.085 136.153 117.431 136.197 117.791 136.284C118.155 136.371 118.492 136.523 118.803 136.739C119.113 136.951 119.365 137.248 119.558 137.631C119.751 138.009 119.848 138.491 119.848 139.074V145H118.837V143.619H118.774C118.653 143.877 118.473 144.127 118.234 144.369C117.996 144.612 117.696 144.811 117.337 144.966C116.977 145.121 116.554 145.199 116.07 145.199ZM116.206 144.273C116.744 144.273 117.21 144.153 117.604 143.915C117.998 143.676 118.301 143.36 118.513 142.966C118.729 142.568 118.837 142.131 118.837 141.653V140.392C118.761 140.464 118.634 140.528 118.456 140.585C118.282 140.642 118.079 140.693 117.848 140.739C117.621 140.78 117.393 140.816 117.166 140.847C116.939 140.877 116.734 140.903 116.553 140.926C116.06 140.987 115.64 141.081 115.291 141.21C114.943 141.339 114.676 141.517 114.49 141.744C114.304 141.968 114.212 142.256 114.212 142.608C114.212 143.138 114.401 143.549 114.78 143.841C115.159 144.129 115.634 144.273 116.206 144.273ZM122.55 145V136.273H123.567V145H122.55ZM123.067 134.773C122.858 134.773 122.68 134.703 122.533 134.562C122.385 134.419 122.311 134.246 122.311 134.045C122.311 133.845 122.385 133.674 122.533 133.534C122.68 133.39 122.858 133.318 123.067 133.318C123.275 133.318 123.453 133.39 123.601 133.534C123.749 133.674 123.822 133.845 123.822 134.045C123.822 134.246 123.749 134.419 123.601 134.562C123.453 134.703 123.275 134.773 123.067 134.773ZM127.253 139.545V145H126.241V136.273H127.224V137.642H127.315C127.52 137.195 127.838 136.837 128.27 136.568C128.705 136.295 129.243 136.159 129.884 136.159C130.471 136.159 130.986 136.282 131.429 136.528C131.876 136.771 132.223 137.129 132.469 137.602C132.719 138.076 132.844 138.657 132.844 139.347V145H131.832V139.409C131.832 138.693 131.632 138.127 131.23 137.71C130.832 137.294 130.298 137.085 129.628 137.085C129.17 137.085 128.762 137.184 128.406 137.381C128.05 137.578 127.768 137.862 127.56 138.233C127.355 138.6 127.253 139.038 127.253 139.545ZM136.314 145.085C136.09 145.085 135.897 145.006 135.734 144.847C135.575 144.684 135.496 144.491 135.496 144.267C135.496 144.04 135.575 143.847 135.734 143.688C135.897 143.528 136.09 143.449 136.314 143.449C136.541 143.449 136.734 143.528 136.893 143.688C137.053 143.847 137.132 144.04 137.132 144.267C137.132 144.415 137.094 144.551 137.018 144.676C136.946 144.801 136.848 144.902 136.723 144.977C136.602 145.049 136.465 145.085 136.314 145.085ZM150.832 136.273C150.768 135.625 150.482 135.11 149.974 134.727C149.467 134.345 148.829 134.153 148.06 134.153C147.518 134.153 147.041 134.246 146.628 134.432C146.219 134.617 145.897 134.875 145.662 135.205C145.431 135.53 145.315 135.902 145.315 136.318C145.315 136.625 145.382 136.894 145.514 137.125C145.647 137.356 145.825 137.555 146.048 137.722C146.276 137.884 146.526 138.025 146.798 138.142C147.075 138.259 147.353 138.358 147.634 138.438L148.861 138.79C149.232 138.892 149.603 139.023 149.974 139.182C150.346 139.341 150.685 139.542 150.991 139.784C151.302 140.023 151.55 140.316 151.736 140.665C151.925 141.009 152.02 141.424 152.02 141.909C152.02 142.53 151.859 143.089 151.537 143.585C151.215 144.081 150.753 144.475 150.151 144.767C149.548 145.055 148.827 145.199 147.986 145.199C147.194 145.199 146.507 145.068 145.923 144.807C145.34 144.542 144.882 144.176 144.548 143.71C144.215 143.244 144.027 142.705 143.986 142.091H145.077C145.115 142.549 145.266 142.937 145.531 143.256C145.796 143.574 146.141 143.816 146.565 143.983C146.99 144.146 147.463 144.227 147.986 144.227C148.565 144.227 149.08 144.131 149.531 143.938C149.986 143.741 150.342 143.468 150.599 143.119C150.861 142.767 150.991 142.358 150.991 141.892C150.991 141.498 150.889 141.169 150.685 140.903C150.48 140.634 150.194 140.409 149.827 140.227C149.463 140.045 149.041 139.884 148.56 139.744L147.168 139.335C146.255 139.062 145.546 138.686 145.043 138.205C144.539 137.723 144.287 137.11 144.287 136.364C144.287 135.739 144.454 135.189 144.787 134.716C145.124 134.239 145.579 133.867 146.151 133.602C146.726 133.333 147.372 133.199 148.088 133.199C148.812 133.199 149.452 133.331 150.009 133.597C150.565 133.862 151.007 134.227 151.332 134.693C151.662 135.155 151.838 135.682 151.861 136.273H150.832ZM157.895 145.182C157.08 145.182 156.376 144.992 155.781 144.614C155.187 144.231 154.726 143.703 154.401 143.028C154.079 142.35 153.918 141.57 153.918 140.688C153.918 139.809 154.079 139.028 154.401 138.347C154.726 137.661 155.175 137.125 155.747 136.739C156.323 136.348 156.988 136.153 157.741 136.153C158.215 136.153 158.671 136.241 159.111 136.415C159.55 136.585 159.944 136.848 160.293 137.205C160.645 137.557 160.923 138.002 161.128 138.54C161.332 139.074 161.435 139.706 161.435 140.438V140.938H154.616V140.045H160.401C160.401 139.485 160.287 138.981 160.06 138.534C159.836 138.083 159.524 137.727 159.122 137.466C158.724 137.205 158.264 137.074 157.741 137.074C157.188 137.074 156.702 137.222 156.281 137.517C155.861 137.812 155.531 138.203 155.293 138.688C155.058 139.172 154.938 139.703 154.935 140.278V140.812C154.935 141.506 155.054 142.112 155.293 142.631C155.535 143.146 155.878 143.545 156.321 143.83C156.764 144.114 157.289 144.256 157.895 144.256C158.308 144.256 158.67 144.191 158.98 144.062C159.295 143.934 159.558 143.761 159.77 143.545C159.986 143.326 160.149 143.085 160.259 142.824L161.219 143.136C161.086 143.504 160.868 143.843 160.565 144.153C160.266 144.464 159.891 144.714 159.44 144.903C158.993 145.089 158.478 145.182 157.895 145.182ZM167.072 145.182C166.292 145.182 165.612 144.987 165.033 144.597C164.457 144.206 164.01 143.672 163.692 142.994C163.374 142.316 163.214 141.544 163.214 140.676C163.214 139.801 163.375 139.023 163.697 138.341C164.023 137.659 164.474 137.125 165.05 136.739C165.625 136.348 166.294 136.153 167.055 136.153C167.639 136.153 168.167 136.267 168.641 136.494C169.114 136.718 169.504 137.034 169.811 137.443C170.122 137.848 170.317 138.322 170.396 138.864H169.374C169.268 138.371 169.012 137.951 168.607 137.602C168.205 137.25 167.694 137.074 167.072 137.074C166.516 137.074 166.023 137.225 165.595 137.528C165.167 137.828 164.832 138.246 164.589 138.784C164.351 139.318 164.232 139.937 164.232 140.642C164.232 141.35 164.349 141.977 164.584 142.523C164.819 143.064 165.148 143.489 165.572 143.795C166 144.102 166.5 144.256 167.072 144.256C167.459 144.256 167.811 144.184 168.129 144.04C168.451 143.892 168.72 143.684 168.936 143.415C169.156 143.146 169.304 142.826 169.379 142.455H170.402C170.326 142.981 170.139 143.451 169.839 143.864C169.544 144.273 169.16 144.595 168.686 144.83C168.216 145.064 167.679 145.182 167.072 145.182ZM178.115 141.665V136.273H179.126V145H178.115V143.551H178.036C177.831 143.998 177.507 144.371 177.064 144.67C176.621 144.966 176.079 145.114 175.439 145.114C174.882 145.114 174.388 144.992 173.956 144.75C173.524 144.504 173.185 144.144 172.939 143.67C172.693 143.197 172.57 142.616 172.57 141.926V136.273H173.581V141.864C173.581 142.545 173.782 143.095 174.183 143.511C174.585 143.924 175.1 144.131 175.729 144.131C176.123 144.131 176.501 144.036 176.865 143.847C177.229 143.657 177.528 143.381 177.763 143.017C177.998 142.65 178.115 142.199 178.115 141.665ZM181.804 145V136.273H182.787V137.614H182.861C183.035 137.174 183.338 136.82 183.77 136.551C184.205 136.278 184.698 136.142 185.247 136.142C185.33 136.142 185.423 136.144 185.526 136.148C185.628 136.152 185.713 136.155 185.781 136.159V137.188C185.736 137.18 185.656 137.169 185.543 137.153C185.429 137.138 185.306 137.131 185.173 137.131C184.719 137.131 184.313 137.227 183.957 137.42C183.605 137.61 183.327 137.873 183.122 138.21C182.918 138.547 182.815 138.932 182.815 139.364V145H181.804ZM190.77 145.182C189.955 145.182 189.251 144.992 188.656 144.614C188.062 144.231 187.601 143.703 187.276 143.028C186.954 142.35 186.793 141.57 186.793 140.688C186.793 139.809 186.954 139.028 187.276 138.347C187.601 137.661 188.05 137.125 188.622 136.739C189.198 136.348 189.863 136.153 190.616 136.153C191.09 136.153 191.546 136.241 191.986 136.415C192.425 136.585 192.819 136.848 193.168 137.205C193.52 137.557 193.798 138.002 194.003 138.54C194.207 139.074 194.31 139.706 194.31 140.438V140.938H187.491V140.045H193.276C193.276 139.485 193.162 138.981 192.935 138.534C192.711 138.083 192.399 137.727 191.997 137.466C191.599 137.205 191.139 137.074 190.616 137.074C190.063 137.074 189.577 137.222 189.156 137.517C188.736 137.812 188.406 138.203 188.168 138.688C187.933 139.172 187.813 139.703 187.81 140.278V140.812C187.81 141.506 187.929 142.112 188.168 142.631C188.41 143.146 188.753 143.545 189.196 143.83C189.639 144.114 190.164 144.256 190.77 144.256C191.183 144.256 191.545 144.191 191.855 144.062C192.17 143.934 192.433 143.761 192.645 143.545C192.861 143.326 193.024 143.085 193.134 142.824L194.094 143.136C193.961 143.504 193.743 143.843 193.44 144.153C193.141 144.464 192.766 144.714 192.315 144.903C191.868 145.089 191.353 145.182 190.77 145.182ZM197.345 145.085C197.122 145.085 196.929 145.006 196.766 144.847C196.607 144.684 196.527 144.491 196.527 144.267C196.527 144.04 196.607 143.847 196.766 143.688C196.929 143.528 197.122 143.449 197.345 143.449C197.572 143.449 197.766 143.528 197.925 143.688C198.084 143.847 198.163 144.04 198.163 144.267C198.163 144.415 198.125 144.551 198.05 144.676C197.978 144.801 197.879 144.902 197.754 144.977C197.633 145.049 197.497 145.085 197.345 145.085ZM211.864 136.273C211.799 135.625 211.513 135.11 211.006 134.727C210.498 134.345 209.86 134.153 209.091 134.153C208.549 134.153 208.072 134.246 207.659 134.432C207.25 134.617 206.928 134.875 206.693 135.205C206.462 135.53 206.347 135.902 206.347 136.318C206.347 136.625 206.413 136.894 206.545 137.125C206.678 137.356 206.856 137.555 207.08 137.722C207.307 137.884 207.557 138.025 207.83 138.142C208.106 138.259 208.384 138.358 208.665 138.438L209.892 138.79C210.263 138.892 210.634 139.023 211.006 139.182C211.377 139.341 211.716 139.542 212.023 139.784C212.333 140.023 212.581 140.316 212.767 140.665C212.956 141.009 213.051 141.424 213.051 141.909C213.051 142.53 212.89 143.089 212.568 143.585C212.246 144.081 211.784 144.475 211.182 144.767C210.58 145.055 209.858 145.199 209.017 145.199C208.225 145.199 207.538 145.068 206.955 144.807C206.371 144.542 205.913 144.176 205.58 143.71C205.246 143.244 205.059 142.705 205.017 142.091H206.108C206.146 142.549 206.297 142.937 206.562 143.256C206.828 143.574 207.172 143.816 207.597 143.983C208.021 144.146 208.494 144.227 209.017 144.227C209.597 144.227 210.112 144.131 210.562 143.938C211.017 143.741 211.373 143.468 211.631 143.119C211.892 142.767 212.023 142.358 212.023 141.892C212.023 141.498 211.92 141.169 211.716 140.903C211.511 140.634 211.225 140.409 210.858 140.227C210.494 140.045 210.072 139.884 209.591 139.744L208.199 139.335C207.286 139.062 206.578 138.686 206.074 138.205C205.57 137.723 205.318 137.11 205.318 136.364C205.318 135.739 205.485 135.189 205.818 134.716C206.155 134.239 206.61 133.867 207.182 133.602C207.758 133.333 208.403 133.199 209.119 133.199C209.843 133.199 210.483 133.331 211.04 133.597C211.597 133.862 212.038 134.227 212.364 134.693C212.693 135.155 212.869 135.682 212.892 136.273H211.864ZM218.835 136.273V137.153H214.67V136.273H218.835ZM215.972 134.182H216.989V142.722C216.989 143.085 217.051 143.371 217.176 143.58C217.301 143.784 217.464 143.93 217.665 144.017C217.866 144.1 218.08 144.142 218.307 144.142C218.439 144.142 218.553 144.134 218.648 144.119C218.742 144.1 218.826 144.081 218.898 144.062L219.114 144.977C219.015 145.015 218.894 145.049 218.75 145.08C218.606 145.114 218.428 145.131 218.216 145.131C217.845 145.131 217.487 145.049 217.142 144.886C216.801 144.723 216.521 144.481 216.301 144.159C216.081 143.837 215.972 143.438 215.972 142.96V134.182ZM223.57 145.199C223.043 145.199 222.562 145.097 222.126 144.892C221.691 144.684 221.344 144.384 221.087 143.994C220.829 143.6 220.7 143.123 220.7 142.562C220.7 142.131 220.782 141.767 220.945 141.472C221.107 141.176 221.339 140.934 221.638 140.744C221.937 140.555 222.291 140.405 222.7 140.295C223.109 140.186 223.56 140.1 224.053 140.04C224.541 139.979 224.954 139.926 225.291 139.881C225.632 139.835 225.892 139.763 226.07 139.665C226.248 139.566 226.337 139.407 226.337 139.188V138.983C226.337 138.388 226.159 137.92 225.803 137.58C225.45 137.235 224.943 137.062 224.28 137.062C223.651 137.062 223.138 137.201 222.74 137.477C222.346 137.754 222.07 138.08 221.911 138.455L220.95 138.108C221.147 137.631 221.42 137.25 221.768 136.966C222.117 136.678 222.507 136.472 222.939 136.347C223.371 136.218 223.808 136.153 224.251 136.153C224.585 136.153 224.931 136.197 225.291 136.284C225.655 136.371 225.992 136.523 226.303 136.739C226.613 136.951 226.865 137.248 227.058 137.631C227.251 138.009 227.348 138.491 227.348 139.074V145H226.337V143.619H226.274C226.153 143.877 225.973 144.127 225.734 144.369C225.496 144.612 225.196 144.811 224.837 144.966C224.477 145.121 224.054 145.199 223.57 145.199ZM223.706 144.273C224.244 144.273 224.71 144.153 225.104 143.915C225.498 143.676 225.801 143.36 226.013 142.966C226.229 142.568 226.337 142.131 226.337 141.653V140.392C226.261 140.464 226.134 140.528 225.956 140.585C225.782 140.642 225.579 140.693 225.348 140.739C225.121 140.78 224.893 140.816 224.666 140.847C224.439 140.877 224.234 140.903 224.053 140.926C223.56 140.987 223.14 141.081 222.791 141.21C222.443 141.339 222.176 141.517 221.99 141.744C221.804 141.968 221.712 142.256 221.712 142.608C221.712 143.138 221.901 143.549 222.28 143.841C222.659 144.129 223.134 144.273 223.706 144.273ZM230.249 145V133.364H231.266V137.938H231.357C231.47 137.676 231.633 137.407 231.845 137.131C232.061 136.854 232.343 136.623 232.692 136.438C233.044 136.248 233.487 136.153 234.021 136.153C234.737 136.153 235.366 136.343 235.908 136.722C236.449 137.097 236.872 137.623 237.175 138.301C237.478 138.975 237.629 139.761 237.629 140.659C237.629 141.561 237.478 142.35 237.175 143.028C236.875 143.706 236.455 144.235 235.913 144.614C235.375 144.992 234.75 145.182 234.038 145.182C233.508 145.182 233.065 145.087 232.709 144.898C232.357 144.708 232.072 144.475 231.857 144.199C231.641 143.919 231.474 143.646 231.357 143.381H231.232V145H230.249ZM231.249 140.642C231.249 141.347 231.353 141.972 231.561 142.517C231.773 143.059 232.076 143.485 232.47 143.795C232.868 144.102 233.349 144.256 233.913 144.256C234.493 144.256 234.983 144.097 235.385 143.778C235.786 143.456 236.091 143.023 236.3 142.477C236.508 141.932 236.612 141.32 236.612 140.642C236.612 139.972 236.508 139.367 236.3 138.83C236.095 138.292 235.792 137.866 235.391 137.551C234.989 137.233 234.497 137.074 233.913 137.074C233.345 137.074 232.862 137.227 232.464 137.534C232.071 137.837 231.769 138.258 231.561 138.795C231.353 139.33 231.249 139.945 231.249 140.642ZM240.862 133.364V145H239.851V133.364H240.862ZM247.067 145.182C246.252 145.182 245.548 144.992 244.953 144.614C244.358 144.231 243.898 143.703 243.572 143.028C243.25 142.35 243.089 141.57 243.089 140.688C243.089 139.809 243.25 139.028 243.572 138.347C243.898 137.661 244.347 137.125 244.919 136.739C245.495 136.348 246.16 136.153 246.913 136.153C247.387 136.153 247.843 136.241 248.283 136.415C248.722 136.585 249.116 136.848 249.464 137.205C249.817 137.557 250.095 138.002 250.3 138.54C250.504 139.074 250.607 139.706 250.607 140.438V140.938H243.788V140.045H249.572C249.572 139.485 249.459 138.981 249.232 138.534C249.008 138.083 248.696 137.727 248.294 137.466C247.896 137.205 247.436 137.074 246.913 137.074C246.36 137.074 245.874 137.222 245.453 137.517C245.033 137.812 244.703 138.203 244.464 138.688C244.23 139.172 244.11 139.703 244.107 140.278V140.812C244.107 141.506 244.226 142.112 244.464 142.631C244.707 143.146 245.05 143.545 245.493 143.83C245.936 144.114 246.461 144.256 247.067 144.256C247.48 144.256 247.841 144.191 248.152 144.062C248.466 143.934 248.73 143.761 248.942 143.545C249.158 143.326 249.321 143.085 249.43 142.824L250.391 143.136C250.258 143.504 250.04 143.843 249.737 144.153C249.438 144.464 249.063 144.714 248.612 144.903C248.165 145.089 247.65 145.182 247.067 145.182ZM253.642 145.085C253.419 145.085 253.225 145.006 253.062 144.847C252.903 144.684 252.824 144.491 252.824 144.267C252.824 144.04 252.903 143.847 253.062 143.688C253.225 143.528 253.419 143.449 253.642 143.449C253.869 143.449 254.062 143.528 254.222 143.688C254.381 143.847 254.46 144.04 254.46 144.267C254.46 144.415 254.422 144.551 254.347 144.676C254.275 144.801 254.176 144.902 254.051 144.977C253.93 145.049 253.794 145.085 253.642 145.085ZM268.161 136.273C268.096 135.625 267.81 135.11 267.303 134.727C266.795 134.345 266.157 134.153 265.388 134.153C264.846 134.153 264.369 134.246 263.956 134.432C263.547 134.617 263.225 134.875 262.99 135.205C262.759 135.53 262.643 135.902 262.643 136.318C262.643 136.625 262.71 136.894 262.842 137.125C262.975 137.356 263.153 137.555 263.376 137.722C263.604 137.884 263.854 138.025 264.126 138.142C264.403 138.259 264.681 138.358 264.962 138.438L266.189 138.79C266.56 138.892 266.931 139.023 267.303 139.182C267.674 139.341 268.013 139.542 268.32 139.784C268.63 140.023 268.878 140.316 269.064 140.665C269.253 141.009 269.348 141.424 269.348 141.909C269.348 142.53 269.187 143.089 268.865 143.585C268.543 144.081 268.081 144.475 267.479 144.767C266.876 145.055 266.155 145.199 265.314 145.199C264.522 145.199 263.835 145.068 263.251 144.807C262.668 144.542 262.21 144.176 261.876 143.71C261.543 143.244 261.356 142.705 261.314 142.091H262.405C262.443 142.549 262.594 142.937 262.859 143.256C263.125 143.574 263.469 143.816 263.893 143.983C264.318 144.146 264.791 144.227 265.314 144.227C265.893 144.227 266.409 144.131 266.859 143.938C267.314 143.741 267.67 143.468 267.928 143.119C268.189 142.767 268.32 142.358 268.32 141.892C268.32 141.498 268.217 141.169 268.013 140.903C267.808 140.634 267.522 140.409 267.155 140.227C266.791 140.045 266.369 139.884 265.888 139.744L264.496 139.335C263.583 139.062 262.875 138.686 262.371 138.205C261.867 137.723 261.615 137.11 261.615 136.364C261.615 135.739 261.782 135.189 262.115 134.716C262.452 134.239 262.907 133.867 263.479 133.602C264.054 133.333 264.7 133.199 265.416 133.199C266.14 133.199 266.78 133.331 267.337 133.597C267.893 133.862 268.335 134.227 268.661 134.693C268.99 135.155 269.166 135.682 269.189 136.273H268.161ZM271.706 145V136.273H272.723V145H271.706ZM272.223 134.773C272.015 134.773 271.837 134.703 271.689 134.562C271.541 134.419 271.467 134.246 271.467 134.045C271.467 133.845 271.541 133.674 271.689 133.534C271.837 133.39 272.015 133.318 272.223 133.318C272.431 133.318 272.609 133.39 272.757 133.534C272.905 133.674 272.979 133.845 272.979 134.045C272.979 134.246 272.905 134.419 272.757 134.562C272.609 134.703 272.431 134.773 272.223 134.773ZM275.398 145V136.273H276.381V137.614H276.472C276.646 137.163 276.936 136.809 277.341 136.551C277.75 136.29 278.241 136.159 278.812 136.159C279.415 136.159 279.909 136.301 280.295 136.585C280.686 136.866 280.977 137.252 281.17 137.744H281.244C281.441 137.259 281.761 136.875 282.205 136.591C282.652 136.303 283.193 136.159 283.83 136.159C284.64 136.159 285.28 136.415 285.75 136.926C286.22 137.434 286.455 138.176 286.455 139.153V145H285.443V139.153C285.443 138.464 285.267 137.947 284.915 137.602C284.563 137.258 284.098 137.085 283.523 137.085C282.856 137.085 282.343 137.29 281.983 137.699C281.623 138.108 281.443 138.627 281.443 139.256V145H280.409V139.062C280.409 138.472 280.244 137.994 279.915 137.631C279.585 137.267 279.121 137.085 278.523 137.085C278.121 137.085 277.759 137.184 277.438 137.381C277.119 137.578 276.867 137.852 276.682 138.205C276.5 138.553 276.409 138.955 276.409 139.409V145H275.398ZM289.132 148.273V136.273H290.115V137.938H290.234C290.356 137.676 290.522 137.409 290.734 137.136C290.946 136.86 291.227 136.627 291.575 136.438C291.928 136.248 292.371 136.153 292.905 136.153C293.625 136.153 294.253 136.343 294.791 136.722C295.333 137.097 295.753 137.623 296.053 138.301C296.356 138.975 296.507 139.761 296.507 140.659C296.507 141.561 296.356 142.35 296.053 143.028C295.753 143.706 295.333 144.235 294.791 144.614C294.253 144.992 293.628 145.182 292.916 145.182C292.39 145.182 291.948 145.087 291.592 144.898C291.24 144.708 290.954 144.475 290.734 144.199C290.518 143.919 290.352 143.646 290.234 143.381H290.143V148.273H289.132ZM290.132 140.642C290.132 141.347 290.236 141.972 290.445 142.517C290.657 143.059 290.96 143.485 291.354 143.795C291.751 144.102 292.232 144.256 292.797 144.256C293.376 144.256 293.865 144.097 294.263 143.778C294.664 143.456 294.969 143.023 295.178 142.477C295.39 141.932 295.496 141.32 295.496 140.642C295.496 139.972 295.392 139.367 295.183 138.83C294.979 138.292 294.676 137.866 294.274 137.551C293.873 137.233 293.38 137.074 292.797 137.074C292.229 137.074 291.746 137.227 291.348 137.534C290.95 137.837 290.647 138.258 290.439 138.795C290.234 139.33 290.132 139.945 290.132 140.642ZM299.737 133.364V145H298.726V133.364H299.737ZM305.942 145.182C305.127 145.182 304.423 144.992 303.828 144.614C303.233 144.231 302.773 143.703 302.447 143.028C302.125 142.35 301.964 141.57 301.964 140.688C301.964 139.809 302.125 139.028 302.447 138.347C302.773 137.661 303.222 137.125 303.794 136.739C304.37 136.348 305.035 136.153 305.788 136.153C306.262 136.153 306.718 136.241 307.158 136.415C307.597 136.585 307.991 136.848 308.339 137.205C308.692 137.557 308.97 138.002 309.175 138.54C309.379 139.074 309.482 139.706 309.482 140.438V140.938H302.663V140.045H308.447C308.447 139.485 308.334 138.981 308.107 138.534C307.883 138.083 307.571 137.727 307.169 137.466C306.771 137.205 306.311 137.074 305.788 137.074C305.235 137.074 304.749 137.222 304.328 137.517C303.908 137.812 303.578 138.203 303.339 138.688C303.105 139.172 302.985 139.703 302.982 140.278V140.812C302.982 141.506 303.101 142.112 303.339 142.631C303.582 143.146 303.925 143.545 304.368 143.83C304.811 144.114 305.336 144.256 305.942 144.256C306.355 144.256 306.716 144.191 307.027 144.062C307.341 143.934 307.605 143.761 307.817 143.545C308.033 143.326 308.196 143.085 308.305 142.824L309.266 143.136C309.133 143.504 308.915 143.843 308.612 144.153C308.313 144.464 307.938 144.714 307.487 144.903C307.04 145.089 306.525 145.182 305.942 145.182ZM312.517 145.085C312.294 145.085 312.1 145.006 311.938 144.847C311.778 144.684 311.699 144.491 311.699 144.267C311.699 144.04 311.778 143.847 311.938 143.688C312.1 143.528 312.294 143.449 312.517 143.449C312.744 143.449 312.938 143.528 313.097 143.688C313.256 143.847 313.335 144.04 313.335 144.267C313.335 144.415 313.297 144.551 313.222 144.676C313.15 144.801 313.051 144.902 312.926 144.977C312.805 145.049 312.669 145.085 312.517 145.085Z" fill="black"/>
</svg>
