<svg width="156" height="32" viewBox="0 0 156 32" fill="none" xmlns="http://www.w3.org/2000/svg">
<path fill-rule="evenodd" clip-rule="evenodd" d="M92.8463 4.49545H96.0732C97.2496 4.49545 98.1992 3.63937 98.1992 2.57884C98.1992 1.51819 97.2496 0.662109 96.0732 0.662109H73.8682C72.6919 0.662109 71.7422 1.51819 71.7422 2.57884C71.7422 3.63937 72.6919 4.49545 73.8682 4.49545H77.095C78.5738 4.49545 79.7738 5.57733 79.7738 6.91054V28.9144C79.7738 30.2476 80.9738 31.3294 82.4526 31.3294H87.4889C88.9676 31.3294 90.1677 30.2476 90.1677 28.9144V6.91054C90.1677 5.57733 91.3675 4.49545 92.8463 4.49545ZM119.415 22.6446V28.9058L119.41 28.8973C119.41 30.2305 118.21 31.3124 116.731 31.3124H111.695C110.216 31.3124 109.016 30.2305 109.016 28.8973V22.6361C109.016 21.9716 108.421 21.4306 107.679 21.4306H104.532C102.317 21.4306 100.517 19.8121 100.517 17.8102V3.08567C100.517 1.75246 101.717 0.670579 103.195 0.670579H108.326C109.805 0.670579 111.005 1.75246 111.005 3.08567V15.5315C111.005 16.8647 112.205 17.9466 113.684 17.9466H116.736C118.215 17.9466 119.415 16.8647 119.415 15.5315V2.58731C119.415 1.52678 120.364 0.670579 121.54 0.670579C122.717 0.670579 123.666 1.52678 123.666 2.58731V19.0241C123.666 20.3574 122.466 21.4392 120.988 21.4392H120.752C120.015 21.4392 119.415 21.9759 119.415 22.6446ZM48.8395 0.670579H35.0158C32.8 0.670579 31 2.2934 31 4.2953V27.7175C31 29.7194 32.8 31.3379 35.0158 31.3379H48.8395C51.7971 31.3379 54.1971 29.1741 54.1971 26.5079V20.0038V18.824C54.1971 17.576 53.257 16.4898 51.9151 16.1874L51.1072 16.0043L51.9151 15.8211C53.257 15.5187 54.1971 14.4325 54.1971 13.1846V13.159V5.50075C54.1971 2.83434 51.7971 0.670579 48.8395 0.670579ZM49.7561 19.6332V25.7625C49.7561 26.7634 48.8584 27.5727 47.7483 27.5727H43.4017C42.2914 27.5727 41.3938 26.7634 41.3938 25.7625V19.6332C41.3938 18.6323 42.2914 17.823 43.4017 17.823H47.7483C48.8584 17.823 49.7561 18.6323 49.7561 19.6332ZM49.7561 6.31425V12.371C49.7561 13.372 48.8584 14.1812 47.7483 14.1812H43.4017C42.2914 14.1812 41.3938 13.372 41.3938 12.371V6.31425C41.3938 5.31324 42.2914 4.50404 43.4017 4.50404H47.7483C48.8584 4.50404 49.7561 5.31324 49.7561 6.31425ZM61.7129 0.662109H66.7492C68.2286 0.662109 69.428 1.74329 69.428 3.0772V28.9144C69.428 30.2481 68.2286 31.3294 66.7492 31.3294H61.7129C60.2335 31.3294 59.0341 30.2481 59.0341 28.9144V3.0772C59.0341 1.74329 60.2335 0.662109 61.7129 0.662109Z" fill="black" fill-opacity="0.48"/>
</svg>
