<svg width="29" height="29" viewBox="0 0 29 29" fill="none" xmlns="http://www.w3.org/2000/svg">
<g clip-path="url(#clip0_548_204)">
<path d="M14.5407 0H14.4582C6.47252 0 -0.000976562 6.4735 -0.000976562 14.4592V14.5417C-0.000976562 22.5273 6.47252 29.0008 14.4582 29.0008H14.5407C22.5263 29.0008 28.9998 22.5273 28.9998 14.5417V14.4592C28.999 6.4735 22.5255 0 14.5407 0ZM10.0611 20.2826C6.88996 20.2826 4.31854 17.6939 4.31854 14.5004C4.31854 11.307 6.88996 8.71823 10.0611 8.71823C13.2323 8.71823 15.8037 11.307 15.8037 14.5004C15.8037 17.6939 13.2323 20.2826 10.0611 20.2826ZM19.2323 19.9444C17.6467 19.9444 16.3606 17.5066 16.3606 14.5004C16.3606 11.4942 17.6459 9.05647 19.2314 9.05647C20.817 9.05647 22.1031 11.4934 22.1031 14.5004C22.1031 17.5066 20.8178 19.9444 19.2314 19.9444H19.2323ZM23.6706 19.3776C23.1129 19.3776 22.6608 17.1939 22.6608 14.5012C22.6608 11.8085 23.1129 9.62487 23.6706 9.62487C24.2282 9.62487 24.6803 11.8085 24.6803 14.5012C24.6803 17.1939 24.2282 19.3776 23.6706 19.3776Z" fill="white"/>
</g>
<defs>
<clipPath id="clip0_548_204">
<rect width="29" height="29" fill="white"/>
</clipPath>
</defs>
</svg>
