<svg width="49" height="48" viewBox="0 0 49 48" fill="none" xmlns="http://www.w3.org/2000/svg">
<g clip-path="url(#clip0_3067_660)">
<g clip-path="url(#clip1_3067_660)">
<path d="M24.0891 0C10.835 0 0.0910797 10.7459 0.0910797 24C0.0910797 37.2541 10.835 48 24.0891 48C37.3432 48 48.0871 37.2541 48.0871 24C48.0871 10.7459 37.3412 0 24.0891 0ZM24.0891 44.7866C12.5563 44.7866 3.20688 35.4352 3.20688 23.9024C3.20688 12.3696 12.5563 3.01619 24.0891 3.01619C35.6219 3.01619 44.9713 12.3676 44.9713 23.9004C44.9713 35.4332 35.6219 44.7846 24.0891 44.7846V44.7866Z" fill="white"/>
<path d="M3.20289 23.9004C3.20289 35.4332 12.5543 44.7826 24.0871 44.7826C35.6219 44.7826 44.9713 35.4332 44.9713 23.9004C44.9713 12.3676 35.6219 3.01819 24.0891 3.01819C12.5543 3.01819 3.20488 12.3676 3.20488 23.9004H3.20289Z" fill="url(#paint0_linear_3067_660)"/>
<path d="M28.4819 17.611C28.7927 17.611 29.227 17.4317 29.4461 17.2126L35.1518 11.5049C35.3709 11.2858 35.2972 11.1065 34.9864 11.1065H13.2894C12.9786 11.1065 12.9049 11.2858 13.124 11.5049L18.8297 17.2126C19.0488 17.4317 19.4831 17.611 19.7939 17.611H28.4819Z" fill="white"/>
<path d="M17.7977 19.6072C17.7977 19.2964 17.6184 18.8621 17.3993 18.643L11.6936 12.9353C11.4745 12.7162 11.2952 12.7899 11.2952 13.1007V34.7997C11.2952 35.1105 11.4745 35.1842 11.6936 34.9651L17.3993 29.2574C17.6184 29.0383 17.7977 28.604 17.7977 28.2932V19.6052V19.6072Z" fill="white"/>
<path d="M19.8935 30.1917C19.5827 30.1917 19.1484 30.371 18.9293 30.5902L13.2236 36.2978C13.0045 36.517 13.0782 36.6963 13.389 36.6963H34.8868C35.1976 36.6963 35.2713 36.517 35.0522 36.2978L29.3465 30.5902C29.1274 30.371 28.6931 30.1917 28.3823 30.1917H19.8935Z" fill="white"/>
<path d="M26.1012 23.9004C25.7904 23.9004 25.7167 24.0797 25.9359 24.3008L36.4845 34.8654C36.7037 35.0846 36.883 35.0109 36.883 34.7001V24.4642C36.883 24.1534 36.628 23.9004 36.3192 23.9004H26.1032H26.1012Z" fill="white"/>
</g>
</g>
<defs>
<linearGradient id="paint0_linear_3067_660" x1="9.32166" y1="38.6665" x2="38.855" y2="9.13316" gradientUnits="userSpaceOnUse">
<stop stop-color="#5E4D15"/>
<stop offset="0.06" stop-color="#7C6517"/>
<stop offset="0.14" stop-color="#C09E44"/>
<stop offset="0.18" stop-color="#DBB556"/>
<stop offset="0.21" stop-color="#D1AB4F"/>
<stop offset="0.27" stop-color="#B6933E"/>
<stop offset="0.31" stop-color="#A07F31"/>
<stop offset="0.41" stop-color="#73571B"/>
<stop offset="0.46" stop-color="#5E4411"/>
<stop offset="0.49" stop-color="#6D5014"/>
<stop offset="0.55" stop-color="#96721E"/>
<stop offset="0.59" stop-color="#B38A26"/>
<stop offset="0.62" stop-color="#C09934"/>
<stop offset="0.65" stop-color="#C6A03B"/>
<stop offset="0.66" stop-color="#C9A542"/>
<stop offset="0.68" stop-color="#D3B655"/>
<stop offset="0.71" stop-color="#E4D075"/>
<stop offset="0.73" stop-color="#F8F19D"/>
<stop offset="0.78" stop-color="#F9F2A1"/>
<stop offset="0.82" stop-color="#E6D47F"/>
<stop offset="0.89" stop-color="#C7A449"/>
<stop offset="0.93" stop-color="#BC9234"/>
</linearGradient>
<clipPath id="clip0_3067_660">
<rect width="48.0911" height="48" fill="white"/>
</clipPath>
<clipPath id="clip1_3067_660">
<rect width="48" height="48" fill="white" transform="translate(0.0910797)"/>
</clipPath>
</defs>
</svg>
