<svg width="29" height="29" viewBox="0 0 29 29" fill="none" xmlns="http://www.w3.org/2000/svg">
<g clip-path="url(#clip0_553_276)">
<path d="M14.5436 0H14.4611C6.47545 0 0.00195312 6.4735 0.00195312 14.4592V14.5417C0.00195312 22.5273 6.47545 29.0008 14.4611 29.0008H14.5436C22.5293 29.0008 29.0028 22.5273 29.0028 14.5417V14.4592C29.002 6.4735 22.5285 0 14.5436 0ZM21.8932 21.9729C20.4553 21.9729 19.0174 21.9729 17.5803 21.9738C17.5366 21.9738 17.5102 21.9606 17.4846 21.9243C16.2257 20.1291 14.9668 18.334 13.7071 16.5389C13.6939 16.5208 13.6807 16.5026 13.6634 16.4787C13.6023 16.5471 13.5438 16.6123 13.486 16.6783C12.2279 18.1088 10.9699 19.5401 9.71179 20.9706C9.43048 21.2907 9.14917 21.6116 8.8662 21.9309C8.84805 21.9515 8.8167 21.9705 8.79113 21.9705C8.37947 21.9729 7.96699 21.9721 7.55533 21.9721C7.54708 21.9721 7.53883 21.9705 7.52316 21.9688C7.53471 21.9531 7.54213 21.9399 7.55203 21.9284C8.92395 20.3667 10.295 18.8059 11.667 17.2451C12.1223 16.727 12.5777 16.2081 13.0339 15.6908C13.0686 15.6521 13.0669 15.6281 13.0381 15.5877C11.0466 12.7523 9.05677 9.91526 7.06695 7.07903C7.0554 7.06253 7.04633 7.04438 7.03643 7.02623H11.4855C11.4945 7.0419 11.502 7.05923 11.5127 7.07408C12.845 8.97315 14.1782 10.8722 15.5113 12.7713C15.5237 12.7886 15.5369 12.8059 15.5509 12.8257C15.5649 12.8109 15.574 12.8018 15.5814 12.7927C15.9403 12.3844 16.2991 11.976 16.658 11.5677C17.7783 10.2931 18.8986 9.01769 20.0181 7.7423C20.2276 7.50388 20.4347 7.26464 20.6434 7.0254H21.9658C20.5584 8.62666 19.151 10.2279 17.7445 11.8292C17.2239 12.4215 16.7034 13.0146 16.1812 13.6061C16.1432 13.6482 16.1432 13.6738 16.1754 13.72C18.0844 16.4374 19.9917 19.1557 21.8998 21.8739C21.9196 21.902 21.9394 21.9309 21.9683 21.9721H21.8932V21.9729Z" fill="white"/>
<path d="M10.8947 8.00217C10.8667 7.96257 10.837 7.94772 10.7892 7.94772C10.163 7.94937 9.53685 7.94855 8.91071 7.94855H8.83398C8.85543 7.98072 8.86946 8.00217 8.88513 8.02362C11.9606 12.3316 15.0369 16.6396 18.1124 20.9475C18.1404 20.9871 18.1701 21.002 18.2188 21.002C18.8449 21.0003 19.4711 21.0011 20.0972 21.0011H20.174C20.1558 20.9739 20.1459 20.9566 20.1344 20.9409C17.0548 16.628 13.9752 12.3159 10.8964 8.00217H10.8947Z" fill="white"/>
</g>
<defs>
<clipPath id="clip0_553_276">
<rect width="29" height="29" fill="white"/>
</clipPath>
</defs>
</svg>
