<svg width="29" height="29" viewBox="0 0 29 29" fill="none" xmlns="http://www.w3.org/2000/svg">
<g clip-path="url(#clip0_553_243)">
<path d="M14.5426 0H14.4601C6.47448 0 0.000976562 6.4735 0.000976562 14.4592V14.5417C0.000976562 22.5273 6.47448 29.0008 14.4601 29.0008H14.5426C22.5283 29.0008 29.0018 22.5273 29.0018 14.5417V14.4592C29.001 6.4735 22.5275 0 14.5426 0ZM10.1002 22.5446H6.66587V11.6741H10.1002V22.5446ZM9.84941 9.63972C9.46745 9.99445 8.98237 10.1718 8.39335 10.1718C7.80432 10.1718 7.29862 9.99445 6.91748 9.63972C6.53552 9.28498 6.34496 8.8461 6.34496 8.3239C6.34496 7.80169 6.53552 7.34301 6.91748 6.98828C7.29944 6.63354 7.79112 6.45618 8.39335 6.45618C8.99557 6.45618 9.46828 6.63354 9.84941 6.98828C10.2314 7.34301 10.4219 7.7885 10.4219 8.3239C10.4219 8.8593 10.2314 9.28498 9.84941 9.63972ZM22.6578 22.3533H19.3951V16.5381C19.3951 15.822 19.2095 15.2652 18.8382 14.8683C18.467 14.4715 17.9679 14.2735 17.3409 14.2735C16.7139 14.2735 16.2148 14.4724 15.8436 14.8683C15.4724 15.2652 15.2868 15.822 15.2868 16.5381V22.3533H12.005V11.6444H15.2868V13.065C15.6192 12.5914 16.0672 12.2177 16.6306 11.9422C17.1932 11.6675 17.8268 11.5297 18.5305 11.5297C19.7845 11.5297 20.786 11.9364 21.5342 12.7482C22.2825 13.5608 22.657 14.677 22.657 16.0975V22.3541L22.6578 22.3533Z" fill="white"/>
</g>
<defs>
<clipPath id="clip0_553_243">
<rect width="29" height="29" fill="white"/>
</clipPath>
</defs>
</svg>
