<svg width="48" height="48" viewBox="0 0 48 48" fill="none" xmlns="http://www.w3.org/2000/svg">
<g clip-path="url(#clip0_3924_3867)">
<path d="M23.998 0C10.7439 0 0 10.7459 0 24C0 37.2541 10.7439 48 23.998 48C37.2521 48 47.996 37.2541 47.996 24C47.996 10.7459 37.2501 0 23.998 0ZM23.998 44.7866C12.4652 44.7866 3.1158 35.4352 3.1158 23.9024C3.1158 12.3696 12.4652 3.01619 23.998 3.01619C35.5308 3.01619 44.8802 12.3676 44.8802 23.9004C44.8802 35.4332 35.5308 44.7846 23.998 44.7846V44.7866Z" fill="white"/>
<path d="M9.22986 9.13222C1.0758 17.2863 1.0758 30.5105 9.23185 38.6665C17.3879 46.8226 30.6101 46.8246 38.7662 38.6685C46.9222 30.5125 46.9202 17.2903 38.7642 9.13421C30.6081 0.978157 17.3859 0.976165 9.22986 9.13222Z" fill="url(#paint0_linear_3924_3867)"/>
<path d="M17.7066 19.6072C17.7066 19.2964 17.5273 18.8621 17.3082 18.643L11.6025 12.9353C11.3834 12.7162 11.2041 12.7899 11.2041 13.1007V34.7997C11.2041 35.1105 11.3834 35.1842 11.6025 34.9651L17.3082 29.2574C17.5273 29.0383 17.7066 28.604 17.7066 28.2932V19.6052V19.6072Z" fill="white"/>
<path d="M30.3013 19.6072C30.3013 19.2964 30.4806 18.8621 30.6998 18.643L36.4054 12.9353C36.6246 12.7162 36.8039 12.7899 36.8039 13.1007V34.7997C36.8039 35.1105 36.6246 35.1842 36.4054 34.9651L30.6998 29.2574C30.4806 29.0383 30.3013 28.604 30.3013 28.2932V19.6052V19.6072Z" fill="white"/>
<path d="M19.8025 30.1917C19.4917 30.1917 19.0574 30.371 18.8382 30.5902L13.1326 36.2978C12.9134 36.517 12.9871 36.6963 13.2979 36.6963H34.7957C35.1065 36.6963 35.1802 36.517 34.9611 36.2978L29.2554 30.5902C29.0363 30.371 28.602 30.1917 28.2912 30.1917H19.8025Z" fill="white"/>
</g>
<defs>
<linearGradient id="paint0_linear_3924_3867" x1="9.232" y1="38.665" x2="38.7625" y2="9.13455" gradientUnits="userSpaceOnUse">
<stop stop-color="#5E4D15"/>
<stop offset="0.06" stop-color="#7C6517"/>
<stop offset="0.14" stop-color="#C09E44"/>
<stop offset="0.18" stop-color="#DBB556"/>
<stop offset="0.21" stop-color="#D1AB4F"/>
<stop offset="0.27" stop-color="#B6933E"/>
<stop offset="0.31" stop-color="#A07F31"/>
<stop offset="0.41" stop-color="#73571B"/>
<stop offset="0.46" stop-color="#5E4411"/>
<stop offset="0.49" stop-color="#6D5014"/>
<stop offset="0.55" stop-color="#96721E"/>
<stop offset="0.59" stop-color="#B38A26"/>
<stop offset="0.62" stop-color="#C09934"/>
<stop offset="0.65" stop-color="#C6A03B"/>
<stop offset="0.66" stop-color="#C9A542"/>
<stop offset="0.68" stop-color="#D3B655"/>
<stop offset="0.71" stop-color="#E4D075"/>
<stop offset="0.73" stop-color="#F8F19D"/>
<stop offset="0.78" stop-color="#F9F2A1"/>
<stop offset="0.82" stop-color="#E6D47F"/>
<stop offset="0.89" stop-color="#C7A449"/>
<stop offset="0.93" stop-color="#BC9234"/>
</linearGradient>
<clipPath id="clip0_3924_3867">
<rect width="48" height="48" fill="white"/>
</clipPath>
</defs>
</svg>
