<svg width="157" height="50" viewBox="0 0 157 50" fill="none" xmlns="http://www.w3.org/2000/svg">
<path d="M95.2664 8.21045C91.6078 8.21045 87.6016 10.251 83.3758 14.2759C81.3819 16.1667 79.6257 18.2259 78.3452 19.8546C78.3452 19.8546 80.3941 22.2695 82.6441 24.8717C83.8698 23.2992 85.6076 21.165 87.6382 19.2368C91.3883 15.6425 93.8395 14.9124 95.2481 14.9124C100.517 14.9124 104.797 19.4428 104.797 25.0402C104.797 30.5815 100.517 35.1118 95.2481 35.168C94.992 35.168 94.6993 35.1305 94.3335 35.0556C95.8701 35.7857 97.5348 36.3099 99.0897 36.3099C108.748 36.3099 110.651 29.4769 110.761 28.9902C111.035 27.7359 111.2 26.4255 111.2 25.0776C111.181 15.7735 104.047 8.21045 95.2664 8.21045Z" fill="url(#paint0_linear_3014_5921)"/>
<path d="M61.5159 41.87C65.1745 41.87 69.1807 39.8295 73.4065 35.8046C75.4004 33.9138 77.1566 31.8546 78.4371 30.2259C78.4371 30.2259 76.3883 27.8109 74.1382 25.2088C72.9125 26.7813 71.1747 28.9154 69.1441 30.8436C65.394 34.4005 62.9245 35.1681 61.5342 35.1681C56.2657 35.1681 51.9851 30.6377 51.9851 25.0403C51.9851 19.499 56.2657 14.9687 61.5342 14.9125C61.7903 14.9125 62.083 14.9499 62.4488 15.0248C60.9122 14.2947 59.2475 13.7705 57.6926 13.7705C48.0338 13.7518 46.1313 20.5848 46.0216 21.0903C45.7472 22.3445 45.5825 23.655 45.5825 25.0028C45.5825 34.3069 52.7169 41.87 61.5159 41.87Z" fill="url(#paint1_linear_3014_5921)"/>
<path fill-rule="evenodd" clip-rule="evenodd" d="M68.8699 19.3866C67.8089 18.3382 62.6502 14.0512 57.7111 13.9015C48.8938 13.6768 46.3144 20.229 46.0766 21.0714C47.7779 13.733 54.0707 8.24789 61.5343 8.21045C67.626 8.21045 73.7908 14.3321 78.3458 19.8546L78.3641 19.8359C78.3641 19.8359 80.4129 22.2508 82.663 24.853C82.663 24.853 85.224 27.9419 87.9314 30.6563C88.9924 31.7047 94.1328 35.9355 99.072 36.0853C108.127 36.3474 110.633 29.4208 110.761 28.8966C109.097 36.2912 102.785 41.795 95.2853 41.8325C89.1936 41.8325 83.0288 35.7109 78.4555 30.1883C78.4555 30.207 78.4373 30.207 78.4373 30.2258C78.4373 30.2258 76.3884 27.8108 74.1384 25.2087C74.1566 25.2087 71.5956 22.1011 68.8699 19.3866Z" fill="#CBCBCB"/>
<defs>
<linearGradient id="paint0_linear_3014_5921" x1="86.7025" y1="10.8774" x2="109.78" y2="33.6133" gradientUnits="userSpaceOnUse">
<stop offset="0.21" stop-color="#DEDEDE"/>
<stop offset="0.6841" stop-color="#E6E6E6"/>
</linearGradient>
<linearGradient id="paint1_linear_3014_5921" x1="70.0855" y1="39.2068" x2="47.0085" y2="16.471" gradientUnits="userSpaceOnUse">
<stop offset="0.21" stop-color="#D2D2D2"/>
<stop offset="0.8929" stop-color="#5E5E5E"/>
</linearGradient>
</defs>
</svg>
