<svg width="25" height="12" viewBox="0 0 25 12" fill="none" xmlns="http://www.w3.org/2000/svg">
<path d="M18.339 0C17.0008 0 15.5355 0.727475 13.9899 2.1624C13.2606 2.83649 12.6183 3.57063 12.1499 4.15128C12.1499 4.15128 12.8993 5.01224 13.7223 5.93993C14.1706 5.37931 14.8062 4.61847 15.5489 3.93104C16.9205 2.64961 17.8171 2.38932 18.3323 2.38932C20.2592 2.38932 21.8249 4.00445 21.8249 6C21.8249 7.97553 20.2592 9.59066 18.3323 9.61068C18.2386 9.61068 18.1315 9.59733 17.9977 9.57063C18.5598 9.83092 19.1686 10.0178 19.7373 10.0178C23.2701 10.0178 23.9659 7.58176 24.0061 7.40823C24.1065 6.96107 24.1667 6.49388 24.1667 6.01335C24.16 2.69633 21.5506 0 18.339 0Z" fill="url(#paint0_linear_3020_6598)"/>
<path d="M5.99438 12C7.33255 12 8.79784 11.2725 10.3434 9.83759C11.0727 9.1635 11.715 8.42936 12.1834 7.84871C12.1834 7.84871 11.434 6.98775 10.6111 6.06006C10.1628 6.62068 9.52714 7.38152 8.78446 8.06896C7.41284 9.33703 6.50957 9.61067 6.00107 9.61067C4.07411 9.61067 2.50846 7.99554 2.50846 5.99999C2.50846 4.02446 4.07411 2.40933 6.00107 2.38931C6.09474 2.38931 6.2018 2.40266 6.33561 2.42936C5.77358 2.16907 5.16472 1.98219 4.596 1.98219C1.06324 1.97552 0.367397 4.41156 0.327252 4.59176C0.226889 5.03892 0.166672 5.50611 0.166672 5.98664C0.166672 9.30366 2.77609 12 5.99438 12Z" fill="url(#paint1_linear_3020_6598)"/>
<path fill-rule="evenodd" clip-rule="evenodd" d="M8.68408 3.98443C8.29601 3.61068 6.4092 2.08231 4.60268 2.02892C1.3777 1.94883 0.434294 4.28476 0.347313 4.58509C0.96956 1.96885 3.2712 0.0133482 6.00106 0C8.2291 0 10.4839 2.18243 12.1499 4.15128L12.1566 4.14461C12.1566 4.14461 12.906 5.00556 13.729 5.93326C13.729 5.93326 14.6657 7.03448 15.6559 8.00223C16.044 8.37597 17.9241 9.88432 19.7306 9.93771C23.0426 10.0311 23.9592 7.56174 24.0061 7.37486C23.3972 10.0111 21.0889 11.9733 18.3456 11.9867C16.1176 11.9867 13.8628 9.80423 12.1901 7.83537C12.1901 7.84205 12.1834 7.84205 12.1834 7.84872C12.1834 7.84872 11.434 6.98777 10.611 6.06007C10.6177 6.06007 9.68101 4.95217 8.68408 3.98443Z" fill="#29ABE2"/>
<defs>
<linearGradient id="paint0_linear_3020_6598" x1="15.2067" y1="0.950817" x2="23.4344" y2="9.26701" gradientUnits="userSpaceOnUse">
<stop offset="0.21" stop-color="#F15A24"/>
<stop offset="0.6841" stop-color="#FBB03B"/>
</linearGradient>
<linearGradient id="paint1_linear_3020_6598" x1="9.12877" y1="11.0505" x2="0.901103" y2="2.73434" gradientUnits="userSpaceOnUse">
<stop offset="0.21" stop-color="#ED1E79"/>
<stop offset="0.8929" stop-color="#522785"/>
</linearGradient>
</defs>
</svg>
