<svg width="157" height="48" viewBox="0 0 157 48" fill="none" xmlns="http://www.w3.org/2000/svg">
<path d="M106.063 4V23.459L105.818 23.664L105.572 23.8691L105.336 24.0844L105.111 24.2997L104.896 24.515L104.681 24.7405L104.476 24.9661L104.271 25.1916V4H82.7352V21.7161H80.9533V4H59.4172V21.7468H57.6353V4H36.0992V24.2279L30.6 42.5694H35.4336L37.8606 34.4495H38.557L42.5713 42.5694H48.4085L44.517 34.4495H53.3445L50.897 42.5694H56.1709L58.5877 34.47H59.7551V34.4495H61.4141H61.5473H71.5114L69.1765 42.5488H74.5017L76.7649 34.4495H79.1612L79.2226 42.5488H83.6875L88.8181 34.4495H92.177L90.4361 42.5488H95.6793L97.3895 34.4495H100.421L100.4 34.9108L100.411 35.3824L100.432 35.8335L100.472 36.2846L100.503 36.4999L100.534 36.7152L100.575 36.9305L100.616 37.1458L100.667 37.3611L100.718 37.5662L100.779 37.7712L100.841 37.9763L100.913 38.1813L100.984 38.3761L101.066 38.5709L101.148 38.7555L101.24 38.9502L101.333 39.1348L101.435 39.3091L101.538 39.4936L101.65 39.6679L101.773 39.832L101.896 40.0062L102.029 40.16L102.162 40.3241L102.295 40.4779L102.449 40.6316L102.603 40.7752L102.797 40.9392L102.992 41.1033L103.197 41.257L103.412 41.4006L103.627 41.5441L103.842 41.6774L104.067 41.7901L104.303 41.9131L104.528 42.0156L104.763 42.1181L104.999 42.2104L105.245 42.3027L105.49 42.3848L105.736 42.4566L105.982 42.5283L106.228 42.5898L106.719 42.7026L107.221 42.7846L107.713 42.8564L108.204 42.9179L108.686 42.9589L109.157 42.9795L109.617 43H110.058L110.652 42.9903L111.246 42.9805L111.85 42.9498L112.454 42.919L113.058 42.8677L113.662 42.8164L114.267 42.7549L114.871 42.6831L115.485 42.601L116.1 42.5087L116.714 42.4062L117.329 42.3037L117.943 42.191L118.558 42.068L119.172 41.9449L119.797 41.8014L121.619 34.4505H127.6V4.00095L106.063 4ZM38.0962 33.6908L38.1269 33.5781L38.1986 33.6908H38.0962ZM56.857 22.7823L56.5498 23.8178L53.6824 33.3525L53.5698 33.6908H44.1484L43.4213 32.1325L53.5698 21.7468H47.0465L39.11 30.3076L41.6804 21.7468H36.8673V4.76893H56.857L56.857 22.7823ZM62.4177 30.8407L62.2641 30.8504L62.1207 30.8601L61.9671 30.8699H61.8033H61.5882H61.4039L61.2298 30.8796H61.0659L59.7859 30.8699L60.3798 28.6759L60.6563 27.5891L61.3322 25.0363H61.5473H61.7726L61.9876 25.0265H62.1924H63.1858L63.79 25.0363L64.3429 25.0568L64.5887 25.0666L64.8243 25.0871L65.0496 25.1179L65.2544 25.1486L65.4387 25.1794L65.6128 25.2307L65.7766 25.282L65.92 25.3436L66.0429 25.4051L66.1556 25.4872L66.258 25.5693L66.3399 25.6718L66.391 25.7538L66.432 25.8359L66.4729 25.9282L66.5036 26.0307L66.5241 26.1435L66.5349 26.2562V26.3792V26.5125L66.5241 26.656L66.5144 26.7995L66.4837 26.9636L66.453 27.1276L66.3608 27.4762L66.2481 27.8658L66.1355 28.1939L66.0126 28.5117L65.8795 28.809L65.7361 29.0858L65.6643 29.2089L65.5926 29.3319L65.5106 29.4549L65.4184 29.5676L65.3262 29.6804L65.234 29.7829L65.1315 29.8854L65.0291 29.9777L64.9164 30.0598L64.8037 30.152L64.6808 30.2238L64.5477 30.3059L64.4146 30.3776L64.2712 30.4391L64.1278 30.5007L63.9742 30.552L63.8104 30.6135L63.6363 30.6545L63.452 30.6955L63.2676 30.7365L63.0628 30.7672L62.858 30.798L62.643 30.8185L62.4177 30.8391L62.4177 30.8407ZM76.9799 33.6908L79.0793 26.2066L79.1612 33.6908H76.9799ZM80.175 21.7161H75.1776L71.7367 33.6908H66.432L66.6778 33.5883L66.9236 33.4858L67.1591 33.3833L67.3947 33.2706L67.62 33.1579L67.835 33.0246L68.0501 32.9016L68.2549 32.7683L68.4597 32.6247L68.6543 32.4812L68.8386 32.3377L69.0229 32.1736L69.197 32.0198L69.3609 31.8456L69.5247 31.6815L69.6783 31.497L69.8319 31.3227L69.9753 31.1279L70.1084 30.9433L70.2416 30.7383L70.3645 30.5333L70.4771 30.3282L70.5898 30.1129L70.6923 29.8874L70.7947 29.6618L70.8869 29.4363L70.9688 29.2004L71.0508 28.9544L71.1122 28.7083L71.1839 28.4623L71.2351 28.1957L71.2862 27.9394L71.358 27.5293L71.4194 27.1397L71.4603 26.7706L71.491 26.4221L71.5018 26.0735L71.491 25.7557L71.4814 25.4378L71.4404 25.1405L71.3995 24.8637L71.3278 24.5869L71.256 24.3306L71.1536 24.0845L71.0409 23.8487L70.918 23.6129L70.7746 23.3976L70.6108 23.1926L70.4776 23.049L70.3445 22.9055L70.2012 22.7825L70.0476 22.6697L69.8837 22.557L69.7198 22.4545L69.5458 22.3622L69.3717 22.2801L69.1873 22.1981L69.003 22.1365L68.8084 22.075L68.6138 22.0135L68.409 21.9621L68.2042 21.9212L67.9994 21.8802L67.7844 21.8494L67.344 21.7879L66.9037 21.7571L66.4531 21.7264L65.9922 21.7166H65.0706H64.1592H63.8724H63.3604H62.7255H62.0189H61.3327H60.749H60.3394H60.1858V4.76948H80.1755L80.175 21.7161ZM92.3204 33.6908H89.3199L93.8668 26.5142L92.3204 33.6908ZM103.493 22.0544L103.482 26.2066L103.226 26.5655L102.991 26.9345L102.755 27.3036L102.54 27.6727L102.335 28.0418L102.13 28.4211L101.956 28.7902L101.782 29.1593L101.618 29.5181L101.475 29.8872L101.332 30.246L101.209 30.5946L101.096 30.9432L100.994 31.2815L100.901 31.6096L100.819 31.9377L100.768 32.153L100.717 32.3785L100.666 32.5938L100.625 32.8194L100.584 33.0347L100.553 33.25L100.523 33.4653L100.502 33.6908H97.5631L100.072 21.7468L91.6133 21.7371L84.0455 33.6914H83.4925V4.76946H103.492L103.493 22.0544ZM115.024 38.5812L114.604 38.653L114.174 38.7145L113.744 38.776L113.324 38.8273L112.904 38.8683L112.484 38.8991L112.075 38.9196H111.665H111.399L111.132 38.9099L110.876 38.8894L110.62 38.8586L110.375 38.8176L110.139 38.7766L109.904 38.7253L109.678 38.6638L109.463 38.592L109.248 38.5203L109.043 38.428L108.849 38.3357L108.654 38.223L108.47 38.1102L108.296 37.9872L108.132 37.8642L107.968 37.7207L107.825 37.5669L107.681 37.4131L107.548 37.2388L107.425 37.0645L107.313 36.8697L107.21 36.6749L107.108 36.4699L107.026 36.2546L106.954 36.0188L106.893 35.783L106.831 35.5369L106.79 35.2806L106.76 35.014L106.739 34.7372L106.728 34.4502H116.047L115.024 38.5812ZM126.842 33.6908H121.803L122.633 30.3486H112.535L111.706 33.6908H106.821V33.0039L106.883 32.7169L106.934 32.4298L106.995 32.1222L107.057 31.8147L107.149 31.4763L107.241 31.138L107.343 30.7997L107.456 30.4716L107.579 30.1435L107.712 29.8154L107.855 29.4976L107.999 29.1798L108.163 28.862L108.327 28.5647L108.501 28.2571L108.695 27.97L108.89 27.683L109.084 27.4061L109.299 27.1396L109.525 26.8833L109.76 26.6372L109.996 26.4117L110.252 26.1861L110.508 25.9708L110.774 25.776L111.061 25.5915L111.348 25.4274L111.645 25.2737L111.952 25.1301L112.269 25.0071L112.597 24.9046L112.935 24.8225L113.283 24.7508L113.641 24.6994L114.01 24.6687L114.389 24.6589L114.686 24.6687L114.983 24.6892L115.28 24.7302L115.567 24.7917L115.71 24.8327L115.843 24.8737L115.976 24.9147L116.099 24.9762L116.222 25.0275L116.345 25.0993L116.458 25.171L116.57 25.2428L116.673 25.3351L116.775 25.4273L116.867 25.5196L116.96 25.6324L117.042 25.7349L117.113 25.8579L117.175 25.9912L117.236 26.1245L117.287 26.268L117.328 26.4218L117.359 26.5756L117.39 26.7499L117.4 26.9241V27.1087V27.3035L117.38 27.5085H123.402L123.494 27.0882L123.576 26.6063L123.617 26.35L123.637 26.0732L123.658 25.7964V25.5093L123.648 25.212L123.617 24.9044L123.587 24.7609L123.566 24.6071L123.525 24.4533L123.484 24.2995L123.433 24.1355L123.382 23.9817L123.32 23.8279L123.249 23.6741L123.177 23.5204L123.085 23.3666L122.993 23.2128L122.89 23.059L122.767 22.895L122.634 22.7412L122.501 22.5874L122.358 22.4439L122.204 22.3003L122.04 22.1671L121.876 22.044L121.702 21.921L121.518 21.798L121.334 21.6955L121.139 21.593L120.934 21.4904L120.729 21.3981L120.514 21.3058L120.289 21.2238L120.064 21.1417L119.838 21.0699L119.593 21.0084L119.357 20.9469L119.101 20.8854L118.845 20.834L118.589 20.7827L118.323 20.7417L118.046 20.711L117.483 20.6494L116.91 20.5981L116.305 20.5776L115.691 20.5679L115.23 20.5776L114.749 20.5873L114.247 20.6181L113.725 20.6591L113.182 20.7206L112.629 20.7923L112.066 20.8846L111.492 21.0076L111.206 21.0692L110.909 21.1409L110.622 21.223L110.325 21.3051L110.028 21.3974L109.731 21.4999L109.434 21.6024L109.147 21.7151L108.85 21.8381L108.553 21.9714L108.266 22.1047L107.969 22.2482L107.683 22.402L107.396 22.5661L107.109 22.7301L106.823 22.9146V4.76797H126.843V33.6899L126.842 33.6908Z" fill="#747474"/>
</svg>
