<svg width="157" height="51" viewBox="0 0 157 51" fill="none" xmlns="http://www.w3.org/2000/svg">
<path d="M37.4003 1.58252H119.758V49.5825H37.4003V1.58252Z" fill="#1A1818"/>
<path d="M37.4 1.58252H119.758V49.5825H37.4V1.58252Z" stroke="white" stroke-width="1.225" stroke-miterlimit="10"/>
<path d="M78.1333 7.04736L83.8473 21.291L68.6035 22.6568L78.1333 7.04736Z" fill="#C4C4C4"/>
<path d="M83.8178 21.2878L87.6787 22.647L78.1365 7.05029L83.7693 21.1017L83.8178 21.2878ZM46.2807 38.8779C46.2807 39.4724 46.0218 40.0268 45.3449 40.0268V40.3717C46.8182 40.3717 48.2919 40.2946 49.7864 40.2946C51.2604 40.2946 54.1727 40.2946 54.85 40.4676L55.3482 38.1683L55.0284 38.0723C54.511 39.1264 53.8946 39.6431 52.38 39.6431H47.8723C47.8723 38.149 47.7533 35.9279 47.7533 34.0893C47.7533 32.3275 47.8723 29.4163 47.8723 28.4975C47.8723 27.9034 48.132 27.3478 48.8093 27.3478V27.0034C48.3115 27.0034 47.7132 27.0804 47.037 27.0804C46.4402 27.0804 45.8427 27.0034 45.1257 27.0034V27.3478C46.2014 27.5019 46.2815 27.656 46.2815 34.0901L46.2807 38.8779ZM57.1004 34.6607C57.1004 31.6775 58.44 29.2988 61.6082 29.2988C64.7763 29.2988 66.1186 31.6775 66.1186 34.6607C66.1186 37.6439 64.7805 40.0222 61.6082 40.0222C58.4358 40.0222 57.1004 37.6439 57.1004 34.6607ZM55.4896 34.6607C55.4896 38.0014 58.0837 40.545 61.6089 40.545C65.1342 40.545 67.7287 38.0022 67.7287 34.6607C67.7287 31.3192 65.1361 28.7772 61.6082 28.7772C58.0802 28.7772 55.4888 31.32 55.4888 34.6607M71.2127 34.6607C71.2127 31.6775 72.5512 29.2988 75.7205 29.2988C78.8897 29.2988 80.2282 31.6775 80.2282 34.6607C80.2282 37.6439 78.8897 40.0222 75.7205 40.0222C72.5512 40.0222 71.2127 37.6439 71.2127 34.6607ZM69.6019 34.6607C69.6019 38.0014 72.196 40.545 75.7212 40.545C79.2465 40.545 81.8406 38.0022 81.8406 34.6607C81.8406 31.3192 79.2473 28.7772 75.7212 28.7772C72.1952 28.7772 69.6019 31.32 69.6019 34.6607ZM85.2218 28.7772H84.9174L84.272 38.1644C84.1707 39.583 84.0355 39.8596 83.1366 40.0553V40.3489C83.6279 40.3489 84.1021 40.2854 84.5941 40.2854C85.1031 40.2854 85.5959 40.3489 86.0697 40.3489V40.0553C85.4918 39.9914 85.0187 39.5996 85.0187 38.4588C85.0187 38.035 85.0187 37.2844 85.0518 36.8606L85.3739 31.7434H85.4595L90.3579 39.9914L94.5612 31.7592H94.6294L94.9677 37.5464C94.9858 37.8073 95.0193 38.3282 95.0193 38.9481C95.0193 39.5341 94.8833 40.0076 94.1717 40.0553V40.3489C94.5955 40.3489 95.1052 40.2854 95.5972 40.2854C96.1906 40.2854 96.6991 40.3489 97.1904 40.3489V40.0553C96.4452 39.9421 96.3428 39.7949 96.2761 38.4757L95.7822 28.7772H95.4936L90.7466 38.1166L85.2218 28.7772ZM101.914 28.9725C101.405 28.9725 100.896 29.0376 100.32 29.0376C99.811 29.0376 99.3024 28.9725 98.7789 28.9725V29.2661C99.4408 29.2661 99.6265 29.7384 99.6265 30.2435L99.7105 39.0779C99.7105 39.5834 99.4408 40.0561 98.9642 40.0561V40.3505C99.3032 40.3505 99.8118 40.285 100.321 40.285C100.899 40.285 101.406 40.3505 101.761 40.3505V40.0561C101.253 40.0561 100.981 39.5834 100.981 39.0779L101.067 30.2435C101.067 29.7384 101.253 29.2661 101.915 29.2661L101.914 28.9725ZM110.503 30.8303L110.435 29.0049C109.554 29.0372 108.705 28.7775 107.824 28.7775C105.604 28.7775 103.671 29.7388 103.671 32.1013C103.671 36.3066 109.655 34.497 109.655 37.9541C109.655 39.388 108.486 40.0226 107.147 40.0226C106.01 40.0226 104.654 39.5345 104.264 38.3767H103.96L104.028 40.0719C105.047 40.3716 106.101 40.5307 107.163 40.545C109.248 40.545 110.841 39.4366 110.841 37.3176C110.841 33.422 104.858 34.9712 104.858 31.4664C104.858 29.9831 106.18 29.2981 107.555 29.2981C108.622 29.2981 109.843 29.7712 110.198 30.8307L110.503 30.8303Z" fill="white"/>
<path d="M68.5817 22.6204L83.7931 21.2773L87.6528 22.6351C87.6528 22.6351 74.0395 23.7443 73.64 23.8001C73.2404 23.856 68.5817 22.6204 68.5817 22.6204Z" fill="#4C4D4F"/>
</svg>
