<svg width="156" height="28" viewBox="0 0 156 28" fill="none" xmlns="http://www.w3.org/2000/svg">
<path d="M153.016 4.21793C152.562 3.63008 151.4 2.4391 149.33 2.4391C148.848 2.4391 147.699 2.50634 146.607 3.28674C145.999 3.71158 144.722 4.86283 144.722 6.87701C144.722 7.46486 144.836 8.02723 145.061 8.56007C145.756 10.2319 147.459 11.3139 149.33 11.3139C149.613 11.3139 150.181 11.2863 150.875 11.0531C152.717 10.4235 153.895 8.75263 153.909 6.88924C153.909 6.4104 153.838 5.30194 153.016 4.21793ZM153.157 10.0394C151.825 11.5737 150.025 11.751 149.315 11.751C148.195 11.751 147.103 11.3954 146.225 10.7525C145.573 10.2584 144.268 9.02566 144.268 6.86274C144.268 5.24692 145.004 4.21793 145.417 3.73909C145.941 3.15022 147.19 2 149.33 2C150.933 2 152.406 2.68463 153.384 3.95814C154.049 4.82208 154.377 5.83477 154.363 6.90248C154.363 7.49135 154.236 8.82088 153.157 10.0394ZM149.202 6.13532C149.825 6.13532 150.11 6.13532 150.293 5.80828C150.322 5.76753 150.393 5.62897 150.393 5.45068C150.393 5.40993 150.379 5.25915 150.308 5.13587C150.181 4.93109 149.953 4.83533 149.486 4.83533H148.507V6.13532H149.202ZM150.293 9.94361C150.038 9.40975 150.011 8.88915 149.911 8.31352C149.825 7.87544 149.798 7.6564 149.613 7.50663C149.372 7.31408 149.061 7.34158 148.777 7.32732H148.507V9.95685H146.948V3.6851H149.273C149.457 3.6851 149.655 3.6851 149.84 3.69837C150.861 3.73913 151.271 3.95816 151.583 4.35652C151.825 4.65808 151.939 4.98512 151.939 5.36921C151.939 6.38292 151.116 6.68448 150.818 6.83425C150.889 6.87703 150.96 6.91677 151.031 6.97077C151.442 7.27234 151.5 7.83471 151.513 7.94372C151.555 8.12303 151.669 9.20398 152.08 9.95688L150.293 9.94361ZM130.983 14.9431C131.748 14.9431 132.485 14.9706 133.22 14.9706C133.603 14.9706 136.429 15.0562 136.429 12.6386C136.429 11.8704 136.105 10.6193 134.133 10.3646C133.662 10.279 132.426 10.279 130.983 10.2495V14.9431ZM135.516 6.52573L136.929 6.61029C137.636 6.69587 140.139 6.9526 141.375 9.14099C141.611 9.56787 142.051 10.5347 142.051 11.8429C142.051 12.3828 141.993 13.7766 141.02 14.9431C140.256 15.8814 139.314 16.2787 138.165 16.7056C138.283 16.7341 138.667 16.9328 138.959 17.1325C139.755 17.7295 140.197 18.7819 140.58 19.6632L143.112 26.4871H137.283L135.723 21.711C134.722 19.0662 133.985 18.7249 131.131 18.7819V26.4586H125.537V6.52573H135.516ZM107.494 20.2881C108.258 21.9101 109.643 23.0185 111.497 23.0185C113.646 23.0185 114.795 21.4547 115.147 20.9137C115.677 20.0895 116.178 18.8669 116.178 16.649C116.178 14.2313 115.707 12.9232 115.088 11.9859C114.971 11.8137 114.617 11.3318 114.177 10.905C113.763 10.5922 112.851 9.88106 111.408 9.88106C111.056 9.88106 110.349 9.9381 109.554 10.3354C106.876 11.7016 106.787 15.6251 106.757 16.0519C106.757 16.4778 106.757 18.6672 107.494 20.2881ZM102.902 9.71091C103.344 9.1414 104.255 8.09 105.934 7.20873C106.905 6.7248 108.671 5.95662 111.379 5.95662C115.677 5.98417 118.238 7.7487 119.415 9.02831C120.446 10.1368 121.946 12.6389 121.946 16.4207C121.946 17.4732 121.83 21.0278 119.621 23.6166C117.678 25.8905 114.5 27 111.497 27C110.379 27 106.876 26.8288 104.255 24.5253C101.901 22.4785 100.9 19.2642 100.928 16.2791C100.928 13.9196 101.518 11.5305 102.902 9.71091ZM91.9325 6.52573V22.3936H100.292V26.4586H86.3091V6.52573H91.9325ZM70.2674 18.6682H75.5659L73.0052 10.6482L70.2674 18.6682ZM76.5088 6.46908L84.3374 26.46H78.4219L76.861 22.3644H69.0008L67.4125 26.4305H61.8777L69.7084 6.46908H76.5088ZM64.1554 6.52573V10.5062H59.0921V26.4311H53.4993V10.5347H48.3189V6.52573H64.1554ZM46.8647 6.52573V10.3646H37.7979V14.3175H46.3057V18.1849H37.7979V22.6198H47.1884V26.4586H32.2642V6.52573H46.8647ZM9.53737 6.46892C10.2155 8.45966 10.8915 10.4494 11.6277 12.4401C12.1571 13.8909 12.7456 15.3396 13.217 16.7904C13.5703 17.9009 13.8656 19.0094 14.1588 20.1188C14.4836 19.0094 14.8064 17.8714 15.1903 16.7619C15.5436 15.7665 15.9253 14.8007 16.2776 13.8043C16.8081 12.3545 17.25 10.9038 17.7794 9.45401C18.1317 8.45966 18.5155 7.46327 18.8689 6.49642H27.3471V26.4874H21.9305L22.0771 10.3638C21.8134 11.3031 21.5181 12.27 21.1943 13.1798C20.8104 14.2312 20.4002 15.2836 20.0163 16.337C19.547 17.6442 19.1346 19.0094 18.6632 20.346C18.2508 21.5401 17.8089 22.7066 17.367 23.9006C17.0739 24.7819 16.7796 25.6632 16.4558 26.5454H11.5096L6.06444 10.9038C6.1224 12.0132 6.21103 13.1227 6.24056 14.2312V16.5347C6.24056 19.8621 6.27009 23.16 6.30063 26.4599H1V6.46892H9.53737Z" fill="#757575"/>
</svg>
