<svg width="157" height="38" viewBox="0 0 157 38" fill="none" xmlns="http://www.w3.org/2000/svg">
<path d="M9.08454 10.2017C8.8149 10.2017 8.55631 10.3118 8.36565 10.5079C8.17498 10.704 8.06787 10.97 8.06787 11.2474V23.891C8.06845 25.4972 8.68555 27.0382 9.78496 28.1788C10.8844 29.3195 12.3772 29.9676 13.9387 29.9821H15.371C15.0014 29.9657 14.652 29.8035 14.3955 29.5291C14.139 29.2548 13.9951 28.8894 13.9936 28.5088V11.2474C13.9936 10.9702 13.8866 10.7044 13.6962 10.5084C13.5058 10.3123 13.2475 10.202 12.9781 10.2017H9.08454Z" fill="url(#paint0_linear_3014_5918)"/>
<path d="M8.06787 23.8896V29.0993C8.06739 30.0153 8.24243 30.9225 8.58298 31.7689C8.92354 32.6152 9.42292 33.3843 10.0526 34.0321C10.6823 34.6799 11.4299 35.1937 12.2528 35.5441C13.0756 35.8945 13.9575 36.0747 14.8481 36.0744H28.5743C30.0596 35.9511 31.4451 35.2568 32.455 34.1298C33.4648 33.0029 34.0248 31.5259 34.0234 29.9933V28.4962C34.0205 28.8885 33.8668 29.2638 33.596 29.54C33.3251 29.8162 32.959 29.9711 32.5776 29.9707L15.3747 29.9808H14.0009C12.4293 29.9814 10.9217 29.3402 9.80963 28.198C8.69754 27.0558 8.07193 25.5061 8.07031 23.8896H8.06787Z" fill="url(#paint1_linear_3014_5918)"/>
<path d="M15.4017 1.90626H6.84048C6.34068 1.90626 5.97376 2.3288 5.94694 2.84162C5.88914 4.2157 5.66138 5.57662 5.26916 6.89149C5.11678 7.44192 5.45811 8.01994 6.01398 8.01994H32.568C36.5567 8.06131 39.9456 11.3764 39.9456 15.5642V8.8901C39.9456 7.4869 39.5348 6.11622 38.7666 4.95663C37.9984 3.79704 36.9084 2.9023 35.6387 2.38898L35.5863 2.36892L35.5656 2.36015C34.7955 2.05877 33.9783 1.90494 33.1544 1.90626H15.4017Z" fill="url(#paint2_linear_3014_5918)"/>
<path d="M34.0124 9.49697H34.021V28.475V29.972C34.0221 31.5046 33.4621 32.9813 32.4523 34.1083C31.4425 35.2352 30.0571 35.9295 28.5719 36.0531C28.4147 36.0656 28.2574 36.0732 28.0977 36.0732H33.164C34.0546 36.074 34.9366 35.8942 35.7596 35.544C36.5826 35.1938 37.3303 34.6802 37.9601 34.0324C38.5899 33.3847 39.0893 32.6156 39.4297 31.7691C39.7702 30.9226 39.945 30.0154 39.9442 29.0994V15.6132C39.9445 13.604 39.1703 11.6767 37.7912 10.2538C36.4121 8.83084 34.5408 8.02844 32.5874 8.02246C32.9659 8.02511 33.328 8.18163 33.5948 8.45786C33.8615 8.7341 34.0112 9.10764 34.0112 9.49697" fill="url(#paint3_linear_3014_5918)"/>
<path d="M95.1965 19.415V19.3636C95.1965 14.2643 98.9901 9.94482 104.328 9.94482C107.316 9.94482 109.191 10.7736 110.96 12.2694C111.005 12.3085 111.034 12.3647 111.04 12.4256C111.045 12.4865 111.027 12.5471 110.989 12.5942L109.307 14.6617C109.268 14.7077 109.214 14.7363 109.156 14.7414C109.097 14.7466 109.039 14.7279 108.993 14.6893C107.685 13.5772 106.364 12.8851 104.206 12.8851C100.943 12.8851 98.4635 15.8253 98.4635 19.3109V19.3636C98.4635 23.11 100.867 25.8672 104.484 25.8672C105.943 25.8804 107.371 25.4437 108.586 24.6134C108.64 24.574 108.684 24.5219 108.714 24.4615C108.744 24.401 108.76 24.334 108.759 24.2661V19.5103C108.759 19.4497 108.783 19.3915 108.824 19.3485C108.866 19.3055 108.922 19.2812 108.981 19.2809H111.541C111.572 19.2791 111.602 19.2839 111.631 19.2949C111.66 19.3059 111.686 19.3229 111.708 19.3448C111.73 19.3667 111.747 19.393 111.759 19.4222C111.77 19.4513 111.776 19.4826 111.775 19.5141V25.6064C111.775 25.7154 111.751 25.8229 111.705 25.9211C111.659 26.0192 111.592 26.1054 111.509 26.1732C109.5 27.8619 106.984 28.7841 104.389 28.7836C98.8438 28.7824 95.1965 24.7287 95.1965 19.415Z" fill="#222526"/>
<path d="M121.649 21.1067L114.957 10.6122C114.934 10.5777 114.922 10.5377 114.92 10.4964C114.918 10.4551 114.927 10.414 114.946 10.3775C114.965 10.3411 114.993 10.3107 115.028 10.2895C115.062 10.2683 115.102 10.2572 115.142 10.2573H118.179C118.254 10.2575 118.328 10.2772 118.394 10.3147C118.46 10.3522 118.515 10.4062 118.555 10.4717L123.169 17.9947C123.189 18.0274 123.217 18.0542 123.25 18.0729C123.283 18.0915 123.32 18.1013 123.357 18.1013C123.395 18.1013 123.431 18.0915 123.464 18.0729C123.497 18.0542 123.525 18.0274 123.545 17.9947L128.233 10.4717C128.273 10.4068 128.328 10.3533 128.394 10.3163C128.459 10.2792 128.533 10.2598 128.607 10.2598H131.523C131.564 10.2597 131.603 10.2709 131.638 10.2922C131.673 10.3134 131.701 10.3439 131.72 10.3805C131.739 10.417 131.749 10.4582 131.747 10.4997C131.745 10.5411 131.732 10.5813 131.71 10.6159L125.022 21.0302C124.944 21.1496 124.902 21.29 124.9 21.434V28.2398C124.9 28.3003 124.877 28.3583 124.835 28.4011C124.794 28.4439 124.737 28.468 124.679 28.468H121.986C121.956 28.4681 121.927 28.4624 121.9 28.451C121.873 28.4396 121.849 28.4228 121.828 28.4016C121.807 28.3804 121.791 28.3552 121.78 28.3274C121.768 28.2996 121.763 28.2698 121.763 28.2398V21.5067C121.762 21.3643 121.722 21.225 121.647 21.1055" fill="#222526"/>
<path d="M136.308 10.2573H138.706C138.788 10.2572 138.868 10.2764 138.942 10.3133C139.015 10.3503 139.079 10.404 139.129 10.4705L148.136 22.427C148.159 22.457 148.191 22.479 148.226 22.4898C148.262 22.5006 148.3 22.4997 148.335 22.4873C148.37 22.4749 148.4 22.4515 148.421 22.4205C148.443 22.3894 148.455 22.3523 148.454 22.3142V10.4868C148.454 10.4259 148.478 10.3676 148.52 10.3245C148.562 10.2815 148.618 10.2573 148.678 10.2573H151.292C151.352 10.2573 151.408 10.2815 151.45 10.3245C151.492 10.3676 151.515 10.4259 151.515 10.4868V28.2398C151.515 28.2698 151.51 28.2996 151.498 28.3274C151.487 28.3552 151.471 28.3804 151.45 28.4016C151.429 28.4228 151.405 28.4396 151.378 28.451C151.351 28.4623 151.322 28.4681 151.292 28.468H149.172C149.091 28.4682 149.01 28.4493 148.937 28.4125C148.864 28.3758 148.8 28.3223 148.749 28.2561L139.465 15.9347C139.443 15.9041 139.411 15.8817 139.376 15.8706C139.34 15.8595 139.301 15.8602 139.266 15.8727C139.231 15.8852 139.2 15.9088 139.179 15.9402C139.157 15.9715 139.146 16.0091 139.146 16.0475V28.2398C139.146 28.3003 139.123 28.3583 139.081 28.4011C139.039 28.4439 138.983 28.468 138.924 28.468H136.308C136.279 28.4681 136.25 28.4623 136.223 28.451C136.196 28.4396 136.171 28.4228 136.15 28.4016C136.13 28.3804 136.113 28.3552 136.102 28.3274C136.091 28.2996 136.085 28.2698 136.085 28.2398V10.4868C136.085 10.4259 136.109 10.3676 136.15 10.3245C136.192 10.2815 136.249 10.2573 136.308 10.2573Z" fill="#222526"/>
<path d="M78.0387 21.7361C78.026 21.7178 78.0177 21.6965 78.0146 21.6742C78.0114 21.6518 78.0135 21.629 78.0207 21.6077C78.0278 21.5863 78.0398 21.5671 78.0557 21.5515C78.0716 21.5358 78.0908 21.5244 78.1119 21.518C80.4683 20.7544 82.1261 18.9765 82.1261 16.0601V16.0074C82.1261 14.42 81.5946 13.0672 80.6633 12.0791C79.5247 10.9344 77.7791 10.2573 75.5531 10.2573H69.4885C69.4593 10.2573 69.4303 10.2633 69.4033 10.2748C69.3763 10.2864 69.3518 10.3033 69.3312 10.3246C69.3106 10.3459 69.2943 10.3712 69.2832 10.3991C69.2721 10.4269 69.2665 10.4567 69.2666 10.4868V12.943C69.2665 12.973 69.2721 13.0028 69.2832 13.0306C69.2943 13.0583 69.3106 13.0835 69.3313 13.1048C69.3519 13.126 69.3764 13.1428 69.4034 13.1542C69.4304 13.1656 69.4593 13.1714 69.4885 13.1712H75.2959C77.5987 13.1712 78.964 14.2382 78.964 16.1892V16.2419C78.964 18.0888 77.5475 19.2862 75.3227 19.2862H71.6962C71.6373 19.2862 71.5809 19.3102 71.5393 19.353C71.4977 19.3958 71.4743 19.4538 71.4743 19.5144V21.8966C71.4741 21.9265 71.4797 21.9562 71.4907 21.9839C71.5018 22.0115 71.518 22.0367 71.5385 22.0579C71.559 22.0791 71.5834 22.096 71.6102 22.1074C71.6371 22.1189 71.6659 22.1248 71.6949 22.1248H74.3914C74.4757 22.1247 74.5587 22.1453 74.6336 22.1851C74.7085 22.2248 74.773 22.2824 74.8217 22.353L78.8616 28.2398C78.9098 28.3097 78.9736 28.3666 79.0476 28.4059C79.1216 28.4452 79.2037 28.4656 79.287 28.4655H82.2749C82.3143 28.4647 82.3528 28.4532 82.3865 28.432C82.4202 28.4108 82.4477 28.3808 82.4663 28.3451C82.485 28.3093 82.494 28.2691 82.4925 28.2285C82.491 28.188 82.479 28.1486 82.4577 28.1144L78.0387 21.7361Z" fill="#222526"/>
<path d="M50.1888 19.3375V19.2861C50.1888 14.1127 54.069 9.78076 59.5571 9.78076C65.0451 9.78076 68.8741 14.0613 68.8741 19.2321V19.2861C68.8741 24.4581 64.9939 28.7901 59.5059 28.7901C54.0178 28.7901 50.1888 24.5045 50.1888 19.3375ZM65.5815 19.3375V19.2861C65.5815 15.7139 63.0544 12.7473 59.5059 12.7473C55.9573 12.7473 53.4826 15.6625 53.4826 19.2321V19.2861C53.4826 22.8557 56.0085 25.7972 59.5571 25.7972C63.1056 25.7972 65.5815 22.9134 65.5815 19.3375Z" fill="#222526"/>
<path d="M87.4885 10.2573H90.1545C90.2137 10.2573 90.2705 10.2815 90.3123 10.3245C90.3541 10.3676 90.3776 10.4259 90.3776 10.4868V28.2398C90.3776 28.2698 90.3718 28.2996 90.3606 28.3274C90.3494 28.3552 90.3329 28.3804 90.3122 28.4016C90.2915 28.4228 90.2669 28.4396 90.2398 28.451C90.2128 28.4623 90.1838 28.4681 90.1545 28.468H87.4885C87.4307 28.4666 87.3756 28.442 87.3352 28.3993C87.2949 28.3566 87.2724 28.2993 87.2728 28.2398V10.4868C87.2726 10.4567 87.2782 10.4269 87.2893 10.3991C87.3004 10.3712 87.3167 10.3459 87.3373 10.3246C87.3579 10.3033 87.3825 10.2864 87.4094 10.2748C87.4364 10.2633 87.4654 10.2573 87.4946 10.2573" fill="#222526"/>
<defs>
<linearGradient id="paint0_linear_3014_5918" x1="11.7201" y1="10.2017" x2="11.7201" y2="29.9821" gradientUnits="userSpaceOnUse">
<stop offset="0.03" stop-color="#5C5C5C"/>
<stop offset="0.3" stop-color="#777777"/>
<stop offset="0.33" stop-color="#8F8F8F"/>
<stop offset="0.4" stop-color="#989898"/>
<stop offset="0.48" stop-color="#A0A0A0"/>
<stop offset="0.55" stop-color="#A6A6A6"/>
<stop offset="0.63" stop-color="#AEAEAE"/>
<stop offset="0.73" stop-color="#ADADAD"/>
<stop offset="0.88" stop-color="#B6B6B6"/>
<stop offset="0.91" stop-color="#B3B3B3"/>
</linearGradient>
<linearGradient id="paint1_linear_3014_5918" x1="34.0234" y1="29.982" x2="8.06787" y2="29.982" gradientUnits="userSpaceOnUse">
<stop offset="0.03" stop-color="#CFCFCF"/>
<stop offset="0.3" stop-color="#B1B1B1"/>
<stop offset="0.36" stop-color="#9C9C9C"/>
<stop offset="0.44" stop-color="#8C8C8C"/>
<stop offset="0.53" stop-color="#858585"/>
<stop offset="0.63" stop-color="#7E7E7E"/>
<stop offset="0.69" stop-color="#7A7A7A"/>
<stop offset="0.79" stop-color="#676767"/>
<stop offset="0.9" stop-color="#4E4E4E"/>
<stop offset="0.91" stop-color="#3F3F3F"/>
</linearGradient>
<linearGradient id="paint2_linear_3014_5918" x1="8.56662" y1="-2.05961" x2="39.9497" y2="15.5563" gradientUnits="userSpaceOnUse">
<stop stop-color="#ECECEC"/>
<stop offset="0.44" stop-color="#F2F2F2"/>
<stop offset="0.57" stop-color="#E5E5E5"/>
<stop offset="0.68" stop-color="#EBEBEB"/>
<stop offset="0.73" stop-color="#D7D7D7"/>
<stop offset="0.84" stop-color="#CCCCCC"/>
<stop offset="1" stop-color="#D0D0D0"/>
</linearGradient>
<linearGradient id="paint3_linear_3014_5918" x1="34.0234" y1="36.0757" x2="34.0234" y2="8.02246" gradientUnits="userSpaceOnUse">
<stop stop-color="#717171"/>
<stop offset="0.06" stop-color="#717171"/>
<stop offset="0.14" stop-color="#717171"/>
<stop offset="0.25" stop-color="#7E7E7E"/>
<stop offset="0.29" stop-color="#818181"/>
<stop offset="0.44" stop-color="#808080"/>
<stop offset="0.66" stop-color="#7F7F7F"/>
<stop offset="0.97" stop-color="#545454"/>
<stop offset="1" stop-color="#515151"/>
</linearGradient>
</defs>
</svg>
