<svg width="19" height="16" viewBox="0 0 19 16" fill="none" xmlns="http://www.w3.org/2000/svg">
<path d="M5.51562 7.0625H13.5312C13.5406 7.0625 13.5523 7.0625 13.5617 7.06016C13.6648 7.04375 13.7328 6.94766 13.7164 6.84453L12.7742 1.03203C12.7602 0.940625 12.6805 0.875 12.5891 0.875H6.45781C6.36641 0.875 6.28672 0.940625 6.27266 1.03203L5.33047 6.84453C5.32812 6.85391 5.32812 6.86562 5.32812 6.875C5.32812 6.97813 5.4125 7.0625 5.51562 7.0625ZM7.65313 2.46875H11.3914L11.8766 5.46875H7.16562L7.65313 2.46875ZM7.71172 9.09453C7.69766 9.00313 7.61797 8.9375 7.52656 8.9375H1.39531C1.30391 8.9375 1.22422 9.00313 1.21016 9.09453L0.267969 14.907C0.265625 14.9164 0.265625 14.9281 0.265625 14.9375C0.265625 15.0406 0.35 15.125 0.453125 15.125H8.46875C8.47812 15.125 8.48984 15.125 8.49922 15.1227C8.60234 15.1063 8.67031 15.0102 8.65391 14.907L7.71172 9.09453ZM2.10547 13.5312L2.59062 10.5312H6.32891L6.81406 13.5312H2.10547ZM18.732 14.907L17.7898 9.09453C17.7758 9.00313 17.6961 8.9375 17.6047 8.9375H11.4734C11.382 8.9375 11.3023 9.00313 11.2883 9.09453L10.3461 14.907C10.3437 14.9164 10.3438 14.9281 10.3438 14.9375C10.3438 15.0406 10.4281 15.125 10.5312 15.125H18.5469C18.5562 15.125 18.568 15.125 18.5773 15.1227C18.6781 15.1063 18.7484 15.0102 18.732 14.907ZM12.1836 13.5312L12.6688 10.5312H16.407L16.8922 13.5312H12.1836Z" fill="white"/>
</svg>
