<svg width="25" height="24" viewBox="0 0 25 24" fill="none" xmlns="http://www.w3.org/2000/svg">
<path d="M22.3673 4.94704L17.6985 5.50954C17.5438 5.52829 17.4782 5.71813 17.5884 5.82829L18.9782 7.21813L13.6813 12.515L11.2954 10.1314C11.1477 9.98375 10.911 9.9861 10.7657 10.1314L3.22586 17.6736C3.19096 17.7088 3.17139 17.7564 3.17139 17.806C3.17139 17.8556 3.19096 17.9032 3.22586 17.9384L4.28054 18.9978C4.3532 19.0705 4.47273 19.0705 4.54539 18.9978L11.0305 12.515L13.4141 14.8986C13.5618 15.0439 13.7985 15.0439 13.9438 14.8986L20.3048 8.54235L21.6946 9.93219C21.7195 9.95698 21.7509 9.97427 21.7851 9.98211C21.8194 9.98996 21.8551 9.98803 21.8883 9.97655C21.9216 9.96508 21.9509 9.94451 21.973 9.9172C21.9951 9.88988 22.0091 9.85691 22.0134 9.82204L22.5759 5.15329C22.5923 5.03375 22.4891 4.93063 22.3673 4.94704Z" fill="white"/>
</svg>
