<svg width="25" height="24" viewBox="0 0 25 24" fill="none" xmlns="http://www.w3.org/2000/svg">
<path fill-rule="evenodd" clip-rule="evenodd" d="M12.75 3C7.77944 3 3.75 7.02944 3.75 12C3.75 16.9706 7.77944 21 12.75 21C17.7206 21 21.75 16.9706 21.75 12C21.75 7.02944 17.7206 3 12.75 3ZM1.75 12C1.75 5.92487 6.67487 1 12.75 1C18.8251 1 23.75 5.92487 23.75 12C23.75 18.0751 18.8251 23 12.75 23C6.67487 23 1.75 18.0751 1.75 12Z" fill="white"/>
<path fill-rule="evenodd" clip-rule="evenodd" d="M17.6969 7.05269C17.9647 7.32052 18.0583 7.71669 17.9385 8.07602L15.8185 14.436C15.7189 14.7346 15.4846 14.9689 15.186 15.0685L8.82602 17.1885C8.46669 17.3083 8.07052 17.2147 7.80269 16.9469C7.53485 16.6791 7.44133 16.2829 7.56111 15.9236L9.68111 9.56356C9.78064 9.26496 10.015 9.03064 10.3136 8.93111L16.6736 6.81111C17.0329 6.69133 17.4291 6.78485 17.6969 7.05269ZM11.4204 10.6704L10.0909 14.6587L14.0792 13.3292L15.4087 9.34093L11.4204 10.6704Z" fill="white"/>
</svg>
