<svg width="25" height="16" viewBox="0 0 25 16" fill="none" xmlns="http://www.w3.org/2000/svg">
<path d="M12.6996 6.97288C12.3443 7.15527 12.1316 7.53158 12.1586 7.93005L12.4971 12.931C12.5516 13.7364 13.4888 14.1486 14.1193 13.6445L23.066 6.49147C23.3962 6.22741 23.5247 5.78415 23.3869 5.38439L22.6209 3.16334C22.4224 2.58794 21.7603 2.32178 21.2188 2.59973L12.6996 6.97288ZM4.31696 6.02318C3.82452 5.93727 3.34429 6.2282 3.1924 6.70444L2.01763 10.3877C1.85212 10.9066 2.13236 11.4626 2.64796 11.6382L10.8652 14.4367C11.5411 14.6669 12.2335 14.1349 12.1853 13.4225L11.8252 8.10644C11.7941 7.64689 11.4531 7.26804 10.9994 7.18889L4.31696 6.02318ZM3.21843 5.466L15.6697 0.515386L22.4541 1.59577L24.0461 6.21169L12.5058 15.4384L1.25916 11.6083L3.21843 5.466ZM11.5802 6.85753C11.7945 6.89491 12.0151 6.86139 12.2087 6.76204L18.9491 3.30212C19.8091 2.86068 19.6046 1.57716 18.6499 1.42495L15.9654 0.996916C15.7877 0.968587 15.6057 0.988717 15.4385 1.05518L7.40414 4.24926C6.46687 4.62188 6.60813 5.99035 7.60176 6.16365L11.5802 6.85753Z" fill="white" stroke="white"/>
</svg>
