<?xml version="1.0" encoding="UTF-8"?><svg id="Calque_2" xmlns="http://www.w3.org/2000/svg" viewBox="0 0 297.04 297.04"><defs><style>.cls-1{fill:#575756;}.cls-1,.cls-2,.cls-3{stroke-width:0px;}.cls-2{fill:#c6c6c6;}.cls-3{fill:#d3b871;}</style></defs><g id="Calque_1-2"><circle class="cls-1" cx="148.52" cy="148.52" r="148.52"/><path class="cls-3" d="m219.79,149.84c-1.32,0-2.61.31-3.81.91l-68.54,34.31-1.35.67v24.79l3.53-1.77,54.49-27.28v33.23l-55.58,27.79-55.58-27.79v-74.35l56.67-28.34,1.35-.67v-24.79l-3.53,1.76-70.63,35.31c-4.98,2.49-8.08,7.5-8.08,13.08v81.64c0,5.57,3.1,10.58,8.08,13.08l65.18,32.59c2.02,1.01,4.28,1.54,6.54,1.54s4.52-.53,6.54-1.54l65.18-32.59c4.98-2.49,8.08-7.5,8.08-13.08v-59.97c0-4.71-3.83-8.54-8.53-8.54Z"/><path class="cls-2" d="m220.24,65.61l-65.18-32.59c-2.02-1.01-4.28-1.54-6.54-1.54s-4.52.53-6.54,1.54l-71.91,35.96-1.35.67v24.79l3.53-1.76,76.27-38.14,55.58,27.79v35.67s-56.67,28.34-56.67,28.34l-1.35.67v24.79l3.53-1.76,70.63-35.31c4.98-2.49,8.08-7.5,8.08-13.08v-42.96c0-5.57-3.1-10.58-8.08-13.08Z"/></g></svg>