<svg width="99" height="99" viewBox="0 0 99 99" fill="none" xmlns="http://www.w3.org/2000/svg">
<g clip-path="url(#clip0_1383_2)">
<path d="M49.4987 0C22.1623 0 0 22.1623 0 49.4987C0 76.8351 22.1623 98.9974 49.4987 98.9974C76.8351 98.9974 98.9974 76.8351 98.9974 49.4987C98.9974 22.1623 76.8377 0 49.4987 0ZM92.6368 60.1237L52.5637 83.1497C52.0332 83.4546 51.4438 83.6058 50.8518 83.6058C50.8236 83.6058 50.798 83.5956 50.7698 83.5956C50.7416 83.5956 50.716 83.6058 50.6878 83.6058C50.0958 83.6058 49.5064 83.4546 48.9759 83.1497L8.90798 60.1237C8.11866 59.6701 7.53949 58.9192 7.30372 58.0377C7.06795 57.1561 7.1884 56.2181 7.64456 55.4288L20.9758 32.3234C20.9758 32.3234 20.9783 32.3209 20.9809 32.3183C20.9835 32.3132 20.9886 32.3081 20.9937 32.3004C21.1321 32.0672 21.2987 31.8596 21.4781 31.6725C21.5293 31.6187 21.5857 31.5726 21.6395 31.5239C21.7958 31.3804 21.9624 31.2522 22.1418 31.142C22.1802 31.119 22.2084 31.0831 22.2494 31.06L49.2783 15.6223C50.3419 15.0149 51.6488 15.02 52.7047 15.6325L79.321 31.0703C79.3594 31.0933 79.3876 31.1267 79.4235 31.1497C79.6029 31.2625 79.7694 31.3906 79.9258 31.5393C79.977 31.5879 80.0308 31.6315 80.0795 31.6828C80.2615 31.875 80.4306 32.0851 80.5716 32.326L93.9028 55.4314C94.3589 56.2207 94.4819 57.1587 94.2436 58.0402C94.0053 58.9218 93.4287 59.6701 92.6394 60.1263L92.6368 60.1237Z" fill="#D3B872"/>
<path d="M54.2115 51.3695L54.273 74.2468L86.2326 55.8824L76.3303 38.72L54.2115 51.3695Z" fill="#D3B872"/>
<path d="M79.4235 31.1472C79.6054 31.2625 79.772 31.3932 79.9258 31.5367C79.7694 31.3906 79.6003 31.2599 79.4235 31.1472Z" fill="white"/>
<path d="M25.2145 38.72L15.3122 55.8824L47.2743 74.2468L47.3332 51.3695L25.2145 38.72Z" fill="#D3B872"/>
<path d="M21.6369 31.5213C21.7907 31.3804 21.9573 31.2522 22.1392 31.1395C21.9598 31.2497 21.7933 31.3778 21.6369 31.5213Z" fill="white"/>
<path d="M20.9911 32.3004C21.1244 32.0723 21.291 31.8647 21.4755 31.6725C21.2961 31.8622 21.1295 32.0672 20.9911 32.3004Z" fill="white"/>
<path d="M70.7154 34.0174L50.9671 22.5647L30.8729 34.0405L45.3471 42.3206L50.7724 45.424L70.7154 34.0174Z" fill="#D3B872"/>
<path d="M45.3471 42.3206L50.7724 45.424L45.3471 42.3206Z" fill="#D3B872"/>
<path d="M21.4755 31.6725C21.5268 31.6187 21.5831 31.5726 21.6369 31.5239C21.5831 31.5751 21.5268 31.6213 21.4755 31.6725Z" fill="white"/>
<path d="M20.9783 32.3162C20.9783 32.3162 20.9862 32.3057 20.9915 32.2978C20.9889 32.3031 20.9836 32.3083 20.9783 32.3162Z" fill="white"/>
</g>
<defs>
<clipPath id="clip0_1383_2">
<rect width="99" height="99" fill="white"/>
</clipPath>
</defs>
</svg>
