<svg width="200" height="100" viewBox="0 0 200 100" fill="none" xmlns="http://www.w3.org/2000/svg">
<g clip-path="url(#clip0_373_1107)">
<path d="M151.394 0C140.245 0 128.038 6.06229 115.162 18.02C109.086 23.6374 103.735 29.7553 99.833 34.594C99.833 34.594 106.076 41.7686 112.932 49.4994C116.667 44.8276 121.962 38.4872 128.15 32.7586C139.577 22.0801 147.046 19.911 151.338 19.911C167.392 19.911 180.435 33.3704 180.435 50C180.435 66.4627 167.392 79.9221 151.338 80.089C150.558 80.089 149.666 79.9778 148.551 79.7553C153.233 81.9244 158.306 83.4817 163.044 83.4817C192.475 83.4817 198.272 63.1813 198.607 61.7353C199.443 58.0089 199.945 54.1157 199.945 50.1112C199.889 22.4694 178.15 0 151.394 0Z" fill="url(#paint0_linear_373_1107)"/>
<path d="M48.5507 100C59.699 100 71.9064 93.9378 84.7826 81.98C90.8584 76.3627 96.2096 70.2448 100.111 65.4061C100.111 65.4061 93.8685 58.2314 87.0123 50.5006C83.2776 55.1725 77.9822 61.5129 71.7949 67.2414C60.3679 77.8087 52.8428 80.0891 48.6065 80.0891C32.553 80.0891 19.5095 66.6297 19.5095 50.0001C19.5095 33.5373 32.553 20.0779 48.6065 19.9111C49.3868 19.9111 50.2787 20.0223 51.3935 20.2448C46.7113 18.0757 41.6388 16.5184 36.9008 16.5184C7.46934 16.4628 1.67224 36.7631 1.33779 38.2648C0.501672 41.9912 0 45.8844 0 49.8888C0 77.5307 21.7391 100 48.5507 100Z" fill="url(#paint1_linear_373_1107)"/>
<path fill-rule="evenodd" clip-rule="evenodd" d="M70.9586 33.2036C67.7256 30.089 52.0066 17.3526 36.9564 16.9077C10.0891 16.2403 2.22952 35.7063 1.50488 38.2091C6.68883 16.4071 25.8639 0.111235 48.6063 0C67.1682 0 85.9531 18.1869 99.8327 34.594L99.8884 34.5384C99.8884 34.5384 106.131 41.713 112.988 49.4438C112.988 49.4438 120.791 58.6207 129.041 66.6852C132.274 69.7998 147.937 82.3693 162.988 82.8142C190.58 83.5929 198.216 63.0145 198.606 61.4572C193.534 83.426 174.303 99.7775 151.449 99.8888C132.887 99.8888 114.102 81.7019 100.167 65.2948C100.167 65.3504 100.111 65.3504 100.111 65.406C100.111 65.406 93.8683 58.2314 87.0121 50.5006C87.0679 50.5006 79.2641 41.2681 70.9586 33.2036Z" fill="#29ABE2"/>
</g>
<defs>
<linearGradient id="paint0_linear_373_1107" x1="125.299" y1="7.92347" x2="193.863" y2="77.206" gradientUnits="userSpaceOnUse">
<stop offset="0.21" stop-color="#F15A24"/>
<stop offset="0.6841" stop-color="#FBB03B"/>
</linearGradient>
<linearGradient id="paint1_linear_373_1107" x1="74.6634" y1="92.0878" x2="6.09929" y2="22.8054" gradientUnits="userSpaceOnUse">
<stop offset="0.21" stop-color="#ED1E79"/>
<stop offset="0.8929" stop-color="#522785"/>
</linearGradient>
<clipPath id="clip0_373_1107">
<rect width="200" height="100" fill="white"/>
</clipPath>
</defs>
</svg>
