<svg width="25" height="25" viewBox="0 0 25 25" fill="none" xmlns="http://www.w3.org/2000/svg">
<mask id="mask0_1512_1457" style="mask-type:alpha" maskUnits="userSpaceOnUse" x="0" y="0" width="25" height="25">
<rect x="0.87085" y="0.543976" width="24" height="24" fill="#D9D9D9"/>
</mask>
<g mask="url(#mask0_1512_1457)">
<path d="M2.87085 22.544C2.87085 20.694 3.11668 19.1148 3.60835 17.8065C4.10002 16.4981 4.72918 15.4106 5.49585 14.544C6.26252 13.6773 7.12085 13.0065 8.07085 12.5315C9.02085 12.0565 9.95418 11.7273 10.8708 11.544V8.54398C8.58752 8.26064 6.68335 7.55648 5.15835 6.43148C3.63335 5.30648 2.87085 4.01064 2.87085 2.54398H22.8708C22.8708 4.01064 22.1083 5.30648 20.5833 6.43148C19.0583 7.55648 17.1542 8.26064 14.8708 8.54398V11.544C15.7875 11.7273 16.7208 12.0565 17.6708 12.5315C18.6208 13.0065 19.4792 13.6773 20.2458 14.544C21.0125 15.4106 21.6417 16.4981 22.1334 17.8065C22.625 19.1148 22.8708 20.694 22.8708 22.544H16.8708V20.544H20.7458C20.4459 18.0106 19.5 16.1773 17.9083 15.044C16.3167 13.9106 14.6375 13.344 12.8708 13.344C11.1042 13.344 9.42502 13.9106 7.83335 15.044C6.24168 16.1773 5.29585 18.0106 4.99585 20.544H8.87085V22.544H2.87085ZM12.8708 6.66898C14.3875 6.66898 15.7375 6.46481 16.9208 6.05648C18.1042 5.64814 19.0458 5.14398 19.7458 4.54398H5.99585C6.69585 5.14398 7.63752 5.64814 8.82085 6.05648C10.0042 6.46481 11.3542 6.66898 12.8708 6.66898ZM12.8708 22.544C12.3208 22.544 11.85 22.3481 11.4584 21.9565C11.0667 21.5648 10.8708 21.094 10.8708 20.544C10.8708 20.2606 10.925 20.0023 11.0333 19.769C11.1417 19.5356 11.2875 19.3273 11.4708 19.144C11.8708 18.744 12.5458 18.3231 13.4958 17.8815C14.4458 17.4398 15.5708 16.994 16.8708 16.544C16.4042 17.844 15.9542 18.969 15.5209 19.919C15.0875 20.869 14.6708 21.544 14.2709 21.944C14.0875 22.1273 13.8792 22.2731 13.6459 22.3815C13.4125 22.4898 13.1542 22.544 12.8708 22.544Z" fill="black"/>
</g>
</svg>
