<?xml version="1.0" encoding="UTF-8"?>
<!DOCTYPE svg PUBLIC "-//W3C//DTD SVG 1.1//EN" "http://www.w3.org/Graphics/SVG/1.1/DTD/svg11.dtd">
<svg xmlns="http://www.w3.org/2000/svg" version="1.1" width="41px" height="32px" style="shape-rendering:geometricPrecision; text-rendering:geometricPrecision; image-rendering:optimizeQuality; fill-rule:evenodd; clip-rule:evenodd" xmlns:xlink="http://www.w3.org/1999/xlink">
<g><path style="opacity:0.953" fill="#649fcd" d="M 6.5,10.5 C 7.16667,10.5 7.5,10.8333 7.5,11.5C 6.50838,11.3284 5.84171,11.6618 5.5,12.5C 5.16667,12.5 4.83333,12.5 4.5,12.5C 4.5,12.1667 4.5,11.8333 4.5,11.5C 4.84171,10.6618 5.50838,10.3284 6.5,10.5 Z"/></g>
<g><path style="opacity:1" fill="#54b0dd" d="M 6.5,10.5 C 7.91866,9.54885 9.58533,9.21552 11.5,9.5C 11.5,10.1667 11.5,10.8333 11.5,11.5C 11.1667,12.1667 10.8333,12.8333 10.5,13.5C 10.1667,13.5 9.83333,13.5 9.5,13.5C 9.16667,13.5 8.83333,13.5 8.5,13.5C 10.0311,12.0755 9.69772,11.4088 7.5,11.5C 7.5,10.8333 7.16667,10.5 6.5,10.5 Z"/></g>
<g><path style="opacity:0.784" fill="#7ab6d5" d="M 11.5,9.5 C 12.1667,9.83333 12.8333,10.1667 13.5,10.5C 13.5,10.8333 13.5,11.1667 13.5,11.5C 12.8333,11.5 12.1667,11.5 11.5,11.5C 11.5,10.8333 11.5,10.1667 11.5,9.5 Z"/></g>
<g><path style="opacity:0.831" fill="#578fcd" d="M 5.5,12.5 C 5.84171,11.6618 6.50838,11.3284 7.5,11.5C 9.69772,11.4088 10.0311,12.0755 8.5,13.5C 8.16667,13.5 7.83333,13.5 7.5,13.5C 7.15829,12.6618 6.49162,12.3284 5.5,12.5 Z"/></g>
<g><path style="opacity:0.616" fill="#b1e1f6" d="M 13.5,11.5 C 13.5,11.1667 13.5,10.8333 13.5,10.5C 15.0269,10.427 16.0269,11.0937 16.5,12.5C 16.5,12.8333 16.5,13.1667 16.5,13.5C 16.1667,13.5 15.8333,13.5 15.5,13.5C 15.1667,12.5 14.5,11.8333 13.5,11.5 Z"/></g>
<g><path style="opacity:1" fill="#d86945" d="M 24.5,10.5 C 24.1667,11.1667 23.8333,11.8333 23.5,12.5C 23.1667,12.5 22.8333,12.5 22.5,12.5C 22.5,12.1667 22.5,11.8333 22.5,11.5C 22.8417,10.6618 23.5084,10.3284 24.5,10.5 Z"/></g>
<g><path style="opacity:1" fill="#e87c50" d="M 27.5,10.5 C 25.3023,10.4088 24.9689,11.0755 26.5,12.5C 25.8333,13.1667 25.1667,13.8333 24.5,14.5C 24.1667,14.5 23.8333,14.5 23.5,14.5C 23.5,13.8333 23.5,13.1667 23.5,12.5C 23.8333,11.8333 24.1667,11.1667 24.5,10.5C 25.5,9.16667 26.5,9.16667 27.5,10.5 Z"/></g>
<g><path style="opacity:1" fill="#e06f3b" d="M 27.5,10.5 C 28.791,10.2627 29.791,10.596 30.5,11.5C 29.8333,11.5 29.5,11.8333 29.5,12.5C 28.5,12.5 27.5,12.5 26.5,12.5C 24.9689,11.0755 25.3023,10.4088 27.5,10.5 Z"/></g>
<g><path style="opacity:0.914" fill="#b8d5ed" d="M 4.5,11.5 C 4.5,11.8333 4.5,12.1667 4.5,12.5C 3.83333,12.8333 3.16667,13.1667 2.5,13.5C 2.5,13.1667 2.5,12.8333 2.5,12.5C 2.84171,11.6618 3.50838,11.3284 4.5,11.5 Z"/></g>
<g><path style="opacity:0.714" fill="#404b8a" d="M 4.5,12.5 C 4.83333,12.5 5.16667,12.5 5.5,12.5C 6.49162,12.3284 7.15829,12.6618 7.5,13.5C 6.83333,13.8333 6.16667,14.1667 5.5,14.5C 4.79778,13.8843 3.79778,13.8843 2.5,14.5C 2.5,14.1667 2.5,13.8333 2.5,13.5C 3.16667,13.1667 3.83333,12.8333 4.5,12.5 Z"/></g>
<g><path style="opacity:1" fill="#48abcd" d="M 11.5,11.5 C 12.1667,11.5 12.8333,11.5 13.5,11.5C 13.5,12.5 13.5,13.5 13.5,14.5C 13.1667,14.5 12.8333,14.5 12.5,14.5C 11.8333,14.1667 11.1667,13.8333 10.5,13.5C 10.8333,12.8333 11.1667,12.1667 11.5,11.5 Z"/></g>
<g><path style="opacity:0.494" fill="#faf7f8" d="M 19.5,12.5 C 19.5,12.8333 19.5,13.1667 19.5,13.5C 18.5,14.8333 17.5,14.8333 16.5,13.5C 16.5,13.1667 16.5,12.8333 16.5,12.5C 17.7978,11.8843 18.7978,11.8843 19.5,12.5 Z"/></g>
<g><path style="opacity:0.486" fill="#df8565" d="M 22.5,11.5 C 22.5,11.8333 22.5,12.1667 22.5,12.5C 21.8333,12.5 21.5,12.8333 21.5,13.5C 20.8333,13.5 20.1667,13.5 19.5,13.5C 19.5,13.1667 19.5,12.8333 19.5,12.5C 20.391,11.8902 21.391,11.5569 22.5,11.5 Z"/></g>
<g><path style="opacity:1" fill="#e9863b" d="M 30.5,11.5 C 31.1667,11.5 31.5,11.8333 31.5,12.5C 31.5,13.1667 31.1667,13.5 30.5,13.5C 29.8333,13.5 29.5,13.1667 29.5,12.5C 29.5,11.8333 29.8333,11.5 30.5,11.5 Z"/></g>
<g><path style="opacity:0.961" fill="#f1f2fe" d="M 7.5,13.5 C 7.83333,13.5 8.16667,13.5 8.5,13.5C 8.83333,13.5 9.16667,13.5 9.5,13.5C 9.5,13.8333 9.5,14.1667 9.5,14.5C 7.93819,14.7329 6.60486,15.3995 5.5,16.5C 5.5,15.8333 5.5,15.1667 5.5,14.5C 6.16667,14.1667 6.83333,13.8333 7.5,13.5 Z"/></g>
<g><path style="opacity:1" fill="#38a6d5" d="M 13.5,11.5 C 14.5,11.8333 15.1667,12.5 15.5,13.5C 15.1583,14.3382 14.4916,14.6716 13.5,14.5C 13.5,13.5 13.5,12.5 13.5,11.5 Z"/></g>
<g><path style="opacity:1" fill="#e05f36" d="M 22.5,12.5 C 22.8333,12.5 23.1667,12.5 23.5,12.5C 23.5,13.1667 23.5,13.8333 23.5,14.5C 23.1667,14.5 22.8333,14.5 22.5,14.5C 21.8333,14.5 21.5,14.1667 21.5,13.5C 21.5,12.8333 21.8333,12.5 22.5,12.5 Z"/></g>
<g><path style="opacity:1" fill="#e59c49" d="M 31.5,12.5 C 32.1667,12.5 32.5,12.8333 32.5,13.5C 32.5,14.1667 32.1667,14.5 31.5,14.5C 30.8333,14.5 30.5,14.1667 30.5,13.5C 31.1667,13.5 31.5,13.1667 31.5,12.5 Z"/></g>
<g><path style="opacity:0.757" fill="#f4ebff" d="M 2.5,12.5 C 2.5,12.8333 2.5,13.1667 2.5,13.5C 2.5,13.8333 2.5,14.1667 2.5,14.5C 1.66175,14.8417 1.32842,15.5084 1.5,16.5C 1.5,16.8333 1.5,17.1667 1.5,17.5C 0.833333,17.5 0.5,17.1667 0.5,16.5C 0.229113,14.6203 0.895779,13.287 2.5,12.5 Z"/></g>
<g><path style="opacity:0.161" fill="#e7fefe" d="M 9.5,14.5 C 9.5,14.1667 9.5,13.8333 9.5,13.5C 9.83333,13.5 10.1667,13.5 10.5,13.5C 11.1667,13.8333 11.8333,14.1667 12.5,14.5C 12.5,14.8333 12.5,15.1667 12.5,15.5C 11.391,15.4431 10.391,15.1098 9.5,14.5 Z"/></g>
<g><path style="opacity:1" fill="#69a5bc" d="M 15.5,13.5 C 15.8333,13.5 16.1667,13.5 16.5,13.5C 17.5,14.8333 18.5,14.8333 19.5,13.5C 19.5,14.5 19.5,15.5 19.5,16.5C 17.901,16.2322 16.5676,16.5655 15.5,17.5C 14.8333,17.5 14.5,17.1667 14.5,16.5C 14.1667,15.8333 13.8333,15.1667 13.5,14.5C 14.4916,14.6716 15.1583,14.3382 15.5,13.5 Z"/></g>
<g><path style="opacity:1" fill="#d9643c" d="M 19.5,13.5 C 20.1667,13.5 20.8333,13.5 21.5,13.5C 21.5,14.1667 21.8333,14.5 22.5,14.5C 22.0269,15.9063 21.0269,16.573 19.5,16.5C 19.5,15.5 19.5,14.5 19.5,13.5 Z"/></g>
<g><path style="opacity:1" fill="#e8a74d" d="M 32.5,13.5 C 33.3382,13.8417 33.6716,14.5084 33.5,15.5C 33.1667,15.5 32.8333,15.5 32.5,15.5C 31.8333,15.5 31.5,15.1667 31.5,14.5C 32.1667,14.5 32.5,14.1667 32.5,13.5 Z"/></g>
<g><path style="opacity:1" fill="#644487" d="M 5.5,14.5 C 5.5,15.1667 5.5,15.8333 5.5,16.5C 5.16667,16.5 4.83333,16.5 4.5,16.5C 3.5,15.1667 2.5,15.1667 1.5,16.5C 1.32842,15.5084 1.66175,14.8417 2.5,14.5C 3.79778,13.8843 4.79778,13.8843 5.5,14.5 Z"/></g>
<g><path style="opacity:1" fill="#b3e5f5" d="M 12.5,14.5 C 12.8333,14.5 13.1667,14.5 13.5,14.5C 13.8333,15.1667 14.1667,15.8333 14.5,16.5C 14.1667,16.5 13.8333,16.5 13.5,16.5C 12.8333,16.5 12.5,16.1667 12.5,15.5C 12.5,15.1667 12.5,14.8333 12.5,14.5 Z"/></g>
<g><path style="opacity:0.643" fill="#f8d6c8" d="M 22.5,14.5 C 22.8333,14.5 23.1667,14.5 23.5,14.5C 23.8333,14.5 24.1667,14.5 24.5,14.5C 23.8333,15.5 23.1667,16.5 22.5,17.5C 21.8333,17.5 21.1667,17.5 20.5,17.5C 19.8333,17.5 19.5,17.1667 19.5,16.5C 21.0269,16.573 22.0269,15.9063 22.5,14.5 Z"/></g>
<g><path style="opacity:1" fill="#4f9fc3" d="M 15.5,17.5 C 16.5676,16.5655 17.901,16.2322 19.5,16.5C 19.5,17.1667 19.8333,17.5 20.5,17.5C 20.5,17.8333 20.5,18.1667 20.5,18.5C 19.8333,18.5 19.1667,18.5 18.5,18.5C 17.791,17.596 16.791,17.2627 15.5,17.5 Z"/></g>
<g><path style="opacity:0.878" fill="#fef6fd" d="M -0.5,16.5 C -0.166667,16.5 0.166667,16.5 0.5,16.5C 0.5,17.1667 0.833333,17.5 1.5,17.5C 1.5,17.8333 1.5,18.1667 1.5,18.5C 1.5,19.1667 1.5,19.8333 1.5,20.5C 1.5,20.8333 1.5,21.1667 1.5,21.5C 0.833333,20.5 0.166667,19.5 -0.5,18.5C -0.5,17.8333 -0.5,17.1667 -0.5,16.5 Z"/></g>
<g><path style="opacity:1" fill="#652b79" d="M 4.5,16.5 C 4.5,17.5 4.5,18.5 4.5,19.5C 4.16667,19.5 3.83333,19.5 3.5,19.5C 2.83333,19.1667 2.16667,18.8333 1.5,18.5C 1.5,18.1667 1.5,17.8333 1.5,17.5C 1.5,17.1667 1.5,16.8333 1.5,16.5C 2.5,15.1667 3.5,15.1667 4.5,16.5 Z"/></g>
<g><path style="opacity:1" fill="#f5eefe" d="M 13.5,16.5 C 13.8333,16.5 14.1667,16.5 14.5,16.5C 14.5,17.1667 14.8333,17.5 15.5,17.5C 15.1667,18.1667 14.8333,18.8333 14.5,19.5C 14.1667,19.5 13.8333,19.5 13.5,19.5C 13.5,18.5 13.5,17.5 13.5,16.5 Z"/></g>
<g><path style="opacity:1" fill="#7388c7" d="M 15.5,17.5 C 16.791,17.2627 17.791,17.596 18.5,18.5C 18.5,19.1667 18.5,19.8333 18.5,20.5C 18.1667,20.5 17.8333,20.5 17.5,20.5C 16.791,19.596 15.791,19.2627 14.5,19.5C 14.8333,18.8333 15.1667,18.1667 15.5,17.5 Z"/></g>
<g><path style="opacity:1" fill="#f2b157" d="M 32.5,15.5 C 32.8333,15.5 33.1667,15.5 33.5,15.5C 34.8333,17.1667 34.8333,18.8333 33.5,20.5C 32.8333,20.5 32.1667,20.5 31.5,20.5C 32.3007,18.9582 32.634,17.2915 32.5,15.5 Z"/></g>
<g><path style="opacity:0.824" fill="#d1f4fb" d="M 20.5,18.5 C 20.5,18.1667 20.5,17.8333 20.5,17.5C 21.1667,17.5 21.8333,17.5 22.5,17.5C 23.5846,19.5869 25.2512,20.9202 27.5,21.5C 27.5,22.1667 27.5,22.8333 27.5,23.5C 27.1667,23.5 26.8333,23.5 26.5,23.5C 26.1583,22.6618 25.4916,22.3284 24.5,22.5C 24.1667,21.5 23.5,20.8333 22.5,20.5C 22.1667,19.5 21.5,18.8333 20.5,18.5 Z"/></g>
<g><path style="opacity:1" fill="#8c3b7e" d="M 1.5,18.5 C 2.16667,18.8333 2.83333,19.1667 3.5,19.5C 3.5,20.1667 3.16667,20.5 2.5,20.5C 2.16667,20.5 1.83333,20.5 1.5,20.5C 1.5,19.8333 1.5,19.1667 1.5,18.5 Z"/></g>
<g><path style="opacity:1" fill="#49a4d0" d="M 18.5,18.5 C 19.1667,18.5 19.8333,18.5 20.5,18.5C 20.3284,19.4916 20.6618,20.1583 21.5,20.5C 21.6716,21.4916 21.3382,22.1583 20.5,22.5C 19.8333,22.1667 19.1667,21.8333 18.5,21.5C 18.5,21.1667 18.5,20.8333 18.5,20.5C 18.5,19.8333 18.5,19.1667 18.5,18.5 Z"/></g>
<g><path style="opacity:0.851" fill="#5aa8cb" d="M 20.5,18.5 C 21.5,18.8333 22.1667,19.5 22.5,20.5C 22.1667,20.5 21.8333,20.5 21.5,20.5C 20.6618,20.1583 20.3284,19.4916 20.5,18.5 Z"/></g>
<g><path style="opacity:1" fill="#913075" d="M 3.5,19.5 C 3.83333,19.5 4.16667,19.5 4.5,19.5C 5.33825,19.8417 5.67158,20.5084 5.5,21.5C 4.50838,21.3284 3.84171,21.6618 3.5,22.5C 2.66175,22.1583 2.32842,21.4916 2.5,20.5C 3.16667,20.5 3.5,20.1667 3.5,19.5 Z"/></g>
<g><path style="opacity:0.827" fill="#e8bde0" d="M 4.5,16.5 C 4.83333,16.5 5.16667,16.5 5.5,16.5C 5.89254,18.2838 6.5592,19.9505 7.5,21.5C 7.5,21.8333 7.5,22.1667 7.5,22.5C 7.16667,22.5 6.83333,22.5 6.5,22.5C 6.5,21.8333 6.16667,21.5 5.5,21.5C 5.67158,20.5084 5.33825,19.8417 4.5,19.5C 4.5,18.5 4.5,17.5 4.5,16.5 Z"/></g>
<g><path style="opacity:1" fill="#f6a8cc" d="M 13.5,19.5 C 13.8333,19.5 14.1667,19.5 14.5,19.5C 14.5,19.8333 14.5,20.1667 14.5,20.5C 13.8333,20.5 13.5,20.8333 13.5,21.5C 13.1667,21.5 12.8333,21.5 12.5,21.5C 12.5,21.1667 12.5,20.8333 12.5,20.5C 12.5,19.8333 12.8333,19.5 13.5,19.5 Z"/></g>
<g><path style="opacity:1" fill="#c7337e" d="M 14.5,20.5 C 14.5,20.1667 14.5,19.8333 14.5,19.5C 15.791,19.2627 16.791,19.596 17.5,20.5C 17.1667,21.5 16.5,22.1667 15.5,22.5C 15.6716,21.5084 15.3382,20.8417 14.5,20.5 Z"/></g>
<g><path style="opacity:0.851" fill="#ffd6f9" d="M 12.5,20.5 C 12.5,20.8333 12.5,21.1667 12.5,21.5C 11.8333,21.8333 11.1667,22.1667 10.5,22.5C 9.5,22.5 8.5,22.5 7.5,22.5C 7.5,22.1667 7.5,21.8333 7.5,21.5C 9.2161,21.3713 10.8828,21.038 12.5,20.5 Z"/></g>
<g><path style="opacity:1" fill="#d42a74" d="M 13.5,21.5 C 13.5,20.8333 13.8333,20.5 14.5,20.5C 15.3382,20.8417 15.6716,21.5084 15.5,22.5C 15.5,23.1667 15.1667,23.5 14.5,23.5C 14.6716,22.5084 14.3382,21.8417 13.5,21.5 Z"/></g>
<g><path style="opacity:0.757" fill="#c5bb8a" d="M 31.5,20.5 C 32.1667,20.5 32.8333,20.5 33.5,20.5C 33.573,22.0269 32.9063,23.0269 31.5,23.5C 30.1667,23.5 28.8333,23.5 27.5,23.5C 27.5,22.8333 27.5,22.1667 27.5,21.5C 28.9587,21.5674 30.2921,21.2341 31.5,20.5 Z"/></g>
<g><path style="opacity:0.059" fill="#f5d1f0" d="M 1.5,20.5 C 1.83333,20.5 2.16667,20.5 2.5,20.5C 2.32842,21.4916 2.66175,22.1583 3.5,22.5C 3.83333,23.5 4.5,24.1667 5.5,24.5C 5.5,24.8333 5.5,25.1667 5.5,25.5C 5.16667,25.5 4.83333,25.5 4.5,25.5C 2.73758,24.7377 1.73758,23.4044 1.5,21.5C 1.5,21.1667 1.5,20.8333 1.5,20.5 Z"/></g>
<g><path style="opacity:1" fill="#9e2f76" d="M 5.5,21.5 C 6.16667,21.5 6.5,21.8333 6.5,22.5C 5.66175,22.8417 5.32842,23.5084 5.5,24.5C 4.5,24.1667 3.83333,23.5 3.5,22.5C 3.84171,21.6618 4.50838,21.3284 5.5,21.5 Z"/></g>
<g><path style="opacity:0.941" fill="#d6387e" d="M 12.5,21.5 C 12.8333,21.5 13.1667,21.5 13.5,21.5C 13.1667,22.5 12.5,23.1667 11.5,23.5C 11.1667,23.5 10.8333,23.5 10.5,23.5C 10.5,23.1667 10.5,22.8333 10.5,22.5C 11.1667,22.1667 11.8333,21.8333 12.5,21.5 Z"/></g>
<g><path style="opacity:1" fill="#dd3981" d="M 13.5,21.5 C 14.3382,21.8417 14.6716,22.5084 14.5,23.5C 14.1667,24.1667 13.8333,24.8333 13.5,25.5C 13.1667,25.5 12.8333,25.5 12.5,25.5C 12.1667,24.8333 11.8333,24.1667 11.5,23.5C 12.5,23.1667 13.1667,22.5 13.5,21.5 Z"/></g>
<g><path style="opacity:1" fill="#fdd4f2" d="M 17.5,20.5 C 17.8333,20.5 18.1667,20.5 18.5,20.5C 18.5,20.8333 18.5,21.1667 18.5,21.5C 18.5,21.8333 18.5,22.1667 18.5,22.5C 17.1667,23.5 15.8333,24.5 14.5,25.5C 14.1667,25.5 13.8333,25.5 13.5,25.5C 13.8333,24.8333 14.1667,24.1667 14.5,23.5C 15.1667,23.5 15.5,23.1667 15.5,22.5C 16.5,22.1667 17.1667,21.5 17.5,20.5 Z"/></g>
<g><path style="opacity:1" fill="#ccf5fd" d="M 18.5,21.5 C 19.1667,21.8333 19.8333,22.1667 20.5,22.5C 20.8333,23.5 21.5,24.1667 22.5,24.5C 23.1667,24.5 23.5,24.8333 23.5,25.5C 22.8333,25.5 22.1667,25.5 21.5,25.5C 20.1667,24.8333 19.1667,23.8333 18.5,22.5C 18.5,22.1667 18.5,21.8333 18.5,21.5 Z"/></g>
<g><path style="opacity:1" fill="#4cadd2" d="M 21.5,20.5 C 21.8333,20.5 22.1667,20.5 22.5,20.5C 23.5,20.8333 24.1667,21.5 24.5,22.5C 23.1667,22.5 22.5,23.1667 22.5,24.5C 21.5,24.1667 20.8333,23.5 20.5,22.5C 21.3382,22.1583 21.6716,21.4916 21.5,20.5 Z"/></g>
<g><path style="opacity:0.988" fill="#43a7cf" d="M 24.5,22.5 C 25.4916,22.3284 26.1583,22.6618 26.5,23.5C 25.1667,23.5 24.5,24.1667 24.5,25.5C 24.1667,25.5 23.8333,25.5 23.5,25.5C 23.5,24.8333 23.1667,24.5 22.5,24.5C 22.5,23.1667 23.1667,22.5 24.5,22.5 Z"/></g>
<g><path style="opacity:1" fill="#bf4281" d="M 6.5,22.5 C 6.83333,22.5 7.16667,22.5 7.5,22.5C 8.5,22.5 9.5,22.5 10.5,22.5C 10.5,22.8333 10.5,23.1667 10.5,23.5C 9.83333,23.5 9.16667,23.5 8.5,23.5C 7.16667,23.5 6.5,24.1667 6.5,25.5C 6.16667,25.5 5.83333,25.5 5.5,25.5C 5.5,25.1667 5.5,24.8333 5.5,24.5C 5.32842,23.5084 5.66175,22.8417 6.5,22.5 Z"/></g>
<g><path style="opacity:1" fill="#cd5182" d="M 8.5,23.5 C 8.97306,24.9063 9.97306,25.573 11.5,25.5C 11.5,26.1667 11.1667,26.5 10.5,26.5C 8.90097,26.7678 7.56764,26.4345 6.5,25.5C 6.5,24.1667 7.16667,23.5 8.5,23.5 Z"/></g>
<g><path style="opacity:1" fill="#d02e73" d="M 8.5,23.5 C 9.16667,23.5 9.83333,23.5 10.5,23.5C 10.8333,23.5 11.1667,23.5 11.5,23.5C 11.8333,24.1667 12.1667,24.8333 12.5,25.5C 12.1667,25.5 11.8333,25.5 11.5,25.5C 9.97306,25.573 8.97306,24.9063 8.5,23.5 Z"/></g>
<g><path style="opacity:1" fill="#58a6cf" d="M 26.5,23.5 C 26.8333,23.5 27.1667,23.5 27.5,23.5C 28.8333,23.5 30.1667,23.5 31.5,23.5C 30.3065,24.2719 29.3065,25.2719 28.5,26.5C 26.901,26.7678 25.5676,26.4345 24.5,25.5C 24.5,24.1667 25.1667,23.5 26.5,23.5 Z"/></g>
<g><path style="opacity:0.125" fill="#ffebfc" d="M 4.5,25.5 C 4.83333,25.5 5.16667,25.5 5.5,25.5C 5.83333,25.5 6.16667,25.5 6.5,25.5C 7.56764,26.4345 8.90097,26.7678 10.5,26.5C 10.5,26.8333 10.5,27.1667 10.5,27.5C 7.98989,27.9465 5.98989,27.2798 4.5,25.5 Z"/></g>
<g><path style="opacity:0.89" fill="#ffe9f8" d="M 11.5,25.5 C 11.8333,25.5 12.1667,25.5 12.5,25.5C 12.8333,25.5 13.1667,25.5 13.5,25.5C 13.8333,25.5 14.1667,25.5 14.5,25.5C 13.4863,26.6737 12.153,27.3404 10.5,27.5C 10.5,27.1667 10.5,26.8333 10.5,26.5C 11.1667,26.5 11.5,26.1667 11.5,25.5 Z"/></g>
<g><path style="opacity:0.31" fill="#eaf9fe" d="M 21.5,25.5 C 22.1667,25.5 22.8333,25.5 23.5,25.5C 23.8333,25.5 24.1667,25.5 24.5,25.5C 25.5676,26.4345 26.901,26.7678 28.5,26.5C 25.9882,27.8674 23.6548,27.534 21.5,25.5 Z"/></g>
</svg>
