<svg width="46" height="46" viewBox="0 0 46 46" fill="none" xmlns="http://www.w3.org/2000/svg">
<g clipPath="url(#clip0_73_1236)">
<path d="M23.0041 46.0081C35.7088 46.0081 46.0081 35.7088 46.0081 23.0041C46.0081 10.2993 35.7088 0 23.0041 0C10.2993 0 0 10.2993 0 23.0041C0 35.7088 10.2993 46.0081 23.0041 46.0081Z" fill="#D3B871"/>
<path d="M26.2013 23.0041H36.8635C37.115 23.0041 37.326 23.215 37.326 23.4747V34.1207C37.326 34.5264 36.831 34.7373 36.5389 34.4452L25.8767 23.7911C25.5846 23.499 25.7956 23.0041 26.2013 23.0041Z" fill="white"/>
<path d="M18.1276 29.9824L12.2123 35.8977C11.9202 36.1898 12.1311 36.6848 12.5369 36.6848H34.7701C35.1839 36.6848 35.3867 36.1898 35.0946 35.8977L29.1793 29.9824C29.09 29.8931 28.9764 29.8444 28.8547 29.8444H18.4603C18.3386 29.8444 18.225 29.8931 18.1357 29.9824H18.1276Z" fill="white"/>
<path d="M16.6669 17.4782L10.7516 11.5629C10.4595 11.2708 9.96448 11.4817 9.96448 11.8875V34.1207C9.96448 34.5345 10.4595 34.7373 10.7516 34.4452L16.6669 28.5299C16.7562 28.4406 16.8048 28.327 16.8048 28.2053V17.8109C16.8048 17.6892 16.7562 17.5756 16.6669 17.4863V17.4782Z" fill="white"/>
<path d="M29.1708 16.0176L35.0861 10.1023C35.3782 9.81019 35.1672 9.31522 34.7615 9.31522H12.5283C12.1145 9.31522 11.9116 9.81019 12.2038 10.1023L18.1191 16.0176C18.2083 16.1069 18.3219 16.1556 18.4437 16.1556H28.8381C28.9598 16.1556 29.0734 16.1069 29.1627 16.0176H29.1708Z" fill="white"/>
</g>
<defs>
<clipPath id="clip0_73_1236">
<rect width="46" height="46" fill="white"/>
</clipPath>
</defs>
</svg>
