<svg width="26" height="26" viewBox="0 0 26 26" fill="none" xmlns="http://www.w3.org/2000/svg">
<path d="M8.5 4H25" stroke="#D3B871" stroke-width="2" stroke-linecap="round" stroke-linejoin="round"/>
<path d="M2.5 7V1" stroke="#D3B871" stroke-width="2" stroke-linecap="round" stroke-linejoin="round"/>
<path d="M4 16H1.9C1.40294 16 1 15.5971 1 15.1V13.9C1 13.4029 1.40294 13 1.9 13H3.1C3.59706 13 4 12.5971 4 12.1V10.9C4 10.4029 3.59706 10 3.1 10H1" stroke="#D3B871" stroke-width="2" stroke-linecap="round" stroke-linejoin="round"/>
<path d="M1 19H3.1C3.59706 19 4 19.4029 4 19.9V24.1C4 24.5971 3.59706 25 3.1 25H1" stroke="#D3B871" stroke-width="2" stroke-linecap="round" stroke-linejoin="round"/>
<path d="M4 22H1" stroke="#D3B871" stroke-width="2" stroke-linecap="round" stroke-linejoin="round"/>
<path d="M8.5 13H25" stroke="#D3B871" stroke-width="2" stroke-linecap="round" stroke-linejoin="round"/>
<path d="M8.5 22H25" stroke="#D3B871" stroke-width="2" stroke-linecap="round" stroke-linejoin="round"/>
</svg>
