<svg width="48" height="71" viewBox="0 0 48 71" fill="none" xmlns="http://www.w3.org/2000/svg">
<path d="M45.4159 35.6463C45.0283 35.6463 44.6406 35.711 44.253 35.9051L23.6447 46.2561L23.2571 46.4502V53.89L24.2907 53.3724L40.6999 45.1563V55.1839L23.9677 63.5294L7.30013 55.1192V32.7998L24.3553 24.2602L24.7429 24.0661V16.5616L23.7093 17.0792L2.45491 27.7537C0.904441 28.4653 0 30.018 0 31.7V56.2837C0 57.9657 0.904441 59.4537 2.45491 60.23L22.0296 70.0634C22.611 70.3869 23.3217 70.5163 23.9677 70.5163C24.6137 70.5163 25.3244 70.3869 25.9058 70.0634L45.5451 60.1653C47.031 59.389 48 57.901 48 56.219V38.1694C48 36.7461 46.8371 35.6463 45.4159 35.6463Z" fill="#D3B871"/>
<path d="M45.5451 10.2863L25.9704 0.452857C25.389 0.129388 24.6783 0 24.0323 0C23.3863 0 22.6756 0.129388 22.0942 0.452857L0.387618 11.3214L0 11.5155V18.9553L1.03365 18.4377L23.9677 6.92224L40.6999 15.3324V26.0716L23.6447 34.6112L23.2571 34.8053V42.2451L24.2907 41.7275L45.5451 31.1177C47.031 30.3414 48 28.8534 48 27.1714V14.2326C48 12.5506 47.031 11.0626 45.5451 10.2863Z" fill="#C6C6C6"/>
</svg>
