<svg width="757" height="242" viewBox="0 0 757 242" fill="none" xmlns="http://www.w3.org/2000/svg">
<g clip-path="url(#clip0_3471_806)">
<g clip-path="url(#clip1_3471_806)">
<path d="M3.32621 37.3202L75.1853 1.65322C79.6778 -0.586848 84.9479 -0.543352 89.4188 1.74021L155.165 35.3194C160.738 38.1684 164.237 43.9099 164.237 50.1952V90.5816C164.237 97.715 160.241 104.261 153.934 107.502L88.2093 141.059C84.2567 143.082 79.5482 140.189 79.5482 135.709V123.4C79.5482 121.138 80.8225 119.05 82.8312 118.05L135.77 91.2122C137.778 90.1901 139.031 88.1458 139.053 85.8839L139.204 56.1977C139.204 53.9141 137.93 51.8263 135.921 50.8041L84.7751 25.0543C83.112 24.2061 81.1465 24.2061 79.4618 25.0543L8.5963 60.4386C4.64373 62.4177 0 59.5251 0 55.0668V42.692C0 40.4085 1.29593 38.3207 3.32621 37.3202Z" fill="url(#paint0_linear_3471_806)"/>
<path d="M79.505 59.1333L7.27878 95.605C2.82944 97.8668 0 102.456 0 107.48V194.407C0 199.192 2.65665 203.563 6.8684 205.76L75.2933 241.296C79.5914 243.514 84.6671 243.536 88.9869 241.34L156.829 206.608C161.386 204.281 164.237 199.561 164.237 194.429V130.25C164.237 124.313 158.038 120.441 152.746 123.073L84.7535 157.065C81.6865 158.61 79.7426 161.763 79.7426 165.199V176.226C79.7426 180.423 84.1271 183.141 87.8421 181.271L132.141 158.957C135.381 157.326 139.204 159.697 139.204 163.351V185.164C139.204 187.709 137.778 190.057 135.532 191.21L86.1358 216.59C83.6088 217.895 80.6065 217.895 78.0579 216.59L29.5687 191.841C26.7609 190.405 24.9682 187.491 24.9682 184.316V116.57C24.9682 114.352 26.1993 112.329 28.1648 111.329L81.1033 84.4047C83.0256 83.426 84.2351 81.4469 84.2135 79.2721L84.0839 61.9823C84.0839 59.6118 81.5785 58.0676 79.4618 59.1333H79.505Z" fill="url(#paint1_linear_3471_806)"/>
</g>
<path d="M275.374 105.778C274.709 103.778 274.044 102 272.937 100.444C271.829 98.8889 270.5 97.5556 269.17 96.4445C267.62 95.3334 265.847 94.4445 264.075 94C262.081 93.3334 260.087 93.1112 257.65 93.1112C253.22 93.1112 249.453 94.2223 246.13 96.4445C242.807 98.6667 240.149 101.778 238.376 106C236.604 110.222 235.718 115.111 235.718 121.111C235.718 127.111 236.604 132.222 238.376 136.222C240.149 140.222 242.807 143.556 246.13 145.778C249.453 148 253.441 149.111 257.872 149.111C261.86 149.111 265.404 148.444 268.284 146.889C271.164 145.333 273.38 143.333 274.93 140.667C276.481 138 277.146 134.889 277.146 131.111L280.912 131.556H258.98V118H294.647V128.889C294.647 136.444 293.097 142.889 289.995 148.222C286.894 153.556 282.463 157.778 276.924 160.667C271.386 163.556 264.961 165.111 257.872 165.111C249.897 165.111 242.807 163.333 236.826 159.778C230.844 156.222 225.97 151.111 222.647 144.667C219.324 138 217.552 130.222 217.552 121.333C217.552 114.444 218.438 108.222 220.653 102.667C222.869 97.1112 225.527 92.6667 229.072 88.8889C232.616 85.1112 237.047 82.2223 241.7 80.2223C246.352 78.2223 251.89 77.3334 257.429 77.3334C262.303 77.3334 266.734 78 270.943 79.5556C275.152 81.1112 278.918 82.8889 282.02 85.5556C285.343 88.2223 288.001 91.1112 289.995 94.6667C291.989 98.2223 293.318 102 293.983 106.222L275.374 105.778Z" fill="#1D1D1B"/>
<path d="M336.74 165.111C330.315 165.111 324.777 163.778 319.903 160.889C315.029 158 311.484 154.222 309.047 149.333C306.389 144.444 305.281 138.667 305.281 132C305.281 125.333 306.61 119.556 309.047 114.667C311.484 109.778 315.25 105.778 319.903 103.111C324.555 100.444 330.094 98.8889 336.74 98.8889C343.386 98.8889 348.703 100.222 353.577 103.111C358.451 106 361.995 109.778 364.432 114.667C366.869 119.556 368.198 125.556 368.198 132C368.198 138.444 366.869 144.444 364.432 149.333C361.774 154.222 358.229 158.222 353.577 160.889C348.703 163.778 343.164 165.111 336.74 165.111ZM336.74 151.333C339.62 151.333 342.057 150.444 344.051 148.889C346.044 147.333 347.595 144.889 348.481 142C349.589 139.111 350.032 135.778 350.032 132C350.032 128.222 349.589 124.889 348.481 122C347.374 119.111 346.044 116.667 344.051 115.111C342.057 113.333 339.62 112.444 336.74 112.444C333.86 112.444 331.201 113.333 329.207 115.111C327.214 116.889 325.663 119.111 324.555 122C323.447 124.889 323.004 128.222 323.004 132C323.004 135.778 323.447 139.111 324.555 142C325.663 144.889 326.992 147.333 329.207 148.889C331.423 150.444 333.86 151.333 336.74 151.333Z" fill="#1D1D1B"/>
<path d="M397.663 78.2222V164H379.94V78.2222H397.663Z" fill="#1D1D1B"/>
<path d="M435.546 164.889C430.673 164.889 426.242 163.555 422.254 161.111C418.266 158.667 415.165 154.889 412.949 150C410.734 145.111 409.405 139.111 409.405 131.778C409.405 124.444 410.512 118.222 412.949 113.333C415.386 108.444 418.488 104.889 422.476 102.222C426.463 99.7777 430.673 98.4444 435.546 98.4444C439.091 98.4444 442.193 99.111 444.63 100.222C447.066 101.333 449.06 102.889 450.39 104.667C451.94 106.444 453.048 108.222 453.713 110H454.156V78.2222H471.879V164H454.377V153.778H453.713C452.826 155.555 451.719 157.333 450.168 159.111C448.617 160.889 446.623 162.222 444.408 163.333C441.75 164.222 438.87 164.889 435.546 164.889ZM441.085 150.667C443.965 150.667 446.402 150 448.396 148.222C450.39 146.444 451.94 144.444 453.048 141.555C454.156 138.667 454.599 135.333 454.599 131.555C454.599 127.778 454.156 124.444 453.048 121.556C451.94 118.667 450.39 116.667 448.396 115.111C446.402 113.555 443.965 112.889 441.085 112.889C438.205 112.889 435.768 113.778 433.774 115.333C431.78 116.889 430.229 119.111 429.122 122C428.014 124.889 427.571 128 427.571 131.778C427.571 135.555 428.014 138.889 429.122 141.778C430.229 144.667 431.78 146.889 433.774 148.444C435.768 150 438.205 150.667 441.085 150.667Z" fill="#1D1D1B"/>
<path d="M544.322 163.778H513.971V78.2222H544.544C553.184 78.2222 560.495 79.9999 566.698 83.3333C572.901 86.6666 577.775 91.7777 581.098 97.9999C584.421 104.222 586.193 112 586.193 120.889C586.193 129.778 584.421 137.556 581.098 144C577.775 150.444 572.901 155.333 566.698 158.889C560.495 162.444 552.962 163.778 544.322 163.778ZM532.138 148.444H543.658C548.974 148.444 553.405 147.556 557.171 145.556C560.716 143.778 563.596 140.667 565.368 136.667C567.141 132.667 568.248 127.333 568.248 121.111C568.248 114.889 567.362 109.556 565.59 105.556C563.818 101.556 560.938 98.6666 557.393 96.6666C553.848 94.6666 549.196 93.7777 543.879 93.7777H532.359V148.444H532.138Z" fill="#1D1D1B"/>
<path d="M609.455 163.778H590.181L619.646 78H642.907L672.372 163.778H653.098L631.609 97.7778H630.944L609.455 163.778ZM608.126 130.222H653.763V144.444H608.126C608.126 144.222 608.126 130.222 608.126 130.222Z" fill="#1D1D1B"/>
<path d="M757 120.889C757 130.222 755.228 138.222 751.683 144.667C748.138 151.111 743.265 156.222 737.283 159.778C731.301 163.333 724.434 164.889 716.901 164.889C709.369 164.889 702.501 163.111 696.52 159.778C690.538 156.222 685.664 151.333 682.12 144.667C678.575 138 676.803 130.222 676.803 120.889C676.803 111.556 678.575 103.556 682.12 97.1111C685.664 90.4445 690.317 85.5556 696.52 82C702.723 78.4445 709.369 76.8889 716.901 76.8889C724.434 76.8889 731.301 78.6667 737.283 82C743.265 85.3334 748.138 90.4445 751.683 97.1111C755.228 103.778 757 111.556 757 120.889ZM738.834 120.889C738.834 114.889 737.948 109.778 736.175 105.556C734.403 101.333 731.744 98.2222 728.643 96C725.541 93.7778 721.554 92.6667 717.123 92.6667C712.692 92.6667 708.926 93.7778 705.603 96C702.28 98.2222 699.843 101.333 698.071 105.556C696.298 109.778 695.412 114.889 695.412 120.889C695.412 126.889 696.298 132 698.071 136.222C699.843 140.444 702.501 143.556 705.603 145.778C708.704 148 712.692 148.889 717.123 148.889C721.554 148.889 725.32 147.778 728.643 145.778C731.966 143.778 734.403 140.444 736.175 136.222C737.948 132 738.834 127.111 738.834 120.889Z" fill="#1D1D1B"/>
</g>
<defs>
<linearGradient id="paint0_linear_3471_806" x1="-125.575" y1="278.442" x2="257.597" y2="-102.075" gradientUnits="userSpaceOnUse">
<stop/>
<stop offset="0.06" stop-color="#232323"/>
<stop offset="0.1" stop-color="#4F4F4F"/>
<stop offset="0.16" stop-color="#939393"/>
<stop offset="0.19" stop-color="#AEAEAE"/>
<stop offset="0.24" stop-color="#A4A4A4"/>
<stop offset="0.34" stop-color="#898989"/>
<stop offset="0.35" stop-color="#878787"/>
<stop offset="0.36" stop-color="#7B7B7B"/>
<stop offset="0.42" stop-color="#454545"/>
<stop offset="0.44" stop-color="#303030"/>
<stop offset="0.46" stop-color="#3F3F3F"/>
<stop offset="0.49" stop-color="#686868"/>
<stop offset="0.53" stop-color="#B0B0B0"/>
<stop offset="0.65" stop-color="#AFAFAF"/>
<stop offset="0.67" stop-color="#B6B6B6"/>
<stop offset="0.7" stop-color="#C9C9C9"/>
<stop offset="0.74" stop-color="#E9E9E9"/>
<stop offset="0.75" stop-color="#EDEDED"/>
<stop offset="0.83" stop-color="#EEEEEE"/>
<stop offset="0.86" stop-color="#C9C9C9"/>
<stop offset="0.9" stop-color="#939393"/>
<stop offset="0.93" stop-color="#7E7E7E"/>
</linearGradient>
<linearGradient id="paint1_linear_3471_806" x1="-81.3409" y1="315.588" x2="288.239" y2="-51.4525" gradientUnits="userSpaceOnUse">
<stop stop-color="#5E4C14"/>
<stop offset="0.06" stop-color="#7C6517"/>
<stop offset="0.19" stop-color="#BF9D43"/>
<stop offset="0.26" stop-color="#DAB355"/>
<stop offset="0.28" stop-color="#D0AA4E"/>
<stop offset="0.31" stop-color="#B5933E"/>
<stop offset="0.34" stop-color="#9E7F30"/>
<stop offset="0.42" stop-color="#72561A"/>
<stop offset="0.46" stop-color="#5D4310"/>
<stop offset="0.49" stop-color="#6C4F14"/>
<stop offset="0.55" stop-color="#95711E"/>
<stop offset="0.59" stop-color="#B28926"/>
<stop offset="0.62" stop-color="#BF9734"/>
<stop offset="0.65" stop-color="#C59E3B"/>
<stop offset="0.66" stop-color="#C8A342"/>
<stop offset="0.69" stop-color="#D2B455"/>
<stop offset="0.71" stop-color="#E3CF75"/>
<stop offset="0.73" stop-color="#F7F09C"/>
<stop offset="0.78" stop-color="#F8F19F"/>
<stop offset="0.82" stop-color="#E5D37E"/>
<stop offset="0.89" stop-color="#C6A348"/>
<stop offset="0.93" stop-color="#BB9133"/>
</linearGradient>
<clipPath id="clip0_3471_806">
<rect width="757" height="242" fill="white"/>
</clipPath>
<clipPath id="clip1_3471_806">
<rect width="164.237" height="242.949" fill="white"/>
</clipPath>
</defs>
</svg>
