<?xml version="1.0" encoding="UTF-8"?><svg id="Calque_2" xmlns="http://www.w3.org/2000/svg" xmlns:xlink="http://www.w3.org/1999/xlink" viewBox="0 0 934.21 934.21"><defs><style>.cls-1{fill:#fff;}.cls-2{fill:url(#Dégradé_sans_nom);}.cls-3{fill:url(#Dégradé_sans_nom_22);}</style><linearGradient id="Dégradé_sans_nom" x1="0" y1="467.11" x2="934.21" y2="467.11" gradientUnits="userSpaceOnUse"><stop offset="0" stop-color="#000"/><stop offset="1" stop-color="#000"/></linearGradient><linearGradient id="Dégradé_sans_nom_22" x1="847.4" y1="-229.94" x2="847.4" y2="330.77" gradientTransform="translate(-208.71 482.55) rotate(-13.06) scale(1.03 1.42)" gradientUnits="userSpaceOnUse"><stop offset="0" stop-color="#838383"/><stop offset="1" stop-color="#ededed"/></linearGradient></defs><g id="katman_1"><circle class="cls-2" cx="467.11" cy="467.11" r="467.11"/><path class="cls-1" d="M114.66,467.05c0,193.98,157.24,351.22,351.11,351.22s351.22-157.24,351.22-351.11S659.76,115.94,465.77,115.94,114.66,273.07,114.66,467.05ZM270.69,467.05c0-107.7,87.39-195.09,195.09-195.09s195.09,87.39,195.09,195.09-87.39,195.09-195.09,195.09-195.09-87.39-195.09-195.09Z"/><path class="cls-3" d="M668.92,180.82c159.78,110.67,198.62,328.49,86.73,486.62-23.61,33.43-52.96,62.45-86.73,85.85l-90.59-128.11c88.27-61.13,109.68-181.52,47.89-268.8-13.02-18.43-29.24-34.54-47.89-47.45l90.59-128.11Z"/></g></svg>