<?xml version="1.0" encoding="UTF-8"?>
<!DOCTYPE svg PUBLIC "-//W3C//DTD SVG 1.1//EN" "http://www.w3.org/Graphics/SVG/1.1/DTD/svg11.dtd">
<svg xmlns="http://www.w3.org/2000/svg" version="1.1" width="31px" height="33px" style="shape-rendering:geometricPrecision; text-rendering:geometricPrecision; image-rendering:optimizeQuality; fill-rule:evenodd; clip-rule:evenodd" xmlns:xlink="http://www.w3.org/1999/xlink">
<g><path style="opacity:0.235" fill="#fceabe" d="M 20.5,6.5 C 19.5,6.5 18.5,6.5 17.5,6.5C 16.8333,6.5 16.1667,6.5 15.5,6.5C 13.5,6.5 11.5,6.5 9.5,6.5C 8.16667,6.5 6.83333,6.5 5.5,6.5C 4.59603,7.20895 4.26269,8.20895 4.5,9.5C 3.19914,8.11552 3.19914,6.61552 4.5,5C 10.0627,4.37928 15.396,4.87928 20.5,6.5 Z"/></g>
<g><path style="opacity:1" fill="#e5ca3d" d="M 5.5,6.5 C 6.83333,6.5 8.16667,6.5 9.5,6.5C 9.5,6.83333 9.5,7.16667 9.5,7.5C 8.83333,7.5 8.5,7.83333 8.5,8.5C 6.82124,8.71481 5.82124,8.04814 5.5,6.5 Z"/></g>
<g><path style="opacity:1" fill="#e3aa3f" d="M 9.5,7.5 C 9.5,7.16667 9.5,6.83333 9.5,6.5C 11.5,6.5 13.5,6.5 15.5,6.5C 15.1667,7.16667 14.8333,7.83333 14.5,8.5C 12.7839,8.37133 11.1172,8.038 9.5,7.5 Z"/></g>
<g><path style="opacity:1" fill="#d57f3a" d="M 15.5,6.5 C 16.1667,6.5 16.8333,6.5 17.5,6.5C 16.1667,7.5 16.1667,8.5 17.5,9.5C 16.5,9.5 15.5,9.5 14.5,9.5C 14.5,9.16667 14.5,8.83333 14.5,8.5C 14.8333,7.83333 15.1667,7.16667 15.5,6.5 Z"/></g>
<g><path style="opacity:1" fill="#e0cc54" d="M 5.5,6.5 C 5.82124,8.04814 6.82124,8.71481 8.5,8.5C 8.5,8.83333 8.5,9.16667 8.5,9.5C 7.16667,9.5 5.83333,9.5 4.5,9.5C 4.26269,8.20895 4.59603,7.20895 5.5,6.5 Z"/></g>
<g><path style="opacity:1" fill="#e4b03b" d="M 9.5,7.5 C 11.1172,8.038 12.7839,8.37133 14.5,8.5C 14.5,8.83333 14.5,9.16667 14.5,9.5C 13.8333,9.5 13.1667,9.5 12.5,9.5C 11.1667,9.5 9.83333,9.5 8.5,9.5C 8.5,9.16667 8.5,8.83333 8.5,8.5C 8.5,7.83333 8.83333,7.5 9.5,7.5 Z"/></g>
<g><path style="opacity:0.678" fill="#c74232" d="M 17.5,6.5 C 18.5,6.5 19.5,6.5 20.5,6.5C 21.4916,6.32842 22.1583,6.66175 22.5,7.5C 22.5,8.83333 21.8333,9.5 20.5,9.5C 19.5,9.5 18.5,9.5 17.5,9.5C 16.1667,8.5 16.1667,7.5 17.5,6.5 Z"/></g>
<g><path style="opacity:1" fill="#aa293b" d="M 22.5,7.5 C 23.4345,8.56764 23.7678,9.90097 23.5,11.5C 22.391,11.4431 21.391,11.1098 20.5,10.5C 20.5,10.1667 20.5,9.83333 20.5,9.5C 21.8333,9.5 22.5,8.83333 22.5,7.5 Z"/></g>
<g><path style="opacity:1" fill="#1f5c3a" d="M 5.5,11.5 C 7.17876,11.2852 8.17876,11.9519 8.5,13.5C 7.5,13.5 6.5,13.5 5.5,13.5C 5.5,12.8333 5.5,12.1667 5.5,11.5 Z"/></g>
<g><path style="opacity:0.384" fill="#b3c9ab" d="M 4.5,9.5 C 5.83333,9.5 7.16667,9.5 8.5,9.5C 9.83333,9.5 11.1667,9.5 12.5,9.5C 11.791,10.404 10.791,10.7373 9.5,10.5C 9.5,11.5 9.5,12.5 9.5,13.5C 9.16667,13.5 8.83333,13.5 8.5,13.5C 8.17876,11.9519 7.17876,11.2852 5.5,11.5C 5.16667,10.8333 4.83333,10.1667 4.5,9.5 Z"/></g>
<g><path style="opacity:1" fill="#782d4d" d="M 20.5,10.5 C 21.391,11.1098 22.391,11.4431 23.5,11.5C 23.5,12.1667 23.5,12.8333 23.5,13.5C 22.8333,13.5 22.1667,13.5 21.5,13.5C 21.1667,13.5 20.8333,13.5 20.5,13.5C 20.5,12.5 20.5,11.5 20.5,10.5 Z"/></g>
<g><path style="opacity:0.635" fill="#3c884a" d="M 5.5,13.5 C 6.5,13.5 7.5,13.5 8.5,13.5C 8.5,13.8333 8.5,14.1667 8.5,14.5C 7.16667,14.5 6.5,15.1667 6.5,16.5C 6.5,16.8333 6.5,17.1667 6.5,17.5C 6.16667,17.5 5.83333,17.5 5.5,17.5C 5.5,16.1667 5.5,14.8333 5.5,13.5 Z"/></g>
<g><path style="opacity:0.765" fill="#379743" d="M 8.5,14.5 C 8.5,15.1667 8.5,15.8333 8.5,16.5C 7.83333,16.5 7.16667,16.5 6.5,16.5C 6.5,15.1667 7.16667,14.5 8.5,14.5 Z"/></g>
<g><path style="opacity:1" fill="#7b3375" d="M 21.5,13.5 C 22.1667,13.5 22.8333,13.5 23.5,13.5C 23.5,14.8333 23.5,16.1667 23.5,17.5C 22.8333,17.5 22.1667,17.5 21.5,17.5C 21.5,16.1667 21.5,14.8333 21.5,13.5 Z"/></g>
<g><path style="opacity:0.608" fill="#58a34c" d="M 6.5,16.5 C 7.16667,16.5 7.83333,16.5 8.5,16.5C 8.28927,18.4241 7.6226,18.7574 6.5,17.5C 6.5,17.1667 6.5,16.8333 6.5,16.5 Z"/></g>
<g><path style="opacity:0.945" fill="#783a7c" d="M 21.5,17.5 C 22.1667,17.5 22.8333,17.5 23.5,17.5C 23.5,18.1667 23.5,18.8333 23.5,19.5C 22.1667,19.5 21.5,18.8333 21.5,17.5 Z"/></g>
<g><path style="opacity:0.541" fill="#76ac70" d="M 8.5,13.5 C 8.83333,13.5 9.16667,13.5 9.5,13.5C 9.59868,16.2372 9.26535,18.9039 8.5,21.5C 7.39105,21.4431 6.39105,21.1098 5.5,20.5C 5.5,19.5 5.5,18.5 5.5,17.5C 5.83333,17.5 6.16667,17.5 6.5,17.5C 7.6226,18.7574 8.28927,18.4241 8.5,16.5C 8.5,15.8333 8.5,15.1667 8.5,14.5C 8.5,14.1667 8.5,13.8333 8.5,13.5 Z"/></g>
<g><path style="opacity:0.369" fill="#f1f6ff" d="M 20.5,17.5 C 20.5,18.8333 20.5,20.1667 20.5,21.5C 17.8333,21.5 15.1667,21.5 12.5,21.5C 14.6074,20.5318 16.9407,20.1984 19.5,20.5C 19.2627,19.209 19.596,18.209 20.5,17.5 Z"/></g>
<g><path style="opacity:1" fill="#774a7c" d="M 20.5,13.5 C 20.8333,13.5 21.1667,13.5 21.5,13.5C 21.5,14.8333 21.5,16.1667 21.5,17.5C 21.5,18.8333 22.1667,19.5 23.5,19.5C 23.5,20.1667 23.5,20.8333 23.5,21.5C 22.5,21.5 21.5,21.5 20.5,21.5C 20.5,20.1667 20.5,18.8333 20.5,17.5C 20.5,16.1667 20.5,14.8333 20.5,13.5 Z"/></g>
<g><path style="opacity:0.369" fill="#ccb2ca" d="M 23.5,22.5 C 23.5,22.1667 23.5,21.8333 23.5,21.5C 23.5,20.8333 23.5,20.1667 23.5,19.5C 23.5,18.8333 23.5,18.1667 23.5,17.5C 23.5,16.1667 23.5,14.8333 23.5,13.5C 24.2216,13.0825 24.7216,12.4158 25,11.5C 25.7451,15.4479 25.2451,19.1145 23.5,22.5 Z"/></g>
<g><path style="opacity:0.757" fill="#334b47" d="M 5.5,20.5 C 6.39105,21.1098 7.39105,21.4431 8.5,21.5C 8.83333,21.5 9.16667,21.5 9.5,21.5C 9.5,21.8333 9.5,22.1667 9.5,22.5C 8.20895,22.2627 7.20895,22.596 6.5,23.5C 5.59603,22.791 5.26269,21.791 5.5,20.5 Z"/></g>
<g><path style="opacity:1" fill="#2b3b6e" d="M 9.5,22.5 C 10.1667,22.5 10.8333,22.5 11.5,22.5C 11.5,23.1667 11.5,23.8333 11.5,24.5C 10.8333,24.5 10.1667,24.5 9.5,24.5C 9.5,23.8333 9.5,23.1667 9.5,22.5 Z"/></g>
<g><path style="opacity:1" fill="#414470" d="M 20.5,21.5 C 21.5,21.5 22.5,21.5 23.5,21.5C 23.5,21.8333 23.5,22.1667 23.5,22.5C 23.5,23.1667 23.5,23.8333 23.5,24.5C 23.1667,24.5 22.8333,24.5 22.5,24.5C 21.5084,24.6716 20.8417,24.3382 20.5,23.5C 20.5,22.8333 20.5,22.1667 20.5,21.5 Z"/></g>
<g><path style="opacity:1" fill="#20334e" d="M 9.5,22.5 C 9.5,23.1667 9.5,23.8333 9.5,24.5C 8.83333,24.5 8.16667,24.5 7.5,24.5C 7.16667,24.5 6.83333,24.5 6.5,24.5C 6.5,24.1667 6.5,23.8333 6.5,23.5C 7.20895,22.596 8.20895,22.2627 9.5,22.5 Z"/></g>
<g><path style="opacity:1" fill="#234376" d="M 11.5,22.5 C 12.1667,22.5 12.8333,22.5 13.5,22.5C 13.5,23.1667 13.5,23.8333 13.5,24.5C 12.8333,24.5 12.1667,24.5 11.5,24.5C 11.5,23.8333 11.5,23.1667 11.5,22.5 Z"/></g>
<g><path style="opacity:1" fill="#285393" d="M 13.5,22.5 C 14.1667,22.5 14.8333,22.5 15.5,22.5C 15.5,23.8333 14.8333,24.5 13.5,24.5C 13.5,23.8333 13.5,23.1667 13.5,22.5 Z"/></g>
<g><path style="opacity:1" fill="#3569a0" d="M 15.5,22.5 C 17.7957,22.8041 18.129,23.8041 16.5,25.5C 13.2869,25.81 10.2869,25.4767 7.5,24.5C 8.16667,24.5 8.83333,24.5 9.5,24.5C 10.1667,24.5 10.8333,24.5 11.5,24.5C 12.1667,24.5 12.8333,24.5 13.5,24.5C 14.8333,24.5 15.5,23.8333 15.5,22.5 Z"/></g>
<g><path style="opacity:1" fill="#5990bc" d="M 9.5,22.5 C 9.5,22.1667 9.5,21.8333 9.5,21.5C 10.5,21.5 11.5,21.5 12.5,21.5C 15.1667,21.5 17.8333,21.5 20.5,21.5C 20.5,22.1667 20.5,22.8333 20.5,23.5C 19.6618,23.8417 19.3284,24.5084 19.5,25.5C 18.5,25.5 17.5,25.5 16.5,25.5C 18.129,23.8041 17.7957,22.8041 15.5,22.5C 14.8333,22.5 14.1667,22.5 13.5,22.5C 12.8333,22.5 12.1667,22.5 11.5,22.5C 10.8333,22.5 10.1667,22.5 9.5,22.5 Z"/></g>
<g><path style="opacity:1" fill="#4a6489" d="M 20.5,23.5 C 20.8417,24.3382 21.5084,24.6716 22.5,24.5C 22.1583,25.3382 21.4916,25.6716 20.5,25.5C 20.1667,25.5 19.8333,25.5 19.5,25.5C 19.3284,24.5084 19.6618,23.8417 20.5,23.5 Z"/></g>
<g><path style="opacity:0.463" fill="#edf3fd" d="M 6.5,24.5 C 6.83333,24.5 7.16667,24.5 7.5,24.5C 10.2869,25.4767 13.2869,25.81 16.5,25.5C 17.5,25.5 18.5,25.5 19.5,25.5C 19.8333,25.5 20.1667,25.5 20.5,25.5C 20.5,25.8333 20.5,26.1667 20.5,26.5C 15.3814,27.1031 10.7147,26.4364 6.5,24.5 Z"/></g>
<g><path style="opacity:0.078" fill="#faf3fe" d="M 22.5,24.5 C 22.8333,24.5 23.1667,24.5 23.5,24.5C 23.1788,26.0481 22.1788,26.7148 20.5,26.5C 20.5,26.1667 20.5,25.8333 20.5,25.5C 21.4916,25.6716 22.1583,25.3382 22.5,24.5 Z"/></g>
</svg>
