<svg width="20" height="26" viewBox="0 0 20 26" fill="none" xmlns="http://www.w3.org/2000/svg">
<path d="M3.88492 12.9998L1.48001 16.2063C0.787057 17.1303 0.850441 18.4167 1.63084 19.2681L6.17152 24.2216C6.62609 24.7174 7.26688 24.9998 7.9396 24.9998C9.24304 24.9998 11.3747 24.9998 13.4849 24.9998C16.3649 24.9998 18.2849 22.5998 18.2849 20.1998C18.2849 20.1998 18.2849 11.9712 18.2849 9.91406" stroke="#D3B871" stroke-width="2" stroke-linecap="round" stroke-linejoin="round"/>
<path d="M14.6848 10.5998C14.6848 10.5998 14.6848 10.4497 14.6848 9.91408C14.6848 7.17122 18.2848 7.17122 18.2848 9.91408" stroke="#D3B871" stroke-width="2" stroke-linecap="round" stroke-linejoin="round"/>
<path d="M11.085 10.6001C11.085 10.6001 11.085 9.61413 11.085 8.54299C11.085 5.80012 14.685 5.80012 14.685 8.54299C14.685 8.81077 14.685 9.64663 14.685 9.91441C14.685 10.45 14.685 10.6001 14.685 10.6001" stroke="#D3B871" stroke-width="2" stroke-linecap="round" stroke-linejoin="round"/>
<path d="M7.48474 10.6002C7.48474 10.6002 7.48474 8.93906 7.48474 7.60011C7.48474 4.85726 11.0847 4.85726 11.0847 7.60011C11.0847 7.60011 11.0847 8.27518 11.0847 8.54297C11.0847 9.61412 11.0847 10.6002 11.0847 10.6002" stroke="#D3B871" stroke-width="2" stroke-linecap="round" stroke-linejoin="round"/>
<path d="M7.48477 10.6C7.48477 10.6 7.48477 8.93894 7.48477 7.6C7.48477 6.20987 7.48477 4.22762 7.48477 2.79879C7.48477 1.80467 6.67888 1 5.68477 1C4.69065 1 3.88477 1.80588 3.88477 2.8V13V16.6" stroke="#D3B871" stroke-width="2" stroke-linecap="round" stroke-linejoin="round"/>
</svg>
