<svg width="28" height="27" viewBox="0 0 28 27" fill="none" xmlns="http://www.w3.org/2000/svg">
<path d="M24.1111 25.2021H3.88889C2.2934 25.2021 1 23.9087 1 22.3132V9.31321C1 7.71772 2.2934 6.42432 3.88889 6.42432H24.1111C25.7066 6.42432 27 7.71772 27 9.31321V22.3132C27 23.9087 25.7066 25.2021 24.1111 25.2021Z" stroke="black" stroke-width="2"/>
<path d="M20.5001 16.5354C20.1012 16.5354 19.7778 16.212 19.7778 15.8132C19.7778 15.4144 20.1012 15.0909 20.5001 15.0909C20.8989 15.0909 21.2223 15.4144 21.2223 15.8132C21.2223 16.212 20.8989 16.5354 20.5001 16.5354Z" fill="black" stroke="black" stroke-width="2" stroke-linecap="round" stroke-linejoin="round"/>
<path d="M22.6667 6.42433V4.40676C22.6667 2.50867 20.8675 1.12636 19.0335 1.61542L3.14452 5.85246C1.87991 6.1897 1 7.335 1 8.64381V9.31322" stroke="black" stroke-width="2"/>
</svg>
