<?xml version="1.0" standalone="no"?>
<!DOCTYPE svg PUBLIC "-//W3C//DTD SVG 20010904//EN"
 "http://www.w3.org/TR/2001/REC-SVG-20010904/DTD/svg10.dtd">
<svg version="1.0" xmlns="http://www.w3.org/2000/svg"
 width="700.000000pt" height="700.000000pt" viewBox="0 0 700.000000 700.000000"
 preserveAspectRatio="xMidYMid meet">
<metadata>
Created by potrace 1.14, written by Peter Selinger 2001-2017
</metadata>
<g transform="translate(0.000000,700.000000) scale(0.100000,-0.100000)"
fill="#000000" stroke="none">
<path d="M3269 6996 c-2 -2 -41 -7 -85 -10 -45 -4 -93 -9 -105 -11 -13 -2 -40
-6 -59 -9 -19 -2 -57 -8 -85 -12 -49 -6 -62 -9 -107 -19 -13 -3 -36 -8 -53
-11 -16 -3 -55 -11 -85 -18 -30 -8 -62 -14 -70 -14 -8 -1 -40 -8 -70 -17 -30
-8 -66 -17 -80 -19 -44 -6 -80 -18 -80 -26 0 -5 -21 -16 -47 -26 -476 -175
-840 -392 -1192 -709 -338 -305 -634 -705 -819 -1107 -152 -331 -238 -616
-297 -989 -7 -41 -11 -79 -22 -199 -10 -108 -10 -535 0 -615 4 -33 10 -78 13
-100 10 -82 12 -101 19 -150 3 -27 10 -66 15 -85 5 -19 12 -48 14 -65 29 -161
96 -385 176 -586 78 -195 284 -586 346 -657 8 -9 51 -66 96 -127 147 -199 358
-427 528 -569 47 -39 87 -73 90 -77 17 -19 273 -199 332 -234 9 -5 50 -30 90
-55 172 -105 471 -239 688 -308 177 -56 283 -84 420 -108 169 -30 251 -41 366
-51 121 -10 491 -10 589 0 156 16 170 17 195 22 14 3 41 7 60 10 371 57 746
183 1087 364 128 68 297 167 315 184 7 7 45 35 83 62 144 101 253 194 410 345
127 123 159 158 273 299 326 405 547 847 677 1356 18 72 36 150 40 175 3 25 8
52 10 60 2 8 7 35 10 60 3 25 8 52 10 60 2 8 7 51 11 95 3 44 8 84 11 88 3 5
6 122 8 260 3 311 -16 511 -79 807 -19 90 -29 128 -37 150 -5 14 -12 52 -14
84 -5 68 -31 153 -50 163 -7 5 -34 62 -60 128 -45 115 -145 325 -215 450 -44
80 -141 239 -150 245 -3 3 -45 57 -93 120 -47 63 -98 129 -112 145 -147 170
-317 342 -417 421 -40 32 -75 61 -78 64 -3 4 -48 38 -100 77 -236 174 -455
300 -716 411 -179 77 -479 175 -614 202 -30 5 -66 13 -80 15 -50 10 -79 15
-116 20 -22 3 -50 7 -64 10 -13 2 -52 7 -86 11 -33 3 -74 7 -90 10 -37 6 -549
15 -555 10z"/>
</g>
</svg>
