<svg width="40" height="40" viewBox="0 0 40 40" fill="none" xmlns="http://www.w3.org/2000/svg">
<path fill-rule="evenodd" clip-rule="evenodd" d="M11.3333 4.3L32.8167 15.1833C36 16.8 36.4667 19 36.4667 20.1333C36.4667 21.2667 36 23.3333 32.8167 25L11.3333 35.85C10.4276 36.3257 9.42294 36.5825 8.40001 36.6C7.53167 36.6125 6.67718 36.3815 5.93335 35.9333C4.30093 34.8122 3.38703 32.9083 3.53335 30.9333V9.3C3.38004 7.32377 4.29553 5.41649 5.93335 4.3C7.60772 3.34892 9.65898 3.34892 11.3333 4.3ZM9.83335 32.8333L31.3 21.95C32.4333 21.3667 33.1333 20.6333 33.1333 20.05C33.1333 19.4667 32.4333 18.7333 31.3 18.1667L9.76668 7.28333C9.3265 7.04037 8.83572 6.90341 8.33335 6.88333C8.09959 6.88979 7.87087 6.95269 7.66668 7.06666C7.06603 7.58913 6.76589 8.37699 6.86668 9.16666V30.9333C6.76589 31.723 7.06603 32.5109 7.66668 33.0333C8.37676 33.3341 9.19032 33.259 9.83335 32.8333Z" fill="#231F20"/>
<path d="M32.8167 15.1833L33.0431 14.7375L33.0426 14.7373L32.8167 15.1833ZM11.3333 4.3L11.0864 4.73476L11.0968 4.74064L11.1074 4.74603L11.3333 4.3ZM32.8167 25L33.0421 25.4464L33.0486 25.443L32.8167 25ZM11.3333 35.85L11.1079 35.4036L11.1009 35.4073L11.3333 35.85ZM8.40001 36.6L8.4072 37.0999L8.40855 37.0999L8.40001 36.6ZM5.93335 35.9333L5.65028 36.3455L5.66255 36.3539L5.67529 36.3616L5.93335 35.9333ZM3.53335 30.9333L4.03198 30.9703L4.03335 30.9518V30.9333H3.53335ZM3.53335 9.3H4.03335V9.28063L4.03185 9.26133L3.53335 9.3ZM5.93335 4.3L5.68639 3.86524L5.66861 3.87534L5.65171 3.88686L5.93335 4.3ZM31.3 21.95L31.5261 22.396L31.5288 22.3946L31.3 21.95ZM9.83335 32.8333L9.60725 32.3874L9.58146 32.4004L9.55735 32.4164L9.83335 32.8333ZM31.3 18.1667L31.0745 18.6129L31.0764 18.6139L31.3 18.1667ZM9.76668 7.28333L9.52506 7.72108L9.53302 7.72547L9.54114 7.72957L9.76668 7.28333ZM8.33335 6.88333L8.35331 6.38373L8.33643 6.38306L8.31953 6.38352L8.33335 6.88333ZM7.66668 7.06666L7.42298 6.63007L7.37768 6.65536L7.33853 6.68941L7.66668 7.06666ZM6.86668 9.16666H7.36668V9.13488L7.36266 9.10336L6.86668 9.16666ZM6.86668 30.9333L7.36266 30.9966L7.36668 30.9651V30.9333H6.86668ZM7.66668 33.0333L7.33853 33.4106L7.39849 33.4627L7.47166 33.4937L7.66668 33.0333ZM33.0426 14.7373L11.5593 3.85397L11.1074 4.74603L32.5907 15.6294L33.0426 14.7373ZM36.9667 20.1333C36.9667 19.4982 36.8357 18.5748 36.2687 17.5901C35.7002 16.6027 34.711 15.5846 33.0431 14.7375L32.5903 15.6291C34.1057 16.3988 34.9415 17.289 35.4021 18.0891C35.8644 18.8919 35.9667 19.6351 35.9667 20.1333H36.9667ZM33.0486 25.443C34.7085 24.5739 35.696 23.5808 36.2654 22.6219C36.8346 21.6632 36.9667 20.7709 36.9667 20.1333H35.9667C35.9667 20.6291 35.8654 21.3368 35.4055 22.1114C34.9457 22.8858 34.1082 23.7594 32.5848 24.557L33.0486 25.443ZM11.5588 36.2963L33.0421 25.4463L32.5913 24.5537L11.1079 35.4037L11.5588 36.2963ZM8.40855 37.0999C9.50957 37.0811 10.5909 36.8046 11.5658 36.2927L11.1009 35.4073C10.2642 35.8467 9.33631 36.0839 8.39147 36.1001L8.40855 37.0999ZM5.67529 36.3616C6.49911 36.858 7.44548 37.1138 8.4072 37.0999L8.39283 36.1001C7.61786 36.1112 6.85525 35.9051 6.1914 35.5051L5.67529 36.3616ZM3.03471 30.8964C2.87525 33.0487 3.87124 35.1237 5.65028 36.3455L6.21641 35.5212C4.73062 34.5008 3.8988 32.7678 4.03198 30.9703L3.03471 30.8964ZM3.03335 9.3V30.9333H4.03335V9.3H3.03335ZM5.65171 3.88686C3.8659 5.10425 2.86769 7.18386 3.03484 9.33867L4.03185 9.26133C3.8924 7.46367 4.72516 5.72874 6.21498 4.71313L5.65171 3.88686ZM11.5803 3.86524C9.75278 2.82718 7.51391 2.82718 5.68639 3.86524L6.1803 4.73476C7.70152 3.87067 9.56517 3.87067 11.0864 4.73476L11.5803 3.86524ZM31.0739 21.504L9.60725 32.3874L10.0594 33.2793L31.5261 22.396L31.0739 21.504ZM32.6333 20.05C32.6333 20.151 32.5627 20.3609 32.2813 20.6534C32.0125 20.9328 31.6032 21.2316 31.0712 21.5054L31.5288 22.3946C32.1302 22.085 32.6375 21.7256 33.002 21.3466C33.354 20.9808 33.6333 20.5324 33.6333 20.05H32.6333ZM31.0764 18.6139C31.6066 18.879 32.0146 19.1732 32.2825 19.4499C32.5628 19.7394 32.6333 19.9492 32.6333 20.05H33.6333C33.6333 19.5675 33.3539 19.1189 33.0009 18.7543C32.6354 18.3768 32.1268 18.021 31.5236 17.7195L31.0764 18.6139ZM9.54114 7.72957L31.0745 18.6129L31.5256 17.7204L9.99222 6.83709L9.54114 7.72957ZM8.31338 7.38293C8.73807 7.39991 9.15295 7.51569 9.52506 7.72108L10.0083 6.84559C9.50005 6.56505 8.93338 6.40691 8.35331 6.38373L8.31338 7.38293ZM7.91038 7.50326C8.04415 7.42858 8.19401 7.38737 8.34716 7.38314L8.31953 6.38352C8.00517 6.39221 7.69758 6.4768 7.42298 6.63007L7.91038 7.50326ZM7.36266 9.10336C7.28301 8.47935 7.52018 7.85677 7.99482 7.44392L7.33853 6.68941C6.61187 7.32148 6.24877 8.27462 6.3707 9.22997L7.36266 9.10336ZM7.36668 30.9333V9.16666H6.36668V30.9333H7.36668ZM7.99482 32.6561C7.52018 32.2432 7.28301 31.6206 7.36266 30.9966L6.3707 30.87C6.24877 31.8254 6.61187 32.7785 7.33853 33.4106L7.99482 32.6561ZM9.55735 32.4164C9.05411 32.7495 8.41741 32.8083 7.86169 32.5729L7.47166 33.4937C8.33611 33.8599 9.32653 33.7685 10.1093 33.2503L9.55735 32.4164Z" fill="black"/>
</svg>
