<svg width="25" height="24" viewBox="0 0 25 24" fill="none" xmlns="http://www.w3.org/2000/svg">
<mask id="mask0_1512_1816" style="mask-type:alpha" maskUnits="userSpaceOnUse" x="0" y="0" width="25" height="24">
<rect x="0.156006" width="24" height="24" fill="#D9D9D9"/>
</mask>
<g mask="url(#mask0_1512_1816)">
<path d="M6.15601 19.75C4.42267 19.3 2.98934 18.3667 1.85601 16.95C0.722673 15.5333 0.156006 13.8833 0.156006 12C0.156006 10.1167 0.722673 8.46667 1.85601 7.05C2.98934 5.63333 4.42267 4.7 6.15601 4.25V6.35C4.97267 6.75 4.01017 7.46667 3.26851 8.5C2.52684 9.53333 2.15601 10.7 2.15601 12C2.15601 13.3 2.52684 14.4667 3.26851 15.5C4.01017 16.5333 4.97267 17.25 6.15601 17.65V19.75ZM14.156 20C11.9393 20 10.0518 19.2208 8.49351 17.6625C6.93517 16.1042 6.15601 14.2167 6.15601 12C6.15601 9.78333 6.93517 7.89583 8.49351 6.3375C10.0518 4.77917 11.9393 4 14.156 4C15.256 4 16.2893 4.20833 17.256 4.625C18.2227 5.04167 19.0727 5.61667 19.806 6.35L18.406 7.75C17.856 7.2 17.2185 6.77083 16.4935 6.4625C15.7685 6.15417 14.9893 6 14.156 6C12.4893 6 11.0727 6.58333 9.90601 7.75C8.73934 8.91667 8.15601 10.3333 8.15601 12C8.15601 13.6667 8.73934 15.0833 9.90601 16.25C11.0727 17.4167 12.4893 18 14.156 18C14.9893 18 15.7685 17.8458 16.4935 17.5375C17.2185 17.2292 17.856 16.8 18.406 16.25L19.806 17.65C19.0727 18.3833 18.2227 18.9583 17.256 19.375C16.2893 19.7917 15.256 20 14.156 20ZM20.156 16L18.756 14.6L20.356 13H13.156V11H20.356L18.756 9.4L20.156 8L24.156 12L20.156 16Z" fill="#1C1B1F"/>
</g>
</svg>
