<svg width="310" height="76" viewBox="0 0 310 76" fill="none" xmlns="http://www.w3.org/2000/svg">
<mask id="mask0_1164_139" style="mask-type:luminance" maskUnits="userSpaceOnUse" x="0" y="0" width="310" height="76">
<path d="M0 0H310V76H0V0Z" fill="white"/>
</mask>
<g mask="url(#mask0_1164_139)">
<path d="M160.229 2.0698V32.1481C160.229 35.2438 161.119 37.6201 162.9 39.2718C164.679 40.9261 166.95 41.7519 169.712 41.7519C172.838 41.7519 175.305 40.8399 177.124 39.0083C178.939 37.1793 179.848 34.4686 179.848 30.8814V2.0698H196.199V54.8442H179.848V49.8814C176.581 54.1754 171.382 56.3211 164.264 56.3211C158.451 56.3211 153.6 54.3857 149.712 50.5147C145.825 46.6438 143.883 41.2959 143.883 34.4711V17.9437C133.503 17.9437 132.744 19.2154 129.209 28.001L120.013 53.2583C116.961 61.5651 112.947 67.5109 107.969 71.0981C102.991 74.6878 96.6514 76.3041 88.9522 75.9519V61.175C92.7281 61.175 95.635 60.5214 97.6703 59.2218C99.7031 57.9197 101.34 55.6498 102.574 52.4147L80.882 2.0698H98.8646L110.962 34.3673L116.087 18.2122C119.129 8.61847 126.879 2.0698 143.835 2.0698H160.229ZM265.187 0.592865C257.991 0.592865 252.724 2.91593 249.382 7.55953C246.181 2.91593 241.424 0.592865 235.104 0.592865C228.345 0.592865 223.477 2.70313 220.499 6.9262V2.0698H204.15V54.8442H220.499V25.0775C220.499 21.9869 221.243 19.5549 222.735 17.7967C224.221 16.0386 226.313 15.157 229.001 15.157C231.542 15.157 233.486 15.9322 234.833 17.4801C236.174 19.0279 236.85 21.1382 236.85 23.8134V54.8442H253.199V25.0775C253.199 21.9869 253.943 19.5549 255.432 17.7967C256.921 16.0386 259.013 15.157 261.701 15.157C264.244 15.157 266.188 15.9322 267.533 17.4801C268.877 19.0279 269.55 21.1382 269.55 23.8134V54.8442H285.899V22.4403C285.899 15.8283 284.011 10.5311 280.23 6.5538C276.451 2.579 271.438 0.590332 265.192 0.590332H265.187V0.592865ZM293.651 54.8442H310.003V10.9061C310.003 6.02687 305.917 2.07233 300.878 2.07233H293.654V54.8467L293.651 54.8442Z" fill="#7953FF"/>
<path d="M22.4725 36.7385C16.555 39.9042 10.0956 41.938 3.42778 42.7349C3.66155 43.1985 3.90549 43.657 4.16467 44.113C13.0759 59.7234 33.3656 65.3829 49.4882 56.7544C65.6082 48.1258 71.4499 28.4748 62.5412 12.8644C59.3982 7.37404 54.7243 2.91132 49.0867 0.0178223C46.5966 15.0228 37.2762 28.8142 22.4725 36.7334V36.7385Z" fill="url(#paint0_linear_1164_139)"/>
<path d="M17.4642 25.2573C12.8015 17.0899 13.2081 7.54173 17.6599 0C17.5125 0.076 17.3626 0.1444 17.2178 0.222933C1.10285 8.85147 -4.74395 28.5 4.16728 44.1104C13.0785 59.7208 33.3683 65.3803 49.4883 56.7517C62.831 49.6103 69.125 34.9195 65.8471 21.2167C63.7762 27.018 59.5709 32.1277 53.5869 35.3324C40.7397 42.2079 24.5688 37.6985 17.4668 25.2548L17.4642 25.2573Z" fill="#7953FF"/>
</g>
<defs>
<linearGradient id="paint0_linear_1164_139" x1="28.3853" y1="11.4989" x2="38.6925" y2="47.2861" gradientUnits="userSpaceOnUse">
<stop offset="0.26" stop-color="#6E4FEC"/>
<stop offset="0.89" stop-color="#34179E"/>
</linearGradient>
</defs>
</svg>
