<svg xmlns="http://www.w3.org/2000/svg" xmlns:xlink="http://www.w3.org/1999/xlink" viewBox="0 0 1241.9 314.4"><defs><linearGradient id="prefix__a" x1="1216.99" y1="435.73" x2="329.51" y2="58.73" gradientUnits="userSpaceOnUse"><stop offset="0" stop-color="#d4b265"/><stop offset=".23" stop-color="#a07d31"/><stop offset=".41" stop-color="#bf9f58"/><stop offset=".59" stop-color="#e8ca81"/><stop offset=".77" stop-color="#885b09"/><stop offset="1" stop-color="#c8a65d"/><stop offset="1" stop-color="#caa869"/></linearGradient><linearGradient id="prefix__b" x1="1291.68" y1="259.9" x2="404.2" y2="-117.1" xlink:href="#prefix__a"/><linearGradient id="prefix__c" x1="1328.01" y1="174.39" x2="440.53" y2="-202.61" xlink:href="#prefix__a"/><linearGradient id="prefix__d" x1="249.1" y1="224.74" x2="5.16" y2="-1.04" gradientUnits="userSpaceOnUse"><stop offset="0" stop-color="#d4b265"/><stop offset=".23" stop-color="#885b09"/><stop offset=".41" stop-color="#bf9f58"/><stop offset=".56" stop-color="#e8ca81"/><stop offset=".79" stop-color="#885b09"/><stop offset="1" stop-color="#c8a65d"/><stop offset="1" stop-color="#caa869"/></linearGradient><linearGradient id="prefix__e" x1="248.48" y1="261.87" x2="30.36" y2="11.03" xlink:href="#prefix__a"/></defs><path d="M641.9 8.56V133c0 12.81 3.56 22.64 10.7 29.47 7.13 6.84 16.22 10.26 27.29 10.26 12.52 0 22.41-3.78 29.69-11.35 7.27-7.57 10.92-18.78 10.92-33.62V8.56H786v218.32h-65.5v-20.52C707.4 224.12 686.58 233 658.06 233c-23.29 0-42.72-8-58.29-24.02-15.57-16.01-23.36-38.13-23.36-66.37V74.23c-41.58 0-44.62 5.26-58.78 41.6l-36.84 104.5c-12.23 34.35-28.31 58.95-48.25 73.79-19.94 14.85-45.34 21.54-76.19 20.08v-61.13c15.13 0 26.78-2.7 34.93-8.08 8.15-5.39 14.7-14.78 19.65-28.16L324.02 8.56h72.05l48.46 133.61 20.53-66.83c12.19-39.69 43.23-66.78 111.16-66.78h65.67z" fill="url(#prefix__a)"/><path d="M1062.37 2.45c-28.82 0-49.93 9.61-63.31 28.82-12.82-19.21-31.88-28.82-57.2-28.82-27.07 0-46.58 8.73-58.51 26.2V8.56h-65.5v218.32h65.5V103.75c0-12.8 2.98-22.85 8.95-30.13 5.96-7.27 14.34-10.92 25.11-10.92 10.18 0 17.97 3.21 23.36 9.61 5.38 6.41 8.08 15.14 8.08 26.2v128.37h65.5V103.75c0-12.8 2.98-22.85 8.95-30.13 5.96-7.27 14.34-10.92 25.11-10.92 10.19 0 17.97 3.21 23.36 9.61 5.38 6.41 8.08 15.14 8.08 26.2v128.37h65.5V92.83c0-27.36-7.57-49.27-22.71-65.72-15.14-16.44-35.22-24.67-60.25-24.67z" fill="url(#prefix__b)"/><path d="M1176.41 226.88h65.5V45.12c0-20.19-16.37-36.55-36.55-36.55h-28.94v218.32z" fill="url(#prefix__c)"/><path d="M90.03 151.98a211.257 211.257 0 01-76.3 24.81c.94 1.91 1.92 3.81 2.96 5.7 35.69 64.58 116.98 87.99 181.56 52.29 64.58-35.69 87.99-116.98 52.3-181.56-12.95-23.43-31.92-41.41-53.9-53.15-9.98 62.08-47.32 119.13-106.62 151.9z" fill="url(#prefix__d)"/><path d="M69.96 104.48C51.29 70.71 52.91 31.21 70.76 0c-.59.31-1.19.6-1.77.92C4.42 36.62-19 117.9 16.7 182.48c35.69 64.58 116.98 87.99 181.56 52.29 53.45-29.54 78.66-90.31 65.53-147-8.29 24-25.14 45.14-49.11 58.39-51.47 28.45-116.26 9.79-144.71-41.68z" fill="url(#prefix__e)"/></svg>