<svg width="33" height="33" viewBox="0 0 33 33" fill="none" xmlns="http://www.w3.org/2000/svg">
<g clip-path="url(#clip0_3934_9093)">
<path d="M5.10548 5.18582C-1.14061 11.4326 -1.14061 21.5635 5.10548 27.8139C11.3551 34.0642 21.4813 34.0642 27.731 27.8139C33.9771 21.5671 33.9771 11.4362 27.731 5.18582C21.4813 -1.06454 11.3551 -1.06454 5.10548 5.18582ZM26.2169 26.2996C20.7797 31.7373 11.9672 31.7373 6.53009 26.2996C1.09295 20.8618 1.09295 12.0483 6.53009 6.61059C11.9672 1.17284 20.7797 1.17284 26.2169 6.61059C31.654 12.0483 31.654 20.8618 26.2169 26.2996Z" fill="url(#paint0_linear_3934_9093)"/>
<path d="M16.4164 2.5083C8.73141 2.5083 2.49606 8.74434 2.49606 16.4338C2.49606 24.1232 8.72783 30.3593 16.4164 30.3593C24.105 30.3593 30.3368 24.1268 30.3368 16.4338C30.3368 8.74076 24.105 2.5083 16.4164 2.5083Z" fill="white"/>
<path d="M17.7981 7.56665H9.84102C8.93167 7.56665 8.19449 8.30391 8.19449 9.21337V20.0173C8.19449 20.9267 8.93167 21.664 9.84102 21.664H17.7981C18.7074 21.664 19.4446 20.9267 19.4446 20.0173V9.21337C19.4446 8.30391 18.7074 7.56665 17.7981 7.56665Z" fill="url(#paint1_linear_3934_9093)"/>
<path d="M13.628 20.6257C13.4204 20.6257 13.1305 20.7439 12.9838 20.8906L9.17883 24.696C9.03208 24.8428 9.08219 24.9609 9.28979 24.9609H23.6218C23.8294 24.9609 23.8795 24.8428 23.7327 24.696L19.9278 20.8906C19.7811 20.7439 19.4911 20.6257 19.2835 20.6257H13.6245H13.628Z" stroke="white" stroke-width="6.68" stroke-miterlimit="10"/>
<path d="M13.628 20.6257C13.4204 20.6257 13.1305 20.7439 12.9838 20.8906L9.17883 24.696C9.03208 24.8428 9.08219 24.9609 9.28979 24.9609H23.6218C23.8294 24.9609 23.8795 24.8428 23.7327 24.696L19.9278 20.8906C19.7811 20.7439 19.4911 20.6257 19.2835 20.6257H13.6245H13.628Z" fill="url(#paint2_linear_3934_9093)"/>
<path d="M10.3887 9.79321H17.254" stroke="white" stroke-miterlimit="10" stroke-linecap="round"/>
<path d="M10.3887 11.9197H14.845" stroke="white" stroke-miterlimit="10" stroke-linecap="round"/>
<path d="M10.3887 14.0461H16.4558" stroke="white" stroke-miterlimit="10" stroke-linecap="round"/>
</g>
<defs>
<linearGradient id="paint0_linear_3934_9093" x1="5.10695" y1="27.811" x2="27.7318" y2="5.18868" gradientUnits="userSpaceOnUse">
<stop stop-color="#5E4D15"/>
<stop offset="0.06" stop-color="#7C6517"/>
<stop offset="0.14" stop-color="#C09E44"/>
<stop offset="0.18" stop-color="#DBB556"/>
<stop offset="0.21" stop-color="#D1AB4F"/>
<stop offset="0.27" stop-color="#B6933E"/>
<stop offset="0.31" stop-color="#A07F31"/>
<stop offset="0.41" stop-color="#73571B"/>
<stop offset="0.46" stop-color="#5E4411"/>
<stop offset="0.49" stop-color="#6D5014"/>
<stop offset="0.55" stop-color="#96721E"/>
<stop offset="0.59" stop-color="#B38A26"/>
<stop offset="0.62" stop-color="#C09934"/>
<stop offset="0.65" stop-color="#C6A03B"/>
<stop offset="0.66" stop-color="#C9A542"/>
<stop offset="0.68" stop-color="#D3B655"/>
<stop offset="0.71" stop-color="#E4D075"/>
<stop offset="0.73" stop-color="#F8F19D"/>
<stop offset="0.78" stop-color="#F9F2A1"/>
<stop offset="0.82" stop-color="#E6D47F"/>
<stop offset="0.89" stop-color="#C7A449"/>
<stop offset="0.93" stop-color="#BC9234"/>
</linearGradient>
<linearGradient id="paint1_linear_3934_9093" x1="-1.05831" y1="29.4966" x2="27.3153" y2="1.12615" gradientUnits="userSpaceOnUse">
<stop/>
<stop offset="0.06" stop-color="#232323"/>
<stop offset="0.1" stop-color="#4F4F4F"/>
<stop offset="0.16" stop-color="#939393"/>
<stop offset="0.19" stop-color="#AEAEAE"/>
<stop offset="0.24" stop-color="#A4A4A4"/>
<stop offset="0.34" stop-color="#898989"/>
<stop offset="0.35" stop-color="#878787"/>
<stop offset="0.36" stop-color="#7B7B7B"/>
<stop offset="0.42" stop-color="#454545"/>
<stop offset="0.44" stop-color="#303030"/>
<stop offset="0.46" stop-color="#3F3F3F"/>
<stop offset="0.49" stop-color="#686868"/>
<stop offset="0.53" stop-color="#B0B0B0"/>
<stop offset="0.65" stop-color="#AFAFAF"/>
<stop offset="0.67" stop-color="#B6B6B6"/>
<stop offset="0.7" stop-color="#C9C9C9"/>
<stop offset="0.74" stop-color="#E9E9E9"/>
<stop offset="0.75" stop-color="#EDEDED"/>
<stop offset="0.83" stop-color="#EEEEEE"/>
<stop offset="0.86" stop-color="#C9C9C9"/>
<stop offset="0.9" stop-color="#939393"/>
<stop offset="0.93" stop-color="#7E7E7E"/>
</linearGradient>
<linearGradient id="paint2_linear_3934_9093" x1="5.95378" y1="35.3388" x2="35.7701" y2="5.52581" gradientUnits="userSpaceOnUse">
<stop stop-color="#5E4D15"/>
<stop offset="0.06" stop-color="#7C6517"/>
<stop offset="0.21" stop-color="#C09E44"/>
<stop offset="0.29" stop-color="#DBB556"/>
<stop offset="0.3" stop-color="#D1AB4F"/>
<stop offset="0.32" stop-color="#B6933E"/>
<stop offset="0.33" stop-color="#A07F31"/>
<stop offset="0.4" stop-color="#73571B"/>
<stop offset="0.44" stop-color="#5E4411"/>
<stop offset="0.45" stop-color="#6D5014"/>
<stop offset="0.46" stop-color="#96721E"/>
<stop offset="0.48" stop-color="#B38A26"/>
<stop offset="0.57" stop-color="#C09934"/>
<stop offset="0.65" stop-color="#C6A03B"/>
<stop offset="0.66" stop-color="#C9A542"/>
<stop offset="0.68" stop-color="#D3B655"/>
<stop offset="0.71" stop-color="#E4D075"/>
<stop offset="0.73" stop-color="#F8F19D"/>
<stop offset="0.78" stop-color="#F9F2A1"/>
<stop offset="0.82" stop-color="#E6D47F"/>
<stop offset="0.89" stop-color="#C7A449"/>
<stop offset="0.93" stop-color="#BC9234"/>
</linearGradient>
<clipPath id="clip0_3934_9093">
<rect width="32" height="32" fill="white" transform="translate(0.419998 0.5)"/>
</clipPath>
</defs>
</svg>
