<svg width="48" height="48" viewBox="0 0 48 48" fill="none" xmlns="http://www.w3.org/2000/svg">
<path d="M23.9957 47.9914C37.2482 47.9914 47.9914 37.2482 47.9914 23.9957C47.9914 10.7433 37.2482 0 23.9957 0C10.7433 0 0 10.7433 0 23.9957C0 37.2482 10.7433 47.9914 23.9957 47.9914Z" fill="#D3B871"/>
<path d="M23.9957 0C23.9957 0 23.9872 0 23.9786 0H23.9615C23.9615 0 23.9529 0 23.9444 0C23.9444 0 23.9358 0 23.9272 0C23.9272 0 23.9187 0 23.9101 0C23.9101 0 23.9016 0 23.893 0C23.893 0 23.8844 0 23.8759 0C23.8759 0 23.8673 0 23.8587 0C23.8587 0 23.8502 0 23.8416 0C23.8416 0 23.8331 0 23.8245 0C23.8245 0 23.8159 0 23.8074 0C23.8074 0 23.7988 0 23.7903 0C23.7903 0 23.7817 0 23.7731 0C23.7731 0 23.7646 0 23.756 0C23.3023 0 22.8571 0.0256822 22.412 0.0513644C22.412 0.0513644 22.4034 0.0513644 22.3949 0.0513644C22.3949 0.0513644 22.3863 0.0513644 22.3777 0.0513644L22.8315 6.69449C23.2338 6.66881 23.6362 6.65169 24.0385 6.65169V0H23.9957ZM17.7721 0.813269C17.6608 0.847512 17.5409 0.873194 17.4296 0.907437C17.4211 0.907437 17.404 0.907437 17.3954 0.915998C17.3954 0.915998 17.3868 0.915998 17.3783 0.915998C17.3783 0.915998 17.3697 0.915998 17.3612 0.915998C17.3612 0.915998 17.3612 0.915998 17.3526 0.915998C17.3526 0.915998 17.3526 0.915998 17.344 0.915998C17.344 0.915998 17.344 0.915998 17.3355 0.915998C17.3355 0.915998 17.3355 0.915998 17.3269 0.915998C17.3269 0.915998 17.3269 0.915998 17.3184 0.915998C17.3184 0.915998 17.3098 0.915998 17.3012 0.915998C17.3012 0.915998 17.3012 0.915998 17.2927 0.915998C17.2927 0.915998 17.2841 0.915998 17.2755 0.915998C17.2755 0.915998 17.2755 0.915998 17.267 0.915998C17.2584 0.915998 17.2413 0.915998 17.2327 0.924559C17.2327 0.924559 17.2327 0.924559 17.2242 0.924559C17.2242 0.924559 17.2071 0.924559 17.1985 0.924559C17.1985 0.924559 17.1985 0.924559 17.1899 0.924559C17.1899 0.924559 17.1643 0.924559 17.1557 0.933119C17.1471 0.933119 17.13 0.933119 17.1215 0.94168C17.1215 0.94168 17.0958 0.94168 17.0872 0.950241C17.0872 0.950241 17.0872 0.950241 17.0787 0.950241C17.0701 0.950241 17.053 0.950241 17.0444 0.958802C17.0358 0.958802 17.0187 0.958802 17.0102 0.967362C17.0102 0.967362 17.0102 0.967362 17.0016 0.967362C16.993 0.967362 16.9759 0.967362 16.9674 0.975923C16.9588 0.975923 16.9502 0.975923 16.9331 0.984484C16.9331 0.984484 16.9331 0.984484 16.9246 0.984484C16.9246 0.984484 16.9246 0.984484 16.916 0.984484C16.916 0.984484 16.916 0.984484 16.9074 0.984484C16.9074 0.984484 16.9074 0.984484 16.8989 0.984484C16.8989 0.984484 16.8903 0.984484 16.8818 0.984484C16.8818 0.984484 16.8818 0.984484 16.8732 0.984484C16.8732 0.984484 16.8646 0.984484 16.8561 0.984484C16.8561 0.984484 16.8475 0.984484 16.839 0.984484C16.8304 0.984484 16.8133 0.984484 16.8047 0.993044C16.6506 1.04441 16.5051 1.08721 16.351 1.14714L18.5169 7.44783C18.8935 7.31942 19.2788 7.19957 19.664 7.09684L17.9433 0.659176L17.7721 0.813269ZM11.9765 3.21883C11.5998 3.44141 11.2231 3.67255 10.855 3.91225C10.855 3.91225 10.8379 3.92937 10.8293 3.92937C10.8293 3.92937 10.8293 3.92937 10.8208 3.92937C10.8208 3.92937 10.8208 3.92937 10.8122 3.92937C10.7437 3.97218 10.6752 4.02354 10.6067 4.06635L14.3392 9.57945C14.6731 9.35688 15.0155 9.14286 15.3579 8.9374L12.0193 3.17603L11.9765 3.21883ZM7.00268 7.05404C7.00268 7.05404 6.99411 7.0626 6.98555 7.07116C6.98555 7.07116 6.98555 7.07116 6.97699 7.07972C6.97699 7.07972 6.96843 7.08828 6.95987 7.09684C6.95987 7.09684 6.95131 7.1054 6.94275 7.11397C6.94275 7.11397 6.94275 7.11396 6.93419 7.12253C6.93419 7.12253 6.92563 7.13109 6.91707 7.13965C6.91707 7.13965 6.91707 7.13965 6.90851 7.14821C6.90851 7.14821 6.89995 7.16533 6.89139 7.16533C6.89139 7.16533 6.89139 7.16533 6.88283 7.17389C6.87426 7.18245 6.85714 7.19957 6.84858 7.20813C6.84858 7.20813 6.84858 7.20813 6.84002 7.21669C6.84002 7.21669 6.83146 7.22525 6.8229 7.23381C6.8229 7.23381 6.8229 7.23382 6.81434 7.24238C6.81434 7.24238 6.80578 7.25094 6.79722 7.2595C6.79722 7.2595 6.79722 7.2595 6.78866 7.26806C6.78866 7.26806 6.7801 7.28518 6.77154 7.29374C6.77154 7.29374 6.77154 7.29374 6.76298 7.3023C6.76298 7.3023 6.76297 7.3023 6.75441 7.31086C6.75441 7.31086 6.74585 7.31942 6.73729 7.32798V7.3451C6.73729 7.3451 6.73729 7.3451 6.72873 7.35367C6.72873 7.35367 6.72873 7.35367 6.72017 7.36223C6.72017 7.36223 6.72017 7.36223 6.71161 7.37079C6.71161 7.37079 6.71161 7.37079 6.70305 7.37935C6.70305 7.37935 6.70305 7.38791 6.69449 7.39647H6.68593V7.41359C6.68593 7.41359 6.67737 7.42215 6.66881 7.43071C6.66881 7.43071 6.66881 7.43071 6.66025 7.43927C6.66025 7.43927 6.65169 7.44783 6.64313 7.45639C6.64313 7.45639 6.63456 7.46495 6.626 7.47352C6.61744 7.48208 6.60032 7.4992 6.59176 7.50776C6.5832 7.51632 6.56608 7.53344 6.55752 7.542C6.3863 7.73034 6.21509 7.91011 6.05243 8.10701L11.0776 12.473C11.343 12.1734 11.6169 11.8737 11.8994 11.5912L7.18245 6.89139L7.00268 7.05404ZM3.19315 12.0364C2.91921 12.5158 2.65383 13.0037 2.41413 13.5088L8.39807 16.428C8.56929 16.0685 8.76619 15.7089 8.96308 15.3665L3.19315 12.0449V12.0364ZM0.796148 17.8406C0.779026 17.9005 0.761905 17.969 0.744783 18.0289C0.744783 18.0289 0.744783 18.0375 0.744783 18.046C0.744783 18.046 0.744783 18.0546 0.744783 18.0631C0.744783 18.0631 0.744783 18.0631 0.744783 18.0717C0.744783 18.0803 0.744783 18.0974 0.744783 18.1059C0.633494 18.5425 0.539326 18.9791 0.453719 19.4243L6.99411 20.6742C7.07116 20.2804 7.15677 19.8866 7.2595 19.5013L0.82183 17.7978L0.796148 17.8406ZM6.66025 24.0471L0 24.0642C0 24.4152 0.00856073 24.7576 0.0256822 25.1086C0.0256822 25.1343 0.0256822 25.16 0.0256822 25.1857C0.0342429 25.3654 0.0428036 25.5452 0.0599251 25.725L6.70305 25.2541C6.67737 24.8518 6.66025 24.4494 6.66025 24.0471ZM7.2595 28.5415L0.830391 30.2793C0.975923 30.8186 1.13858 31.3494 1.31835 31.8716L7.61049 29.6886C7.48208 29.3119 7.36223 28.9267 7.2595 28.5415ZM9.00589 32.7191L3.25308 36.0749C3.39861 36.3317 3.5527 36.58 3.70679 36.8283C3.70679 36.8368 3.71536 36.8454 3.72392 36.8539C3.72392 36.8539 3.72392 36.8539 3.73248 36.8711C3.73248 36.8711 3.73248 36.8796 3.74104 36.8882C3.74104 36.8882 3.74104 36.8882 3.74104 36.8967C3.74104 36.8967 3.74104 36.8967 3.74104 36.9053C3.74104 36.9053 3.74104 36.9053 3.74104 36.9139C3.74104 36.9139 3.74104 36.9139 3.74104 36.9224C3.74104 36.9224 3.74104 36.931 3.7496 36.9395C3.7496 36.9395 3.7496 36.9395 3.7496 36.9481C3.85233 37.1022 3.95506 37.2563 4.05779 37.4104L9.56233 33.6608C9.33975 33.3269 9.12574 32.9845 8.92028 32.6421L9.00589 32.7191ZM11.7881 36.306L7.09684 41.0316C7.09684 41.0316 7.09684 41.0316 7.1054 41.0401C7.1054 41.0401 7.11396 41.0487 7.12253 41.0573C7.12253 41.0573 7.13109 41.0658 7.13965 41.0744C7.13965 41.0744 7.14821 41.0829 7.15677 41.0915C7.15677 41.0915 7.16533 41.1001 7.17389 41.1086C7.542 41.4682 7.91867 41.8106 8.30391 42.1445L12.6613 37.1022C12.3617 36.8368 12.0621 36.5629 11.7796 36.2804L11.7881 36.306ZM15.4007 39.0626L12.0877 44.8411C12.4473 45.0466 12.8154 45.2434 13.1835 45.4318C13.1835 45.4318 13.1921 45.4318 13.2006 45.4318C13.2006 45.4318 13.2092 45.4318 13.2178 45.4318C13.2178 45.4318 13.2263 45.4318 13.2349 45.4318C13.3376 45.4831 13.4403 45.5345 13.5345 45.5773L16.4366 39.5848C16.077 39.4136 15.7175 39.2253 15.3751 39.0284L15.4007 39.0626ZM19.5869 40.7747L17.9005 47.221C18.4312 47.3579 18.9791 47.4864 19.527 47.5891L20.7598 41.0401C20.366 40.9631 19.9722 40.8775 19.5869 40.7747ZM25.3055 41.2884C24.9032 41.3141 24.5008 41.3312 24.0984 41.3398L24.1327 48C24.3981 48 24.6549 48 24.9117 47.9829C24.9117 47.9829 24.9288 47.9829 24.9374 47.9829C24.9374 47.9829 24.9374 47.9829 24.946 47.9829H24.9631C24.9631 47.9829 24.9631 47.9829 24.9716 47.9829C24.9716 47.9829 24.9802 47.9829 24.9888 47.9829C24.9888 47.9829 24.9888 47.9829 24.9973 47.9829C24.9973 47.9829 25.0059 47.9829 25.0144 47.9829C25.0144 47.9829 25.0144 47.9829 25.023 47.9829C25.023 47.9829 25.023 47.9829 25.0316 47.9829C25.0316 47.9829 25.0401 47.9829 25.0487 47.9829C25.0487 47.9829 25.0487 47.9829 25.0573 47.9829C25.0573 47.9829 25.0658 47.9829 25.0744 47.9829C25.0744 47.9829 25.0744 47.9829 25.0829 47.9829C25.0829 47.9829 25.0915 47.9829 25.1001 47.9829C25.1001 47.9829 25.1086 47.9829 25.1172 47.9829C25.1172 47.9829 25.1257 47.9829 25.1343 47.9829C25.1343 47.9829 25.1429 47.9829 25.1514 47.9829C25.1514 47.9829 25.16 47.9829 25.1685 47.9829C25.1685 47.9829 25.1771 47.9829 25.1857 47.9829C25.1942 47.9829 25.2113 47.9829 25.2199 47.9829C25.3826 47.9743 25.5452 47.9658 25.6993 47.9486L25.2113 41.3055L25.3055 41.2884ZM29.7314 40.3638C29.3547 40.4922 28.9695 40.6121 28.5843 40.7234L30.3392 47.1439C30.3991 47.1268 30.4591 47.1097 30.5104 47.0926C30.5104 47.0926 30.5104 47.0926 30.519 47.0926C30.519 47.0926 30.5276 47.0926 30.5361 47.0926C30.5361 47.0926 30.5361 47.0926 30.5447 47.0926C30.5447 47.0926 30.5532 47.0926 30.5618 47.0926C30.5618 47.0926 30.5704 47.0926 30.5789 47.0926C30.8957 46.9984 31.2124 46.9042 31.5292 46.8015C31.5292 46.8015 31.5377 46.8015 31.5463 46.8015C31.5463 46.8015 31.5548 46.8015 31.5634 46.8015C31.5634 46.8015 31.5634 46.8015 31.572 46.8015C31.572 46.8015 31.572 46.8015 31.5805 46.8015C31.5805 46.8015 31.5805 46.8015 31.5891 46.8015C31.5891 46.8015 31.5891 46.8015 31.5976 46.8015C31.6833 46.7673 31.7774 46.7416 31.863 46.7073L29.6629 40.4238L29.7314 40.3638ZM33.7721 38.3178C33.4382 38.5404 33.1043 38.763 32.7533 38.9599L36.1263 44.7041C36.3317 44.5843 36.5372 44.4559 36.7426 44.3274C36.7512 44.3274 36.7598 44.3189 36.7683 44.3103C36.7683 44.3103 36.7769 44.3103 36.7854 44.3018C36.7854 44.3018 36.794 44.3018 36.8026 44.2932H36.8111C36.8111 44.2932 36.8197 44.2932 36.8283 44.2846C36.8283 44.2846 36.8368 44.2846 36.8454 44.2761C36.8454 44.2761 36.8454 44.2761 36.8539 44.2761C36.8539 44.2761 36.8539 44.2761 36.8625 44.2761C36.8625 44.2761 36.8625 44.2761 36.8711 44.2761C36.8711 44.2761 36.8711 44.2761 36.8796 44.2761C36.8796 44.2761 36.8882 44.2761 36.8967 44.2675C36.8967 44.2675 36.8967 44.2675 36.9053 44.2675C36.9139 44.2675 36.9224 44.259 36.931 44.2504C36.931 44.2504 36.931 44.2504 36.9395 44.2504C36.9481 44.2504 36.9567 44.2333 36.9738 44.2333C37.1279 44.1306 37.2734 44.0364 37.4275 43.9337C37.4275 43.9337 37.4275 43.9337 37.4361 43.9337C37.4361 43.9337 37.4361 43.9337 37.4446 43.9337L33.6865 38.4377L33.7721 38.3178ZM37.1621 35.2873C36.9053 35.5869 36.6228 35.8866 36.3489 36.1776L41.0915 40.8518C41.0915 40.8518 41.1001 40.8432 41.1086 40.8347C41.1172 40.8261 41.1343 40.809 41.1429 40.8004C41.1514 40.7919 41.1685 40.7747 41.1771 40.7662C41.1771 40.7662 41.1857 40.7576 41.1942 40.7491C41.1942 40.7491 41.2028 40.7405 41.2113 40.7319C41.2113 40.7319 41.2199 40.7234 41.2285 40.7148C41.237 40.7063 41.2541 40.6891 41.2627 40.6806C41.2713 40.672 41.2884 40.6549 41.297 40.6463C41.6051 40.321 41.9133 39.9872 42.2044 39.6447L37.1536 35.3044L37.1621 35.2873ZM39.6447 31.4864C39.4735 31.8459 39.2852 32.2055 39.0883 32.5479L44.8753 35.8438C44.9181 35.7667 44.9609 35.6982 44.9952 35.6212C44.9952 35.6212 44.9952 35.6126 44.9952 35.6041C44.9952 35.6041 44.9952 35.5955 44.9952 35.5869C44.9952 35.5869 44.9952 35.5869 44.9952 35.5784C44.9952 35.5784 44.9952 35.5784 44.9952 35.5698C44.9952 35.5698 44.9952 35.5698 44.9952 35.5613C44.9952 35.5613 44.9952 35.5613 44.9952 35.5527C44.9952 35.5527 44.9952 35.5527 44.9952 35.5441C44.9952 35.5356 45.0037 35.527 45.0123 35.5099C45.1065 35.3387 45.2006 35.1589 45.2948 34.9791C45.2948 34.9706 45.3034 34.9535 45.3119 34.9449C45.3119 34.9449 45.3291 34.9106 45.3376 34.9021C45.3376 34.8935 45.3462 34.8764 45.3547 34.8678V34.8593C45.3547 34.8507 45.3633 34.8336 45.3719 34.825C45.3719 34.825 45.3804 34.7994 45.389 34.7908C45.389 34.7908 45.389 34.7908 45.389 34.7822C45.389 34.7822 45.3975 34.7566 45.4061 34.748C45.4061 34.7394 45.4147 34.7223 45.4232 34.7137V34.7052C45.4232 34.7052 45.4318 34.6795 45.4403 34.6709C45.4403 34.6709 45.4489 34.6453 45.4575 34.6367C45.4575 34.6367 45.4575 34.6367 45.4575 34.6281C45.4917 34.5682 45.5174 34.4997 45.5516 34.4398L39.5506 31.5548L39.6447 31.4864ZM41.0487 27.1889C40.9802 27.5827 40.886 27.9765 40.7919 28.3617L47.2381 30.031C47.3751 29.4917 47.4949 28.9524 47.5976 28.4045L41.0487 27.1889ZM47.923 22.138L41.2798 22.6431C41.3141 23.0455 41.3312 23.4478 41.3312 23.8502L47.9914 23.7988C47.9914 23.5506 47.9914 23.3023 47.9743 23.0455C47.9743 23.0455 47.9743 23.0198 47.9743 23.0112C47.9743 23.0027 47.9743 22.9856 47.9743 22.977C47.9743 22.977 47.9743 22.9513 47.9743 22.9427C47.9743 22.9427 47.9743 22.9342 47.9743 22.9256C47.9743 22.9256 47.9743 22.9171 47.9743 22.9085C47.9743 22.9085 47.9743 22.8999 47.9743 22.8914C47.9743 22.8828 47.9743 22.8657 47.9743 22.8571C47.9743 22.8486 47.9743 22.8315 47.9743 22.8229C47.9743 22.8143 47.9743 22.7972 47.9743 22.7887C47.9743 22.7801 47.9743 22.763 47.9743 22.7544C47.9658 22.5575 47.9486 22.3606 47.9401 22.1637L47.923 22.138ZM46.6303 16L40.3467 18.2172C40.4751 18.5939 40.6035 18.9791 40.7063 19.3644L47.1268 17.5923C47.1268 17.5923 47.1268 17.5752 47.1268 17.5666C47.1268 17.5666 47.1268 17.5581 47.1268 17.5495C47.1268 17.5495 47.1268 17.5238 47.1182 17.5152C47.1182 17.5067 47.1182 17.4896 47.1097 17.481C47.1097 17.4639 47.1011 17.4468 47.0926 17.4296C47.0926 17.4296 47.0926 17.404 47.084 17.3954C47.084 17.3868 47.084 17.3697 47.0754 17.3612C47.0754 17.3612 47.0754 17.3612 47.0754 17.3526C47.0754 17.344 47.0754 17.3269 47.0669 17.3184C47.0669 17.3098 47.0669 17.2927 47.0583 17.2841C47.0583 17.2841 47.0583 17.2841 47.0583 17.2755V17.2584C47.0583 17.2584 47.0583 17.2584 47.0583 17.2499C47.0583 17.2499 47.0583 17.2413 47.0583 17.2327C47.0583 17.2327 47.0583 17.2327 47.0583 17.2242C47.0583 17.2242 47.0583 17.2242 47.0583 17.2156C47.0583 17.2156 47.0583 17.2071 47.0583 17.1985C47.0583 17.1985 47.0583 17.1985 47.0583 17.1899C47.0583 17.1899 47.0583 17.1814 47.0583 17.1728V17.1557C47.0583 17.1557 47.0583 17.1557 47.0583 17.1471C47.0583 17.1471 47.0583 17.1471 47.0583 17.1386C47.0583 17.1386 47.0583 17.1386 47.0583 17.13V17.1129C47.0583 17.1129 47.0583 17.1043 47.0583 17.0958C47.0583 17.0958 47.0583 17.0958 47.0583 17.0872C47.0583 17.0872 47.0583 17.0787 47.0583 17.0701C47.0583 17.0701 47.0583 17.0701 47.0583 17.0615C47.0583 17.0615 47.0583 17.0615 47.0583 17.053C47.0583 17.053 47.0583 17.0444 47.0583 17.0358C47.0583 17.0358 47.0583 17.0273 47.0583 17.0187C47.0583 17.0187 47.0583 17.0102 47.0583 17.0016C47.0583 17.0016 47.0583 17.0016 47.0583 16.993C47.0583 16.993 47.0583 16.9845 47.0583 16.9759C47.0583 16.9759 47.0583 16.9674 47.0583 16.9588C47.0583 16.9588 47.0583 16.9502 47.0583 16.9417C47.0583 16.9417 47.0583 16.9331 47.0583 16.9246C47.0583 16.9246 47.0583 16.916 47.0583 16.9074C47.0583 16.9074 47.0583 16.8989 47.0583 16.8903C47.0583 16.8903 47.0583 16.8818 47.0583 16.8732C47.0583 16.8646 47.0583 16.8475 47.0498 16.839C47.0498 16.839 47.0498 16.8304 47.0498 16.8218C47.0498 16.8133 47.0498 16.7961 47.0412 16.7876C47.0412 16.7876 47.0412 16.7619 47.0326 16.7533C46.9727 16.5564 46.9042 16.3596 46.8357 16.1712L46.6303 16ZM43.7796 10.4098L38.2921 14.1851C38.5147 14.5104 38.7373 14.8529 38.9428 15.1953L44.6784 11.8052C44.4987 11.4971 44.3103 11.1974 44.1134 10.8978C44.1134 10.8978 44.1134 10.8892 44.1049 10.8807C44.1049 10.8807 44.1049 10.8721 44.0963 10.8636C44.0963 10.8636 44.0963 10.8636 44.0963 10.855C44.0963 10.855 44.0963 10.855 44.0963 10.8464C44.0963 10.8464 44.0963 10.8464 44.0963 10.8379C44.0963 10.8379 44.0963 10.8379 44.0963 10.8293C44.0963 10.8293 44.0792 10.8036 44.0792 10.7951C43.9936 10.6667 43.908 10.5468 43.8224 10.4184L43.7796 10.4098ZM39.5762 5.74425L35.2531 10.8122C35.5613 11.069 35.8523 11.343 36.1434 11.6255L40.809 6.87426C40.5864 6.66025 40.3638 6.44623 40.1413 6.24077C40.1327 6.23221 40.1156 6.21509 40.107 6.20653C40.0984 6.19797 40.0813 6.18085 40.0728 6.17228C40.0642 6.16372 40.0471 6.1466 40.0385 6.13804C40.0385 6.13804 40.0385 6.13804 40.03 6.12948C40.03 6.12948 40.0128 6.11236 40.0043 6.11236C40.0043 6.11236 40.0043 6.1038 39.9957 6.1038C39.9872 6.09524 39.97 6.08668 39.9615 6.06956C39.9615 6.06956 39.9615 6.06956 39.9529 6.061L39.9358 6.04387C39.9358 6.04387 39.9358 6.04387 39.9272 6.03531C39.9272 6.03531 39.9187 6.02675 39.9101 6.01819C39.9101 6.01819 39.9101 6.01819 39.9016 6.01819C39.9016 6.01819 39.9016 6.01819 39.893 6.01819C39.893 6.01819 39.893 6.01819 39.8844 6.00963C39.8844 6.00963 39.8844 6.00963 39.8759 6.00107C39.8759 6.00107 39.8759 6.00107 39.8673 5.99251C39.8673 5.99251 39.8587 5.98395 39.8502 5.97539C39.8502 5.97539 39.8502 5.97539 39.8416 5.96683C39.8416 5.96683 39.8331 5.95827 39.8245 5.94971C39.8245 5.94971 39.8159 5.94971 39.8074 5.94114C39.8074 5.94114 39.7988 5.93258 39.7903 5.92402C39.7903 5.92402 39.7817 5.91546 39.7731 5.9069C39.7731 5.9069 39.7646 5.89834 39.756 5.88978C39.756 5.88978 39.7475 5.88122 39.7389 5.87266C39.7389 5.87266 39.7303 5.8641 39.7218 5.85554C39.7218 5.85554 39.7132 5.84698 39.7047 5.83842L39.5762 5.74425ZM34.3114 2.31996L31.4436 8.32959C31.8031 8.5008 32.1627 8.68914 32.5051 8.88604L35.7838 3.09042C35.7838 3.09042 35.7838 3.09042 35.7753 3.09042C35.7753 3.09042 35.7667 3.09042 35.7582 3.09042C35.7582 3.09042 35.7582 3.09042 35.7496 3.09042H35.741C35.741 3.09042 35.7325 3.09042 35.7239 3.09042C35.7239 3.09042 35.7239 3.09042 35.7154 3.09042C35.7154 3.09042 35.7068 3.09042 35.6982 3.09042C35.6982 3.09042 35.6982 3.09042 35.6897 3.09042C35.6811 3.09042 35.6726 3.08186 35.664 3.0733C35.664 3.0733 35.6554 3.0733 35.6469 3.0733C35.6383 3.0733 35.6297 3.06474 35.6126 3.05618C35.2017 2.82504 34.7737 2.61102 34.3456 2.40556L34.3114 2.31996ZM28.3446 0.393793L27.1461 6.94275C27.5399 7.01124 27.9337 7.09684 28.3189 7.19957L29.9711 0.744783C29.8769 0.719101 29.7828 0.693419 29.68 0.676298C29.68 0.676298 29.68 0.676298 29.6715 0.676298C29.6715 0.676298 29.6715 0.676298 29.6629 0.676298C29.6629 0.676298 29.6629 0.676298 29.6544 0.676298C29.6544 0.676298 29.6458 0.676298 29.6372 0.676298C29.6372 0.676298 29.6287 0.676298 29.6201 0.676298C29.2006 0.573569 28.7897 0.487961 28.3617 0.410915L28.3446 0.393793Z" fill="white"/>
<path d="M41.4767 23.5676C41.4767 32.5991 34.9962 41.4509 23.9528 41.4509C14.2364 41.4509 6.51465 33.6863 6.51465 23.8415C6.51465 13.9967 14.5446 6.54883 24.0898 6.54883C31.4948 6.54883 38.6431 11.6767 40.5007 18.4397H31.0925C29.543 15.6746 27.009 14.0823 23.8587 14.0823C18.5767 14.0823 14.8956 18.4397 14.8956 23.8415C14.8956 29.2433 18.3541 33.9175 23.9015 33.9175C27.8052 33.9175 30.7329 31.9656 31.7517 28.5157H21.9496V21.6585H41.4681V23.5676H41.4767Z" fill="white"/>
</svg>
