<svg width="572" height="228" viewBox="0 0 572 228" fill="none" xmlns="http://www.w3.org/2000/svg">
<g clip-path="url(#clip0_506_232)">
<path d="M543.254 77.3766C544.773 78.6234 545.539 80.3247 545.539 82.4935C545.539 83.9351 545.279 85.1558 544.76 86.1688C544.241 87.1688 543.527 87.987 542.618 88.6104C541.71 89.2338 540.658 89.6883 539.425 90C538.192 90.3117 536.869 90.4545 535.428 90.4545H530.496V75.8831C530.781 75.8052 531.158 75.7403 531.638 75.7013C532.118 75.6623 532.637 75.6234 533.195 75.5844C533.754 75.5455 534.325 75.5195 534.909 75.5195H536.622C539.503 75.5195 541.71 76.1429 543.241 77.3896M524.473 112.896H530.483V94.2987L536.557 95.1429L549.069 112.896H555.987L544.682 96.4286L541.554 94.3247C543.034 93.961 544.409 93.4286 545.668 92.7273C546.927 92.026 548.031 91.1558 548.952 90.1039C549.874 89.0649 550.6 87.8571 551.12 86.4935C551.639 85.1299 551.898 83.5974 551.898 81.9221C551.898 79.7532 551.47 77.9221 550.6 76.4416C549.744 74.961 548.602 73.7532 547.174 72.8312C545.746 71.9091 544.111 71.2468 542.242 70.8442C540.373 70.4416 538.439 70.2468 536.44 70.2468C535.519 70.2468 534.532 70.2727 533.494 70.3117C532.456 70.3507 531.404 70.4156 530.366 70.4935C529.328 70.5714 528.289 70.6753 527.264 70.7922C526.239 70.9091 525.304 71.0519 524.473 71.2078V112.922V112.896ZM486.003 112.896H511.754V107.597H492.026V94.0519H509.768V88.7533H492.026V76.0519H511.455V70.7532H486.016V112.883L486.003 112.896ZM474.958 107.597H453.426V70.7662H447.416V112.896H474.971V107.597H474.958ZM428.61 104.74C428.103 105.571 427.403 106.26 426.507 106.792C425.598 107.325 424.547 107.727 423.353 107.987C422.146 108.247 420.848 108.377 419.446 108.377C416.993 108.377 414.761 108.117 412.736 107.61C410.711 107.091 409.193 106.584 408.193 106.091L406.208 111.325C407.363 111.883 409.089 112.416 411.347 112.922C413.606 113.429 416.383 113.675 419.68 113.675C422.12 113.675 424.314 113.39 426.234 112.805C428.155 112.221 429.804 111.39 431.167 110.312C432.529 109.234 433.568 107.922 434.294 106.403C435.021 104.883 435.372 103.169 435.372 101.286C435.372 99 434.827 97.1169 433.749 95.6623C432.672 94.1948 431.296 92.961 429.661 91.961C428.013 90.961 426.247 90.1169 424.365 89.4286C422.483 88.7403 420.718 88.039 419.07 87.2987C417.422 86.5584 416.059 85.7143 414.982 84.7662C413.904 83.8052 413.359 82.5584 413.359 81.013C413.359 79.4675 414.034 78.1688 415.41 77.013C416.773 75.8571 418.81 75.2857 421.549 75.2857C423.95 75.2857 426.157 75.4805 428.168 75.8831C430.167 76.2857 431.673 76.7273 432.685 77.2078L434.554 72.1558C433.269 71.5195 431.504 70.987 429.259 70.5974C427.013 70.1948 424.547 70 421.86 70C417.201 70 413.632 71.039 411.127 73.1299C408.622 75.2208 407.363 77.961 407.363 81.3766C407.363 83.8182 407.908 85.8052 408.985 87.3377C410.062 88.8571 411.425 90.1039 413.074 91.0649C414.722 92.026 416.474 92.8182 418.369 93.4416C420.251 94.0649 422.016 94.7273 423.665 95.4156C425.313 96.1169 426.676 96.9351 427.753 97.8961C428.83 98.8571 429.375 100.143 429.375 101.779C429.375 102.935 429.129 103.935 428.623 104.766M388.167 112.922H394.176V70.7662H388.167V88.7662H366.816V70.7662H360.807V112.896H366.816V94.0519H388.167V112.896V112.922ZM347.698 106.481C346.698 107.039 345.478 107.506 344.025 107.87C342.584 108.234 340.871 108.416 338.911 108.416C336.743 108.416 334.745 108.065 332.927 107.364C331.097 106.662 329.514 105.623 328.177 104.234C326.827 102.844 325.776 101.13 325.023 99.0519C324.257 96.987 323.881 94.5844 323.881 91.8571C323.881 88.8052 324.283 86.2338 325.088 84.1169C325.893 82 326.957 80.2987 328.307 79C329.657 77.7013 331.175 76.7532 332.876 76.1688C334.576 75.5844 336.328 75.2987 338.145 75.2987C342.156 75.2987 345.141 75.7662 347.114 76.6883L348.438 71.5065C347.269 71.0649 345.855 70.7013 344.167 70.4286C342.48 70.1429 340.313 70.013 337.665 70.013C335.303 70.013 332.914 70.4156 330.513 71.2208C328.112 72.026 325.945 73.2987 324.011 75.039C322.09 76.7792 320.519 79.039 319.325 81.8052C318.131 84.5714 317.521 87.9221 317.521 91.8571C317.521 95.7922 318.066 98.8831 319.144 101.636C320.221 104.39 321.688 106.649 323.531 108.442C325.374 110.234 327.515 111.545 329.942 112.416C332.369 113.286 334.926 113.714 337.613 113.714C339.897 113.714 342.065 113.519 344.115 113.143C346.166 112.766 347.84 112.091 349.164 111.13L347.724 106.494L347.698 106.481ZM278.065 79.3636C280.336 76.6494 283.386 75.2987 287.241 75.2987C289.447 75.2987 291.342 75.7533 292.926 76.6494C294.509 77.5455 295.807 78.7532 296.832 80.2597C297.858 81.7792 298.611 83.5195 299.117 85.5195C299.623 87.5065 299.87 89.6234 299.87 91.8571C299.87 97.5584 298.74 101.74 296.469 104.403C294.198 107.078 291.122 108.403 287.241 108.403C285.073 108.403 283.204 107.961 281.621 107.091C280.037 106.208 278.74 105.026 277.714 103.506C276.689 101.987 275.936 100.247 275.43 98.2468C274.924 96.2597 274.677 94.1299 274.677 91.8571C274.677 86.2468 275.806 82.0779 278.078 79.3766M269.472 100.766C270.251 103.455 271.432 105.753 272.99 107.662C274.547 109.571 276.52 111.052 278.882 112.117C281.245 113.182 284.035 113.714 287.241 113.714C290.213 113.714 292.861 113.221 295.21 112.234C297.559 111.247 299.545 109.831 301.193 107.961C302.842 106.091 304.088 103.805 304.957 101.104C305.814 98.3896 306.255 95.3117 306.255 91.8701C306.255 88.6234 305.866 85.6494 305.087 82.961C304.308 80.2727 303.127 77.974 301.544 76.0649C299.96 74.1558 297.975 72.6753 295.587 71.6104C293.198 70.5455 290.421 70.013 287.254 70.013C284.282 70.013 281.634 70.5065 279.285 71.4935C276.935 72.4805 274.95 73.8961 273.327 75.7662C271.705 77.6364 270.459 79.9221 269.602 82.6234C268.746 85.3377 268.304 88.4156 268.304 91.8571C268.304 95.1039 268.694 98.0779 269.472 100.766ZM233.702 89.2078V75.4935C234.299 75.4156 235.195 75.3377 236.363 75.2857C237.544 75.2208 238.829 75.1948 240.231 75.1948C241.386 75.1948 242.528 75.2727 243.644 75.4416C244.76 75.5974 245.76 75.9091 246.642 76.3507C247.525 76.7922 248.226 77.4286 248.771 78.2597C249.316 79.0909 249.575 80.1948 249.575 81.5714C249.575 82.5844 249.381 83.4805 248.978 84.2727C248.576 85.0649 248.044 85.7532 247.356 86.3377C246.681 86.9221 245.889 87.4286 244.994 87.8571C244.098 88.2857 243.151 88.6364 242.151 88.9221C241.477 89 240.633 89.0779 239.633 89.1299C238.634 89.1948 237.752 89.2208 236.999 89.2208H233.702V89.2078ZM233.702 93.8961H239.322C240.672 93.8961 242.048 93.974 243.449 94.1039C244.838 94.2468 246.097 94.5714 247.213 95.0779C248.329 95.5844 249.238 96.3117 249.926 97.2597C250.627 98.2078 250.964 99.4935 250.964 101.117C250.964 102.416 250.679 103.519 250.095 104.455C249.524 105.39 248.745 106.156 247.797 106.766C246.837 107.377 245.734 107.818 244.488 108.104C243.229 108.39 241.931 108.532 240.581 108.532C240.023 108.532 239.413 108.532 238.764 108.507C238.102 108.481 237.453 108.455 236.791 108.416C236.129 108.377 235.532 108.338 234.974 108.299C234.416 108.26 234.001 108.195 233.715 108.117V93.9221L233.702 93.8961ZM254.508 75.4156C253.547 74.0909 252.327 73.052 250.834 72.2857C249.342 71.5195 247.694 70.987 245.876 70.6883C244.046 70.3896 242.281 70.2338 240.555 70.2338C238.024 70.2338 235.662 70.3117 233.455 70.4805C231.249 70.6364 229.328 70.8571 227.68 71.1429V112.61C228.562 112.805 229.575 112.961 230.717 113.065C231.859 113.169 233.001 113.247 234.143 113.312C235.285 113.377 236.376 113.416 237.427 113.429C238.465 113.455 239.348 113.455 240.075 113.455C242.164 113.455 244.241 113.208 246.305 112.727C248.368 112.247 250.224 111.494 251.873 110.468C253.521 109.442 254.845 108.143 255.844 106.558C256.844 104.974 257.35 103.104 257.35 100.935C257.35 99.2857 257.064 97.8701 256.506 96.6623C255.948 95.4545 255.208 94.4416 254.287 93.5974C253.365 92.7532 252.301 92.0909 251.094 91.6104C249.887 91.1299 248.654 90.8052 247.369 90.6494V90.4026C248.849 90.0779 250.134 89.5844 251.224 88.8961C252.301 88.2078 253.197 87.4156 253.898 86.5195C254.598 85.6234 255.118 84.6494 255.455 83.6364C255.792 82.6104 255.961 81.5844 255.961 80.5325C255.961 78.4416 255.481 76.7403 254.521 75.4156" fill="#6C6C6C"/>
<mask id="mask0_506_232" style="mask-type:luminance" maskUnits="userSpaceOnUse" x="75" y="52" width="81" height="122">
<path d="M106.464 108.683L75.4844 88.0147V139.407L102.64 120.98L95.5544 116.312L83.1107 124.661V102.545L106.872 118.405L141.668 140.765L98.8672 169.137L106.079 173.805L155.498 140.579L113.482 113.381L155.194 85.6992L105.767 52.2441L97.9705 57.5503L141.364 85.677L106.464 108.683Z" fill="white"/>
</mask>
<g mask="url(#mask0_506_232)">
<path d="M155.498 52.2441H75.4844V173.812H155.498V52.2441Z" fill="url(#paint0_linear_506_232)"/>
</g>
<mask id="mask1_506_232" style="mask-type:luminance" maskUnits="userSpaceOnUse" x="75" y="52" width="81" height="122">
<path d="M97.9705 57.5519L141.364 85.6785L106.464 108.684L75.4844 88.0162V139.409L102.64 120.981L95.5544 116.314L83.1107 124.662V102.547L106.872 118.406L141.668 140.767L98.8672 169.138L106.079 173.806L155.498 140.581L113.482 113.382L155.194 85.7008L105.767 52.2383L97.9705 57.5519Z" fill="white"/>
</mask>
<g mask="url(#mask1_506_232)">
<path d="M155.498 52.2383H75.4844V173.806H155.498V52.2383Z" fill="url(#paint1_linear_506_232)"/>
<path d="M155.498 52.2383H75.4844V173.806H155.498V52.2383Z" fill="#6C6C6C"/>
</g>
<mask id="mask2_506_232" style="mask-type:luminance" maskUnits="userSpaceOnUse" x="0" y="0" width="194" height="227">
<path d="M7.47066 160.633V65.4185L97 8.17824L186.537 65.4185V160.633L97 217.866L7.47066 160.633ZM94.9915 0.58628L1.72685 60.2162C0.6522 60.8989 0 62.0938 0 63.3702V162.682C0 163.958 0.6522 165.145 1.72685 165.836L94.9915 225.458C95.6067 225.851 96.3033 226.044 97 226.044C97.6967 226.044 98.3933 225.851 99.0085 225.458L192.281 165.836C193.355 165.153 194 163.958 194 162.682V63.3702C194 62.0938 193.348 60.9064 192.281 60.2162L99.0159 0.58628C98.4007 0.192953 97.7041 0 97.0074 0C96.3107 0 95.6141 0.192953 94.9989 0.58628" fill="white"/>
</mask>
<g mask="url(#mask2_506_232)">
<path d="M194.007 0H0V226.037H194.007V0Z" fill="url(#paint2_linear_506_232)"/>
<path d="M194.007 0H0V226.037H194.007V0Z" fill="#6C6C6C"/>
</g>
<mask id="mask3_506_232" style="mask-type:luminance" maskUnits="userSpaceOnUse" x="0" y="0" width="194" height="226">
<path d="M7.47324 160.633V65.4185L97.0026 8.17824L186.539 65.4185V160.633L97.0026 217.866L7.47324 160.633ZM94.9941 0.58628L1.72943 60.2162C1.18099 60.565 0.74372 61.0474 0.447266 61.604V164.448C0.74372 165.004 1.18099 165.487 1.72943 165.836L94.9941 225.458C95.1053 225.525 95.2164 225.592 95.3276 225.651H98.6775C98.7887 225.592 98.8999 225.532 99.0111 225.458L192.283 165.836C192.683 165.583 193.024 165.249 193.298 164.878V61.1735C193.024 60.795 192.683 60.4685 192.283 60.2162L99.0185 0.58628C98.4033 0.192953 97.7067 0 97.01 0C96.3133 0 95.6167 0.200374 95.0015 0.58628" fill="white"/>
</mask>
<g mask="url(#mask3_506_232)">
<path d="M193.298 0H0.447266V225.644H193.298V0Z" fill="url(#paint3_linear_506_232)"/>
<path d="M193.298 0H0.447266V225.644H193.298V0Z" fill="#6C6C6C"/>
</g>
<path d="M241.47 149.9H233.16L230.94 155.39H228L236.64 134.09H238.2L246.87 155.39H243.75L241.47 149.9ZM234.06 147.38H240.6L238.17 141.41L237.36 138.2H237.3L236.49 141.47L234.06 147.38Z" fill="#6C6C6C"/>
<path d="M261.286 149.87C261.286 149.05 261.016 148.4 260.476 147.92C259.936 147.44 259.256 147.03 258.436 146.69C257.616 146.33 256.736 146 255.796 145.7C254.856 145.38 253.976 144.98 253.156 144.5C252.336 144.02 251.656 143.4 251.116 142.64C250.576 141.88 250.306 140.89 250.306 139.67C250.306 137.97 250.926 136.6 252.166 135.56C253.426 134.52 255.216 134 257.536 134C258.876 134 260.106 134.1 261.226 134.3C262.346 134.5 263.226 134.76 263.866 135.08L262.936 137.6C262.436 137.34 261.686 137.11 260.686 136.91C259.686 136.69 258.586 136.58 257.386 136.58C256.026 136.58 255.006 136.87 254.326 137.45C253.646 138.03 253.306 138.7 253.306 139.46C253.306 140.24 253.576 140.87 254.116 141.35C254.656 141.83 255.336 142.26 256.156 142.64C256.976 143 257.856 143.35 258.796 143.69C259.736 144.03 260.616 144.45 261.436 144.95C262.256 145.45 262.936 146.07 263.476 146.81C264.016 147.53 264.286 148.46 264.286 149.6C264.286 150.54 264.106 151.39 263.746 152.15C263.386 152.91 262.866 153.56 262.186 154.1C261.506 154.64 260.686 155.06 259.726 155.36C258.766 155.64 257.676 155.78 256.456 155.78C254.816 155.78 253.426 155.65 252.286 155.39C251.166 155.15 250.316 154.89 249.736 154.61L250.726 152C251.226 152.26 251.976 152.53 252.976 152.81C253.996 153.07 255.116 153.2 256.336 153.2C257.036 153.2 257.686 153.14 258.286 153.02C258.886 152.88 259.406 152.68 259.846 152.42C260.306 152.14 260.656 151.79 260.896 151.37C261.156 150.95 261.286 150.45 261.286 149.87Z" fill="#6C6C6C"/>
<path d="M279.918 149.87C279.918 149.05 279.648 148.4 279.108 147.92C278.568 147.44 277.888 147.03 277.068 146.69C276.248 146.33 275.368 146 274.428 145.7C273.488 145.38 272.608 144.98 271.788 144.5C270.968 144.02 270.288 143.4 269.748 142.64C269.208 141.88 268.938 140.89 268.938 139.67C268.938 137.97 269.558 136.6 270.798 135.56C272.058 134.52 273.848 134 276.168 134C277.508 134 278.738 134.1 279.858 134.3C280.978 134.5 281.858 134.76 282.498 135.08L281.568 137.6C281.068 137.34 280.318 137.11 279.318 136.91C278.318 136.69 277.218 136.58 276.018 136.58C274.658 136.58 273.638 136.87 272.958 137.45C272.278 138.03 271.938 138.7 271.938 139.46C271.938 140.24 272.208 140.87 272.748 141.35C273.288 141.83 273.968 142.26 274.788 142.64C275.608 143 276.488 143.35 277.428 143.69C278.368 144.03 279.248 144.45 280.068 144.95C280.888 145.45 281.568 146.07 282.108 146.81C282.648 147.53 282.918 148.46 282.918 149.6C282.918 150.54 282.738 151.39 282.378 152.15C282.018 152.91 281.498 153.56 280.818 154.1C280.138 154.64 279.318 155.06 278.358 155.36C277.398 155.64 276.308 155.78 275.088 155.78C273.448 155.78 272.058 155.65 270.918 155.39C269.798 155.15 268.948 154.89 268.368 154.61L269.358 152C269.858 152.26 270.608 152.53 271.608 152.81C272.628 153.07 273.748 153.2 274.968 153.2C275.668 153.2 276.318 153.14 276.918 153.02C277.518 152.88 278.038 152.68 278.478 152.42C278.938 152.14 279.288 151.79 279.528 151.37C279.788 150.95 279.918 150.45 279.918 149.87Z" fill="#6C6C6C"/>
<path d="M288.229 134.39H300.919V136.97H291.229V143.36H300.079V145.94H291.229V152.81H301.069V155.39H288.229V134.39Z" fill="#6C6C6C"/>
<path d="M322.038 137.03H314.958V155.39H311.958V137.03H304.878V134.39H322.038V137.03Z" fill="#6C6C6C"/>
<path d="M336.809 149.87C336.809 149.05 336.539 148.4 335.999 147.92C335.459 147.44 334.779 147.03 333.959 146.69C333.139 146.33 332.259 146 331.319 145.7C330.379 145.38 329.499 144.98 328.679 144.5C327.859 144.02 327.179 143.4 326.639 142.64C326.099 141.88 325.829 140.89 325.829 139.67C325.829 137.97 326.449 136.6 327.689 135.56C328.949 134.52 330.739 134 333.059 134C334.399 134 335.629 134.1 336.749 134.3C337.869 134.5 338.749 134.76 339.389 135.08L338.459 137.6C337.959 137.34 337.209 137.11 336.209 136.91C335.209 136.69 334.109 136.58 332.909 136.58C331.549 136.58 330.529 136.87 329.849 137.45C329.169 138.03 328.829 138.7 328.829 139.46C328.829 140.24 329.099 140.87 329.639 141.35C330.179 141.83 330.859 142.26 331.679 142.64C332.499 143 333.379 143.35 334.319 143.69C335.259 144.03 336.139 144.45 336.959 144.95C337.779 145.45 338.459 146.07 338.999 146.81C339.539 147.53 339.809 148.46 339.809 149.6C339.809 150.54 339.629 151.39 339.269 152.15C338.909 152.91 338.389 153.56 337.709 154.1C337.029 154.64 336.209 155.06 335.249 155.36C334.289 155.64 333.199 155.78 331.979 155.78C330.339 155.78 328.949 155.65 327.809 155.39C326.689 155.15 325.839 154.89 325.259 154.61L326.249 152C326.749 152.26 327.499 152.53 328.499 152.81C329.519 153.07 330.639 153.2 331.859 153.2C332.559 153.2 333.209 153.14 333.809 153.02C334.409 152.88 334.929 152.68 335.369 152.42C335.829 152.14 336.179 151.79 336.419 151.37C336.679 150.95 336.809 150.45 336.809 149.87Z" fill="#6C6C6C"/>
<path d="M356.131 149.72C356.131 148.92 356.281 148.17 356.581 147.47C356.881 146.75 357.281 146.08 357.781 145.46C358.301 144.82 358.891 144.24 359.551 143.72C360.231 143.2 360.941 142.74 361.681 142.34C361.161 141.64 360.711 140.94 360.331 140.24C359.971 139.52 359.791 138.75 359.791 137.93C359.791 137.45 359.881 136.98 360.061 136.52C360.241 136.04 360.521 135.62 360.901 135.26C361.301 134.88 361.811 134.58 362.431 134.36C363.051 134.12 363.801 134 364.681 134C365.601 134 366.371 134.11 366.991 134.33C367.631 134.55 368.141 134.84 368.521 135.2C368.901 135.54 369.171 135.93 369.331 136.37C369.491 136.81 369.571 137.25 369.571 137.69C369.571 138.51 369.221 139.37 368.521 140.27C367.841 141.17 366.731 142.01 365.191 142.79C365.951 143.95 366.841 145.11 367.861 146.27C368.881 147.43 369.921 148.51 370.981 149.51C371.221 149.27 371.461 148.97 371.701 148.61C371.961 148.25 372.201 147.86 372.421 147.44C372.641 147.02 372.851 146.6 373.051 146.18C373.251 145.74 373.421 145.32 373.561 144.92L375.721 146.03C375.601 146.37 375.421 146.77 375.181 147.23C374.941 147.69 374.671 148.16 374.371 148.64C374.091 149.1 373.801 149.55 373.501 149.99C373.201 150.41 372.921 150.77 372.661 151.07C373.101 151.45 373.491 151.78 373.831 152.06C374.191 152.32 374.521 152.55 374.821 152.75C375.141 152.95 375.441 153.13 375.721 153.29C376.001 153.45 376.291 153.6 376.591 153.74L374.911 155.78C374.351 155.5 373.731 155.13 373.051 154.67C372.391 154.21 371.711 153.66 371.011 153.02C370.611 153.38 370.171 153.73 369.691 154.07C369.231 154.39 368.701 154.68 368.101 154.94C367.521 155.18 366.871 155.38 366.151 155.54C365.431 155.7 364.641 155.78 363.781 155.78C362.741 155.78 361.761 155.65 360.841 155.39C359.921 155.11 359.111 154.71 358.411 154.19C357.711 153.67 357.151 153.04 356.731 152.3C356.331 151.54 356.131 150.68 356.131 149.72ZM369.271 151.31C368.671 150.75 368.061 150.14 367.441 149.48C366.841 148.82 366.271 148.17 365.731 147.53C365.191 146.87 364.681 146.24 364.201 145.64C363.741 145.04 363.341 144.51 363.001 144.05C361.821 144.85 360.851 145.69 360.091 146.57C359.351 147.43 358.981 148.44 358.981 149.6C358.981 150.18 359.121 150.71 359.401 151.19C359.681 151.65 360.051 152.05 360.511 152.39C360.991 152.71 361.541 152.96 362.161 153.14C362.801 153.3 363.471 153.38 364.171 153.38C364.691 153.38 365.201 153.32 365.701 153.2C366.221 153.08 366.701 152.93 367.141 152.75C367.601 152.55 368.011 152.33 368.371 152.09C368.731 151.83 369.031 151.57 369.271 151.31ZM362.641 137.99C362.641 138.55 362.761 139.11 363.001 139.67C363.261 140.21 363.601 140.77 364.021 141.35C365.141 140.71 365.921 140.13 366.361 139.61C366.821 139.09 367.051 138.63 367.051 138.23C367.051 137.59 366.881 137.09 366.541 136.73C366.221 136.35 365.641 136.16 364.801 136.16C364.041 136.16 363.491 136.33 363.151 136.67C362.811 136.99 362.641 137.43 362.641 137.99Z" fill="#6C6C6C"/>
<path d="M403.22 149.87C403.22 149.05 402.95 148.4 402.41 147.92C401.87 147.44 401.19 147.03 400.37 146.69C399.55 146.33 398.67 146 397.73 145.7C396.79 145.38 395.91 144.98 395.09 144.5C394.27 144.02 393.59 143.4 393.05 142.64C392.51 141.88 392.24 140.89 392.24 139.67C392.24 137.97 392.86 136.6 394.1 135.56C395.36 134.52 397.15 134 399.47 134C400.81 134 402.04 134.1 403.16 134.3C404.28 134.5 405.16 134.76 405.8 135.08L404.87 137.6C404.37 137.34 403.62 137.11 402.62 136.91C401.62 136.69 400.52 136.58 399.32 136.58C397.96 136.58 396.94 136.87 396.26 137.45C395.58 138.03 395.24 138.7 395.24 139.46C395.24 140.24 395.51 140.87 396.05 141.35C396.59 141.83 397.27 142.26 398.09 142.64C398.91 143 399.79 143.35 400.73 143.69C401.67 144.03 402.55 144.45 403.37 144.95C404.19 145.45 404.87 146.07 405.41 146.81C405.95 147.53 406.22 148.46 406.22 149.6C406.22 150.54 406.04 151.39 405.68 152.15C405.32 152.91 404.8 153.56 404.12 154.1C403.44 154.64 402.62 155.06 401.66 155.36C400.7 155.64 399.61 155.78 398.39 155.78C396.75 155.78 395.36 155.65 394.22 155.39C393.1 155.15 392.25 154.89 391.67 154.61L392.66 152C393.16 152.26 393.91 152.53 394.91 152.81C395.93 153.07 397.05 153.2 398.27 153.2C398.97 153.2 399.62 153.14 400.22 153.02C400.82 152.88 401.34 152.68 401.78 152.42C402.24 152.14 402.59 151.79 402.83 151.37C403.09 150.95 403.22 150.45 403.22 149.87Z" fill="#6C6C6C"/>
<path d="M411.532 134.39H424.222V136.97H414.532V143.36H423.382V145.94H414.532V152.81H424.372V155.39H411.532V134.39Z" fill="#6C6C6C"/>
<path d="M445.13 154.49C444.47 154.97 443.63 155.3 442.61 155.48C441.59 155.68 440.51 155.78 439.37 155.78C438.03 155.78 436.75 155.57 435.53 155.15C434.33 154.71 433.27 154.05 432.35 153.17C431.43 152.27 430.7 151.14 430.16 149.78C429.62 148.4 429.35 146.77 429.35 144.89C429.35 142.93 429.65 141.26 430.25 139.88C430.85 138.5 431.63 137.38 432.59 136.52C433.55 135.64 434.63 135 435.83 134.6C437.03 134.2 438.22 134 439.4 134C440.72 134 441.8 134.07 442.64 134.21C443.48 134.35 444.19 134.53 444.77 134.75L444.11 137.33C443.13 136.87 441.64 136.64 439.64 136.64C438.74 136.64 437.86 136.79 437 137.09C436.16 137.37 435.4 137.84 434.72 138.5C434.06 139.14 433.53 139.99 433.13 141.05C432.73 142.09 432.53 143.37 432.53 144.89C432.53 146.25 432.72 147.45 433.1 148.49C433.48 149.51 434 150.37 434.66 151.07C435.34 151.75 436.13 152.27 437.03 152.63C437.95 152.97 438.95 153.14 440.03 153.14C441.01 153.14 441.86 153.05 442.58 152.87C443.3 152.69 443.91 152.46 444.41 152.18L445.13 154.49Z" fill="#6C6C6C"/>
<path d="M463.341 134.39H466.161V148.1C466.161 149.4 465.971 150.52 465.591 151.46C465.231 152.4 464.711 153.19 464.031 153.83C463.351 154.45 462.541 154.91 461.601 155.21C460.681 155.51 459.651 155.66 458.511 155.66C455.811 155.66 453.751 155.08 452.331 153.92C450.911 152.74 450.201 151 450.201 148.7V134.39H453.201V147.56C453.201 149.6 453.641 151.02 454.521 151.82C455.421 152.62 456.741 153.02 458.481 153.02C460.161 153.02 461.391 152.58 462.171 151.7C462.951 150.82 463.341 149.41 463.341 147.47V134.39Z" fill="#6C6C6C"/>
<path d="M472.7 134.6C473.12 134.52 473.58 134.45 474.08 134.39C474.6 134.33 475.12 134.28 475.64 134.24C476.16 134.2 476.68 134.17 477.2 134.15C477.72 134.13 478.21 134.12 478.67 134.12C479.67 134.12 480.63 134.22 481.55 134.42C482.49 134.62 483.31 134.95 484.01 135.41C484.73 135.87 485.3 136.47 485.72 137.21C486.16 137.95 486.38 138.86 486.38 139.94C486.38 140.78 486.25 141.54 485.99 142.22C485.73 142.9 485.37 143.5 484.91 144.02C484.45 144.54 483.9 144.98 483.26 145.34C482.64 145.68 481.96 145.94 481.22 146.12L482.78 147.17L488.42 155.39H484.97L478.73 146.54L475.7 146.12V155.39H472.7V134.6ZM478.76 136.7C478.48 136.7 478.19 136.7 477.89 136.7C477.61 136.7 477.33 136.71 477.05 136.73C476.77 136.75 476.51 136.77 476.27 136.79C476.03 136.81 475.84 136.84 475.7 136.88V144.14H478.16C478.88 144.14 479.54 144.07 480.14 143.93C480.76 143.77 481.29 143.54 481.73 143.24C482.19 142.92 482.55 142.51 482.81 142.01C483.07 141.51 483.2 140.9 483.2 140.18C483.2 139.1 482.82 138.25 482.06 137.63C481.3 137.01 480.2 136.7 478.76 136.7Z" fill="#6C6C6C"/>
<path d="M495.3 136.37H492.9V134.39H500.7V136.37H498.3V153.41H500.7V155.39H492.9V153.41H495.3V136.37Z" fill="#6C6C6C"/>
<path d="M521.713 137.03H514.633V155.39H511.633V137.03H504.553V134.39H521.713V137.03Z" fill="#6C6C6C"/>
<path d="M527.963 136.37H525.563V134.39H533.363V136.37H530.963V153.41H533.363V155.39H525.563V153.41H527.963V136.37Z" fill="#6C6C6C"/>
<path d="M539.316 134.39H552.006V136.97H542.316V143.36H551.166V145.94H542.316V152.81H552.156V155.39H539.316V134.39Z" fill="#6C6C6C"/>
<path d="M568.385 149.87C568.385 149.05 568.115 148.4 567.575 147.92C567.035 147.44 566.355 147.03 565.535 146.69C564.715 146.33 563.835 146 562.895 145.7C561.955 145.38 561.075 144.98 560.255 144.5C559.435 144.02 558.755 143.4 558.215 142.64C557.675 141.88 557.405 140.89 557.405 139.67C557.405 137.97 558.025 136.6 559.265 135.56C560.525 134.52 562.315 134 564.635 134C565.975 134 567.205 134.1 568.325 134.3C569.445 134.5 570.325 134.76 570.965 135.08L570.035 137.6C569.535 137.34 568.785 137.11 567.785 136.91C566.785 136.69 565.685 136.58 564.485 136.58C563.125 136.58 562.105 136.87 561.425 137.45C560.745 138.03 560.405 138.7 560.405 139.46C560.405 140.24 560.675 140.87 561.215 141.35C561.755 141.83 562.435 142.26 563.255 142.64C564.075 143 564.955 143.35 565.895 143.69C566.835 144.03 567.715 144.45 568.535 144.95C569.355 145.45 570.035 146.07 570.575 146.81C571.115 147.53 571.385 148.46 571.385 149.6C571.385 150.54 571.205 151.39 570.845 152.15C570.485 152.91 569.965 153.56 569.285 154.1C568.605 154.64 567.785 155.06 566.825 155.36C565.865 155.64 564.775 155.78 563.555 155.78C561.915 155.78 560.525 155.65 559.385 155.39C558.265 155.15 557.415 154.89 556.835 154.61L557.825 152C558.325 152.26 559.075 152.53 560.075 152.81C561.095 153.07 562.215 153.2 563.435 153.2C564.135 153.2 564.785 153.14 565.385 153.02C565.985 152.88 566.505 152.68 566.945 152.42C567.405 152.14 567.755 151.79 567.995 151.37C568.255 150.95 568.385 150.45 568.385 149.87Z" fill="#6C6C6C"/>
</g>
<defs>
<linearGradient id="paint0_linear_506_232" x1="76.3465" y1="115.85" x2="156.522" y2="115.85" gradientUnits="userSpaceOnUse">
<stop stop-color="#FBCA00"/>
<stop offset="0.3" stop-color="#F0E6A6"/>
<stop offset="0.36" stop-color="#EBDC95"/>
<stop offset="0.47" stop-color="#DEC269"/>
<stop offset="0.63" stop-color="#C99822"/>
<stop offset="0.65" stop-color="#C7941B"/>
<stop offset="0.91" stop-color="#E5D077"/>
<stop offset="1" stop-color="#F0E597"/>
</linearGradient>
<linearGradient id="paint1_linear_506_232" x1="134.791" y1="167.59" x2="134.791" y2="46.4572" gradientUnits="userSpaceOnUse">
<stop stop-color="#FBCA00"/>
<stop offset="0.3" stop-color="#F0E6A6"/>
<stop offset="0.36" stop-color="#EBDC95"/>
<stop offset="0.47" stop-color="#DEC269"/>
<stop offset="0.63" stop-color="#C99822"/>
<stop offset="0.65" stop-color="#C7941B"/>
<stop offset="0.91" stop-color="#E5D077"/>
<stop offset="1" stop-color="#F0E597"/>
</linearGradient>
<linearGradient id="paint2_linear_506_232" x1="6.86308" y1="135.418" x2="199.763" y2="135.418" gradientUnits="userSpaceOnUse">
<stop stop-color="#FBCA00"/>
<stop offset="0.3" stop-color="#F0E6A6"/>
<stop offset="0.36" stop-color="#EBDC95"/>
<stop offset="0.47" stop-color="#DEC269"/>
<stop offset="0.63" stop-color="#C99822"/>
<stop offset="0.65" stop-color="#C7941B"/>
<stop offset="0.91" stop-color="#E5D077"/>
<stop offset="1" stop-color="#F0E597"/>
</linearGradient>
<linearGradient id="paint3_linear_506_232" x1="72.382" y1="231.603" x2="72.382" y2="6.35884" gradientUnits="userSpaceOnUse">
<stop stop-color="#FBCA00"/>
<stop offset="0.3" stop-color="#F0E6A6"/>
<stop offset="0.36" stop-color="#EBDC95"/>
<stop offset="0.47" stop-color="#DEC269"/>
<stop offset="0.63" stop-color="#C99822"/>
<stop offset="0.65" stop-color="#C7941B"/>
<stop offset="0.91" stop-color="#E5D077"/>
<stop offset="1" stop-color="#F0E597"/>
</linearGradient>
<clipPath id="clip0_506_232">
<rect width="571.385" height="227.013" fill="white"/>
</clipPath>
</defs>
</svg>
