<svg width="30" height="42" viewBox="0 0 30 42" fill="none" xmlns="http://www.w3.org/2000/svg">
<path d="M28.1302 21.2507C27.8955 21.2507 27.6609 21.2893 27.4262 21.405L14.9503 27.5758L14.7157 27.6915V32.1267L15.3414 31.8182L25.2752 26.9201V32.8981L15.1459 37.8733L5.0557 32.8595V19.5537L15.3805 14.4628L15.6152 14.3471V9.87329L14.9895 10.1818L2.1225 16.5455C1.18388 16.9697 0.636353 17.8953 0.636353 18.8981V33.5537C0.636353 34.5565 1.18388 35.4435 2.1225 35.9063L13.9726 41.7686C14.3246 41.9614 14.7548 42.0386 15.1459 42.0386C15.537 42.0386 15.9672 41.9614 16.3192 41.7686L28.2084 35.8678C29.1079 35.405 29.6945 34.5179 29.6945 33.5152V22.7548C29.6945 21.9063 28.9906 21.2507 28.1302 21.2507Z" fill="#D3B871"/>
<path d="M28.2084 6.13223L16.3583 0.269972C16.0063 0.077135 15.5761 0 15.185 0C14.7939 0 14.3637 0.077135 14.0117 0.269972L0.871008 6.74931L0.636353 6.86501V11.3003L1.2621 10.9917L15.1459 4.12672L25.2752 9.1405V15.5427L14.9503 20.6336L14.7157 20.7493V25.1846L15.3414 24.876L28.2084 18.551C29.1079 18.0882 29.6945 17.2011 29.6945 16.1983V8.48485C29.6945 7.48209 29.1079 6.59504 28.2084 6.13223Z" fill="#EDE4CB"/>
</svg>
