<svg width="25" height="25" viewBox="0 0 25 25" fill="none" xmlns="http://www.w3.org/2000/svg">
<path d="M12.5 24.7226C19.1262 24.7226 24.4979 19.351 24.4979 12.7248C24.4979 6.09855 19.1262 0.726929 12.5 0.726929C5.87376 0.726929 0.502136 6.09855 0.502136 12.7248C0.502136 19.351 5.87376 24.7226 12.5 24.7226Z" fill="#D3B871"/>
<path d="M12.5 0.726929C12.5 0.726929 12.4957 0.726929 12.4914 0.726929H12.4829C12.4829 0.726929 12.4786 0.726929 12.4743 0.726929C12.4743 0.726929 12.47 0.726929 12.4658 0.726929C12.4658 0.726929 12.4615 0.726929 12.4572 0.726929C12.4572 0.726929 12.4529 0.726929 12.4486 0.726929C12.4486 0.726929 12.4444 0.726929 12.4401 0.726929C12.4401 0.726929 12.4358 0.726929 12.4315 0.726929C12.4315 0.726929 12.4272 0.726929 12.4229 0.726929C12.4229 0.726929 12.4187 0.726929 12.4144 0.726929C12.4144 0.726929 12.4101 0.726929 12.4058 0.726929C12.4058 0.726929 12.4015 0.726929 12.3973 0.726929C12.3973 0.726929 12.393 0.726929 12.3887 0.726929C12.3887 0.726929 12.3844 0.726929 12.3801 0.726929C12.1533 0.726929 11.9307 0.73977 11.7081 0.752611C11.7081 0.752611 11.7038 0.752611 11.6996 0.752611C11.6996 0.752611 11.6953 0.752611 11.691 0.752611L11.9179 4.07417C12.119 4.06133 12.3202 4.05277 12.5214 4.05277V0.726929H12.5ZM9.38817 1.13356C9.33253 1.15068 9.2726 1.16353 9.21696 1.18065C9.21268 1.18065 9.20412 1.18065 9.19984 1.18493C9.19984 1.18493 9.19555 1.18493 9.19127 1.18493C9.19127 1.18493 9.18699 1.18493 9.18271 1.18493C9.18271 1.18493 9.18271 1.18493 9.17843 1.18493C9.17843 1.18493 9.17843 1.18493 9.17415 1.18493C9.17415 1.18493 9.17415 1.18493 9.16987 1.18493C9.16987 1.18493 9.16987 1.18493 9.16559 1.18493C9.16559 1.18493 9.16559 1.18493 9.16131 1.18493C9.16131 1.18493 9.15703 1.18493 9.15275 1.18493C9.15275 1.18493 9.15275 1.18493 9.14847 1.18493C9.14847 1.18493 9.14419 1.18493 9.13991 1.18493C9.13991 1.18493 9.13991 1.18493 9.13563 1.18493C9.13135 1.18493 9.12279 1.18493 9.11851 1.18921C9.11851 1.18921 9.11851 1.18921 9.11423 1.18921C9.11423 1.18921 9.10567 1.18921 9.10139 1.18921C9.10139 1.18921 9.10139 1.18921 9.09711 1.18921C9.09711 1.18921 9.08427 1.18921 9.07999 1.19349C9.07571 1.19349 9.06714 1.19349 9.06286 1.19777C9.06286 1.19777 9.05002 1.19777 9.04574 1.20205C9.04574 1.20205 9.04574 1.20205 9.04146 1.20205C9.03718 1.20205 9.02862 1.20205 9.02434 1.20633C9.02006 1.20633 9.0115 1.20633 9.00722 1.21061C9.00722 1.21061 9.00722 1.21061 9.00294 1.21061C8.99866 1.21061 8.9901 1.21061 8.98582 1.21489C8.98154 1.21489 8.97726 1.21489 8.9687 1.21917C8.9687 1.21917 8.9687 1.21917 8.96442 1.21917C8.96442 1.21917 8.96442 1.21917 8.96014 1.21917C8.96014 1.21917 8.96014 1.21917 8.95586 1.21917C8.95586 1.21917 8.95585 1.21917 8.95157 1.21917C8.95157 1.21917 8.94729 1.21917 8.94301 1.21917C8.94301 1.21917 8.94301 1.21917 8.93873 1.21917C8.93873 1.21917 8.93445 1.21917 8.93017 1.21917C8.93017 1.21917 8.92589 1.21917 8.92161 1.21917C8.91733 1.21917 8.90877 1.21917 8.90449 1.22345C8.82744 1.24913 8.75468 1.27053 8.67763 1.3005L9.76056 4.45085C9.9489 4.38664 10.1415 4.32671 10.3341 4.27535L9.47378 1.05652L9.38817 1.13356ZM6.49037 2.33635C6.30203 2.44764 6.11369 2.5632 5.92964 2.68306C5.92964 2.68306 5.92108 2.69162 5.9168 2.69162C5.9168 2.69162 5.9168 2.69162 5.91252 2.69162C5.91252 2.69162 5.91252 2.69162 5.90824 2.69162C5.87399 2.71302 5.83975 2.7387 5.80551 2.7601L7.67175 5.51666C7.83868 5.40537 8.00989 5.29836 8.18111 5.19563L6.51177 2.31494L6.49037 2.33635ZM4.00347 4.25395C4.00347 4.25395 3.99919 4.25823 3.99491 4.26251C3.99491 4.26251 3.99491 4.26251 3.99063 4.26679C3.99063 4.26679 3.98635 4.27107 3.98207 4.27535C3.98207 4.27535 3.97779 4.27963 3.97351 4.28391C3.97351 4.28391 3.97351 4.28391 3.96923 4.28819C3.96923 4.28819 3.96495 4.29247 3.96067 4.29675C3.96067 4.29675 3.96067 4.29675 3.95639 4.30103C3.95639 4.30103 3.95211 4.30959 3.94783 4.30959C3.94783 4.30959 3.94783 4.30959 3.94355 4.31387C3.93927 4.31815 3.93071 4.32671 3.92643 4.331C3.92643 4.331 3.92643 4.331 3.92215 4.33528C3.92215 4.33528 3.91787 4.33956 3.91359 4.34384C3.91359 4.34384 3.91359 4.34384 3.90931 4.34812C3.90931 4.34812 3.90503 4.3524 3.90075 4.35668C3.90075 4.35668 3.90075 4.35668 3.89646 4.36096C3.89646 4.36096 3.89218 4.36952 3.8879 4.3738C3.8879 4.3738 3.8879 4.3738 3.88362 4.37808C3.88362 4.37808 3.88362 4.37808 3.87934 4.38236C3.87934 4.38236 3.87506 4.38664 3.87078 4.39092V4.39948C3.87078 4.39948 3.87078 4.39948 3.8665 4.40376C3.8665 4.40376 3.8665 4.40376 3.86222 4.40804C3.86222 4.40804 3.86222 4.40804 3.85794 4.41232C3.85794 4.41232 3.85794 4.41232 3.85366 4.4166C3.85366 4.4166 3.85366 4.42088 3.84938 4.42516H3.8451V4.43372C3.8451 4.43372 3.84082 4.438 3.83654 4.44228C3.83654 4.44228 3.83654 4.44228 3.83226 4.44656C3.83226 4.44656 3.82798 4.45085 3.8237 4.45513C3.8237 4.45513 3.81942 4.45941 3.81514 4.46369C3.81086 4.46797 3.8023 4.47653 3.79802 4.48081C3.79374 4.48509 3.78518 4.49365 3.78089 4.49793C3.69529 4.5921 3.60968 4.68199 3.52835 4.78043L6.04093 6.96342C6.17362 6.81361 6.31059 6.66379 6.45184 6.52254L4.09336 4.17262L4.00347 4.25395ZM2.09871 6.74512C1.96174 6.98482 1.82905 7.2288 1.7092 7.48134L4.70117 8.94095C4.78678 8.76117 4.88523 8.5814 4.98368 8.41018L2.09871 6.7494V6.74512ZM0.90021 9.64721C0.891649 9.67717 0.883089 9.71141 0.874528 9.74137C0.874528 9.74137 0.874528 9.74566 0.874528 9.74994C0.874528 9.74994 0.874528 9.75422 0.874528 9.7585C0.874528 9.7585 0.874528 9.7585 0.874528 9.76278C0.874528 9.76706 0.874528 9.77562 0.874528 9.7799C0.818883 9.9982 0.771799 10.2165 0.728996 10.4391L3.99919 11.064C4.03772 10.8671 4.08052 10.6702 4.13188 10.4776L0.913051 9.62581L0.90021 9.64721ZM3.83226 12.7505L0.502136 12.759C0.502136 12.9345 0.506417 13.1057 0.514977 13.2812C0.514977 13.2941 0.514977 13.3069 0.514977 13.3198C0.519258 13.4096 0.523538 13.4995 0.532099 13.5894L3.85366 13.354C3.84082 13.1528 3.83226 12.9516 3.83226 12.7505ZM4.13188 14.9977L0.917332 15.8666C0.990098 16.1362 1.07142 16.4016 1.16131 16.6627L4.30738 15.5712C4.24317 15.3829 4.18325 15.1903 4.13188 14.9977ZM5.00508 17.0865L2.12867 18.7644C2.20144 18.8928 2.27849 19.0169 2.35553 19.1411C2.35553 19.1453 2.35981 19.1496 2.36409 19.1539C2.36409 19.1539 2.36409 19.1539 2.36837 19.1625C2.36837 19.1625 2.36837 19.1667 2.37266 19.171C2.37266 19.171 2.37266 19.171 2.37266 19.1753C2.37266 19.1753 2.37266 19.1753 2.37266 19.1796C2.37266 19.1796 2.37266 19.1796 2.37266 19.1839C2.37266 19.1839 2.37266 19.1839 2.37266 19.1881C2.37266 19.1881 2.37266 19.1924 2.37694 19.1967C2.37694 19.1967 2.37694 19.1967 2.37694 19.201C2.4283 19.278 2.47966 19.3551 2.53103 19.4321L5.2833 17.5573C5.17201 17.3904 5.065 17.2192 4.96228 17.048L5.00508 17.0865ZM6.3962 18.88L4.05056 21.2427C4.05056 21.2427 4.05056 21.2427 4.05484 21.247C4.05484 21.247 4.05912 21.2513 4.0634 21.2556C4.0634 21.2556 4.06768 21.2598 4.07196 21.2641C4.07196 21.2641 4.07624 21.2684 4.08052 21.2727C4.08052 21.2727 4.0848 21.277 4.08908 21.2812C4.27314 21.461 4.46147 21.6322 4.65409 21.7992L6.83279 19.278C6.68298 19.1453 6.53317 19.0084 6.39192 18.8671L6.3962 18.88ZM8.20251 20.2582L6.54601 23.1475C6.72579 23.2502 6.90984 23.3487 7.0939 23.4428C7.0939 23.4428 7.09818 23.4428 7.10246 23.4428C7.10246 23.4428 7.10674 23.4428 7.11102 23.4428C7.11102 23.4428 7.1153 23.4428 7.11958 23.4428C7.17094 23.4685 7.22231 23.4942 7.26939 23.5156L8.72044 20.5193C8.54066 20.4337 8.36088 20.3396 8.18967 20.2411L8.20251 20.2582ZM10.2956 21.1143L9.45238 24.3374C9.71776 24.4059 9.9917 24.4701 10.2656 24.5215L10.882 21.247C10.6851 21.2085 10.4882 21.1657 10.2956 21.1143ZM13.1549 21.3711C12.9537 21.384 12.7525 21.3925 12.5514 21.3968L12.5685 24.7269C12.7012 24.7269 12.8296 24.7269 12.958 24.7184C12.958 24.7184 12.9666 24.7184 12.9708 24.7184C12.9708 24.7184 12.9708 24.7184 12.9751 24.7184H12.9837C12.9837 24.7184 12.9837 24.7184 12.988 24.7184C12.988 24.7184 12.9922 24.7184 12.9965 24.7184C12.9965 24.7184 12.9965 24.7184 13.0008 24.7184C13.0008 24.7184 13.0051 24.7184 13.0094 24.7184C13.0094 24.7184 13.0094 24.7184 13.0136 24.7184C13.0136 24.7184 13.0136 24.7184 13.0179 24.7184C13.0179 24.7184 13.0222 24.7184 13.0265 24.7184C13.0265 24.7184 13.0265 24.7184 13.0308 24.7184C13.0308 24.7184 13.035 24.7184 13.0393 24.7184C13.0393 24.7184 13.0393 24.7184 13.0436 24.7184C13.0436 24.7184 13.0479 24.7184 13.0522 24.7184C13.0522 24.7184 13.0564 24.7184 13.0607 24.7184C13.0607 24.7184 13.065 24.7184 13.0693 24.7184C13.0693 24.7184 13.0736 24.7184 13.0778 24.7184C13.0778 24.7184 13.0821 24.7184 13.0864 24.7184C13.0864 24.7184 13.0907 24.7184 13.095 24.7184C13.0992 24.7184 13.1078 24.7184 13.1121 24.7184C13.1934 24.7141 13.2747 24.7098 13.3518 24.7012L13.1078 21.3797L13.1549 21.3711ZM15.3678 20.9088C15.1795 20.9731 14.9869 21.033 14.7943 21.0886L15.6717 24.2989C15.7017 24.2903 15.7317 24.2818 15.7574 24.2732C15.7574 24.2732 15.7574 24.2732 15.7616 24.2732C15.7616 24.2732 15.7659 24.2732 15.7702 24.2732C15.7702 24.2732 15.7702 24.2732 15.7745 24.2732C15.7745 24.2732 15.7788 24.2732 15.783 24.2732C15.783 24.2732 15.7873 24.2732 15.7916 24.2732C15.95 24.2261 16.1083 24.179 16.2667 24.1277C16.2667 24.1277 16.271 24.1277 16.2753 24.1277C16.2753 24.1277 16.2796 24.1277 16.2838 24.1277C16.2838 24.1277 16.2838 24.1277 16.2881 24.1277C16.2881 24.1277 16.2881 24.1277 16.2924 24.1277C16.2924 24.1277 16.2924 24.1277 16.2967 24.1277C16.2967 24.1277 16.2967 24.1277 16.301 24.1277C16.3438 24.1106 16.3908 24.0977 16.4337 24.0806L15.3336 20.9388L15.3678 20.9088ZM17.3882 19.8858C17.2212 19.9971 17.0543 20.1084 16.8788 20.2069L18.5653 23.079C18.668 23.0191 18.7707 22.9549 18.8735 22.8907C18.8777 22.8907 18.882 22.8864 18.8863 22.8821C18.8863 22.8821 18.8906 22.8821 18.8949 22.8778C18.8949 22.8778 18.8991 22.8778 18.9034 22.8735H18.9077C18.9077 22.8735 18.912 22.8735 18.9163 22.8693C18.9163 22.8693 18.9205 22.8693 18.9248 22.865C18.9248 22.865 18.9248 22.865 18.9291 22.865C18.9291 22.865 18.9291 22.865 18.9334 22.865C18.9334 22.865 18.9334 22.865 18.9377 22.865C18.9377 22.865 18.9377 22.865 18.9419 22.865C18.9419 22.865 18.9462 22.865 18.9505 22.8607C18.9505 22.8607 18.9505 22.8607 18.9548 22.8607C18.9591 22.8607 18.9633 22.8564 18.9676 22.8521C18.9676 22.8521 18.9676 22.8521 18.9719 22.8521C18.9762 22.8521 18.9805 22.8436 18.989 22.8436C19.0661 22.7922 19.1388 22.7451 19.2159 22.6938C19.2159 22.6938 19.2159 22.6938 19.2202 22.6938C19.2202 22.6938 19.2202 22.6938 19.2244 22.6938L17.3454 19.9458L17.3882 19.8858ZM19.0832 18.3706C18.9548 18.5204 18.8135 18.6702 18.6766 18.8157L21.0479 21.1528C21.0479 21.1528 21.0522 21.1485 21.0564 21.1443C21.0607 21.14 21.0693 21.1314 21.0736 21.1271C21.0778 21.1229 21.0864 21.1143 21.0907 21.11C21.0907 21.11 21.095 21.1057 21.0992 21.1015C21.0992 21.1015 21.1035 21.0972 21.1078 21.0929C21.1078 21.0929 21.1121 21.0886 21.1164 21.0843C21.1206 21.0801 21.1292 21.0715 21.1335 21.0672C21.1378 21.0629 21.1463 21.0544 21.1506 21.0501C21.3047 20.8874 21.4588 20.7205 21.6043 20.5493L19.0789 18.3792L19.0832 18.3706ZM20.3245 16.4701C20.2389 16.6499 20.1447 16.8297 20.0463 17.0009L22.9398 18.6488C22.9612 18.6103 22.9826 18.576 22.9997 18.5375C22.9997 18.5375 22.9997 18.5332 22.9997 18.529C22.9997 18.529 22.9997 18.5247 22.9997 18.5204C22.9997 18.5204 22.9997 18.5204 22.9997 18.5161C22.9997 18.5161 22.9997 18.5161 22.9997 18.5118C22.9997 18.5118 22.9997 18.5118 22.9997 18.5076C22.9997 18.5076 22.9997 18.5076 22.9997 18.5033C22.9997 18.5033 22.9997 18.5033 22.9997 18.499C22.9997 18.4947 23.004 18.4904 23.0083 18.4819C23.0554 18.3963 23.1025 18.3064 23.1495 18.2165C23.1495 18.2122 23.1538 18.2037 23.1581 18.1994C23.1581 18.1994 23.1667 18.1823 23.1709 18.178C23.1709 18.1737 23.1752 18.1651 23.1795 18.1609V18.1566C23.1795 18.1523 23.1838 18.1437 23.1881 18.1395C23.1881 18.1395 23.1923 18.1266 23.1966 18.1223C23.1966 18.1223 23.1966 18.1223 23.1966 18.118C23.1966 18.118 23.2009 18.1052 23.2052 18.1009C23.2052 18.0966 23.2095 18.0881 23.2137 18.0838V18.0795C23.2137 18.0795 23.218 18.0667 23.2223 18.0624C23.2223 18.0624 23.2266 18.0496 23.2309 18.0453C23.2309 18.0453 23.2309 18.0453 23.2309 18.041C23.248 18.011 23.2608 17.9768 23.278 17.9468L20.2774 16.5044L20.3245 16.4701ZM21.0265 14.3214C20.9922 14.5183 20.9452 14.7152 20.8981 14.9078L24.1212 15.7424C24.1897 15.4728 24.2496 15.2031 24.301 14.9292L21.0265 14.3214ZM24.4636 11.7959L21.1421 12.0485C21.1592 12.2497 21.1677 12.4508 21.1677 12.652L24.4979 12.6263C24.4979 12.5022 24.4979 12.3781 24.4893 12.2497C24.4893 12.2497 24.4893 12.2368 24.4893 12.2325C24.4893 12.2283 24.4893 12.2197 24.4893 12.2154C24.4893 12.2154 24.4893 12.2026 24.4893 12.1983C24.4893 12.1983 24.4893 12.194 24.4893 12.1897C24.4893 12.1897 24.4893 12.1855 24.4893 12.1812C24.4893 12.1812 24.4893 12.1769 24.4893 12.1726C24.4893 12.1683 24.4893 12.1598 24.4893 12.1555C24.4893 12.1512 24.4893 12.1427 24.4893 12.1384C24.4893 12.1341 24.4893 12.1255 24.4893 12.1213C24.4893 12.117 24.4893 12.1084 24.4893 12.1041C24.485 12.0057 24.4765 11.9072 24.4722 11.8088L24.4636 11.7959ZM23.8173 8.72693L20.6755 9.83554C20.7397 10.0239 20.8039 10.2165 20.8553 10.4091L24.0655 9.52308C24.0655 9.52308 24.0655 9.51452 24.0655 9.51024C24.0655 9.51024 24.0655 9.50595 24.0655 9.50167C24.0655 9.50167 24.0655 9.48883 24.0613 9.48455C24.0613 9.48027 24.0613 9.47171 24.057 9.46743C24.057 9.45887 24.0527 9.45031 24.0484 9.44175C24.0484 9.44175 24.0484 9.42891 24.0441 9.42463C24.0441 9.42035 24.0441 9.41179 24.0399 9.40751C24.0399 9.40751 24.0399 9.40751 24.0399 9.40323C24.0399 9.39895 24.0399 9.39038 24.0356 9.3861C24.0356 9.38182 24.0356 9.37326 24.0313 9.36898C24.0313 9.36898 24.0313 9.36898 24.0313 9.3647V9.35614C24.0313 9.35614 24.0313 9.35614 24.0313 9.35186C24.0313 9.35186 24.0313 9.34758 24.0313 9.3433C24.0313 9.3433 24.0313 9.3433 24.0313 9.33902C24.0313 9.33902 24.0313 9.33902 24.0313 9.33474C24.0313 9.33474 24.0313 9.33046 24.0313 9.32618C24.0313 9.32618 24.0313 9.32618 24.0313 9.3219C24.0313 9.3219 24.0313 9.31762 24.0313 9.31334V9.30478C24.0313 9.30478 24.0313 9.30478 24.0313 9.3005C24.0313 9.3005 24.0313 9.3005 24.0313 9.29622C24.0313 9.29622 24.0313 9.29622 24.0313 9.29194V9.28338C24.0313 9.28338 24.0313 9.2791 24.0313 9.27482C24.0313 9.27482 24.0313 9.27481 24.0313 9.27053C24.0313 9.27053 24.0313 9.26626 24.0313 9.26197C24.0313 9.26197 24.0313 9.26197 24.0313 9.25769C24.0313 9.25769 24.0313 9.25769 24.0313 9.25341C24.0313 9.25341 24.0313 9.24913 24.0313 9.24485C24.0313 9.24485 24.0313 9.24057 24.0313 9.23629C24.0313 9.23629 24.0313 9.23201 24.0313 9.22773C24.0313 9.22773 24.0313 9.22773 24.0313 9.22345C24.0313 9.22345 24.0313 9.21917 24.0313 9.21489C24.0313 9.21489 24.0313 9.21061 24.0313 9.20633C24.0313 9.20633 24.0313 9.20205 24.0313 9.19777C24.0313 9.19777 24.0313 9.19349 24.0313 9.18921C24.0313 9.18921 24.0313 9.18493 24.0313 9.18065C24.0313 9.18065 24.0313 9.17637 24.0313 9.17209C24.0313 9.17209 24.0313 9.16781 24.0313 9.16353C24.0313 9.15925 24.0313 9.15069 24.027 9.1464C24.027 9.1464 24.027 9.14212 24.027 9.13784C24.027 9.13356 24.027 9.125 24.0227 9.12072C24.0227 9.12072 24.0227 9.10788 24.0185 9.1036C23.9885 9.00515 23.9543 8.9067 23.92 8.81254L23.8173 8.72693ZM22.3919 5.93185L19.6482 7.81949C19.7595 7.98215 19.8708 8.15336 19.9735 8.32457L22.8414 6.62955C22.7515 6.47546 22.6573 6.32564 22.5589 6.17583C22.5589 6.17583 22.5589 6.17155 22.5546 6.16727C22.5546 6.16727 22.5546 6.16299 22.5503 6.15871C22.5503 6.15871 22.5503 6.15871 22.5503 6.15443C22.5503 6.15443 22.5503 6.15443 22.5503 6.15015C22.5503 6.15015 22.5503 6.15015 22.5503 6.14587C22.5503 6.14587 22.5503 6.14587 22.5503 6.14159C22.5503 6.14159 22.5417 6.12875 22.5417 6.12447C22.4989 6.06026 22.4561 6.00034 22.4133 5.93613L22.3919 5.93185ZM20.2903 3.59905L18.1287 6.13303C18.2828 6.26144 18.4283 6.39841 18.5738 6.53966L20.9066 4.16406C20.7953 4.05705 20.6841 3.95004 20.5728 3.84731C20.5685 3.84303 20.5599 3.83447 20.5556 3.83019C20.5514 3.82591 20.5428 3.81735 20.5385 3.81307C20.5342 3.80879 20.5257 3.80023 20.5214 3.79595C20.5214 3.79595 20.5214 3.79595 20.5171 3.79167C20.5171 3.79167 20.5086 3.78311 20.5043 3.78311C20.5043 3.78311 20.5043 3.77883 20.5 3.77883C20.4957 3.77455 20.4872 3.77027 20.4829 3.76171C20.4829 3.76171 20.4829 3.76171 20.4786 3.75743L20.47 3.74887C20.47 3.74887 20.47 3.74887 20.4658 3.74459C20.4658 3.74459 20.4615 3.7403 20.4572 3.73602C20.4572 3.73602 20.4572 3.73602 20.4529 3.73602C20.4529 3.73602 20.4529 3.73602 20.4486 3.73602C20.4486 3.73602 20.4486 3.73602 20.4444 3.73174C20.4444 3.73174 20.4444 3.73174 20.4401 3.72746C20.4401 3.72746 20.4401 3.72746 20.4358 3.72318C20.4358 3.72318 20.4315 3.7189 20.4272 3.71462C20.4272 3.71462 20.4272 3.71462 20.423 3.71034C20.423 3.71034 20.4187 3.70606 20.4144 3.70178C20.4144 3.70178 20.4101 3.70178 20.4058 3.6975C20.4058 3.6975 20.4015 3.69322 20.3973 3.68894C20.3973 3.68894 20.393 3.68466 20.3887 3.68038C20.3887 3.68038 20.3844 3.6761 20.3801 3.67182C20.3801 3.67182 20.3759 3.66754 20.3716 3.66326C20.3716 3.66326 20.3673 3.65898 20.363 3.6547C20.363 3.6547 20.3587 3.65042 20.3545 3.64614L20.2903 3.59905ZM17.6578 1.88691L16.2239 4.89172C16.4037 4.97733 16.5835 5.0715 16.7547 5.16995L18.3941 2.27214C18.3941 2.27214 18.3941 2.27214 18.3898 2.27214C18.3898 2.27214 18.3855 2.27214 18.3812 2.27214C18.3812 2.27214 18.3812 2.27214 18.3769 2.27214H18.3727C18.3727 2.27214 18.3684 2.27214 18.3641 2.27214C18.3641 2.27214 18.3641 2.27214 18.3598 2.27214C18.3598 2.27214 18.3555 2.27214 18.3513 2.27214C18.3513 2.27214 18.3513 2.27214 18.347 2.27214C18.3427 2.27214 18.3384 2.26786 18.3341 2.26358C18.3341 2.26358 18.3299 2.26358 18.3256 2.26358C18.3213 2.26358 18.317 2.2593 18.3084 2.25502C18.103 2.13945 17.889 2.03244 17.675 1.92971L17.6578 1.88691ZM14.6744 0.923825L14.0752 4.1983C14.2721 4.23255 14.469 4.27535 14.6616 4.32671L15.4877 1.09932C15.4406 1.08648 15.3935 1.07364 15.3422 1.06508C15.3422 1.06508 15.3422 1.06508 15.3379 1.06508C15.3379 1.06508 15.3379 1.06508 15.3336 1.06508C15.3336 1.06508 15.3336 1.06508 15.3293 1.06508C15.3293 1.06508 15.325 1.06508 15.3208 1.06508C15.3208 1.06508 15.3165 1.06508 15.3122 1.06508C15.1025 1.01371 14.897 0.970909 14.683 0.932386L14.6744 0.923825Z" fill="white"/>
<path d="M21.2403 12.5107C21.2403 17.0265 18.0001 21.4524 12.4784 21.4524C7.62023 21.4524 3.75934 17.5701 3.75934 12.6477C3.75934 7.72526 7.77432 4.00134 12.5469 4.00134C16.2494 4.00134 19.8235 6.56528 20.7524 9.94677H16.0483C15.2735 8.56421 14.0065 7.76806 12.4314 7.76806C9.79037 7.76806 7.94981 9.94677 7.94981 12.6477C7.94981 15.3486 9.67908 17.6857 12.4528 17.6857C14.4046 17.6857 15.8685 16.7097 16.3779 14.9848H11.4768V11.5562H21.2361V12.5107H21.2403Z" fill="white"/>
</svg>
