<svg width="25" height="24" viewBox="0 0 25 24" fill="none" xmlns="http://www.w3.org/2000/svg">
<path d="M2.99637 6.01404C2.80994 6.01404 2.63116 6.08907 2.49934 6.22264C2.36751 6.35621 2.29346 6.53736 2.29346 6.72626V15.3378C2.29386 16.4317 2.72051 17.4813 3.48063 18.2582C4.24075 19.0351 5.27285 19.4765 6.35248 19.4864H7.34279C7.08719 19.4752 6.84566 19.3647 6.66833 19.1779C6.49099 18.9911 6.39147 18.7422 6.3904 18.483V6.72626C6.3904 6.53751 6.31646 6.35649 6.18482 6.22294C6.05318 6.0894 5.87461 6.01426 5.68833 6.01404H2.99637Z" fill="url(#paint0_linear_3020_6387)"/>
<path d="M2.29346 15.3369V18.8852C2.29313 19.5091 2.41415 20.1269 2.6496 20.7034C2.88505 21.2799 3.23033 21.8037 3.66568 22.2449C4.10103 22.6861 4.61793 23.036 5.18683 23.2747C5.75574 23.5134 6.36548 23.6361 6.98122 23.6359H16.4714C17.4983 23.5519 18.4562 23.079 19.1544 22.3115C19.8526 21.5439 20.2398 20.5379 20.2388 19.4941V18.4744C20.2368 18.7416 20.1305 18.9972 19.9433 19.1853C19.756 19.3735 19.5029 19.4789 19.2392 19.4787L7.34532 19.4855H6.39546C5.30887 19.486 4.26658 19.0492 3.49769 18.2713C2.7288 17.4934 2.29626 16.4379 2.29514 15.3369H2.29346Z" fill="url(#paint1_linear_3020_6387)"/>
<path d="M7.36399 0.364141H1.44487C1.09931 0.364141 0.845625 0.651932 0.827083 1.00121C0.787124 1.93709 0.629654 2.86401 0.358476 3.75956C0.253123 4.13446 0.489113 4.52814 0.873438 4.52814H19.2326C21.9903 4.55633 24.3333 6.81425 24.3333 9.66654V5.12081C24.3334 4.1651 24.0493 3.23153 23.5182 2.44174C22.9871 1.65195 22.2335 1.04254 21.3556 0.692923L21.3194 0.67926L21.3051 0.673282C20.7726 0.468019 20.2076 0.363245 19.638 0.364141H7.36399Z" fill="url(#paint2_linear_3020_6387)"/>
<path d="M20.2312 5.53419H20.2371V18.46V19.4797C20.2379 20.5235 19.8507 21.5293 19.1525 22.2968C18.4544 23.0644 17.4965 23.5373 16.4697 23.6215C16.361 23.63 16.2523 23.6351 16.1419 23.6351H19.6446C20.2604 23.6357 20.8702 23.5132 21.4392 23.2747C22.0082 23.0362 22.5252 22.6864 22.9606 22.2452C23.396 21.804 23.7413 21.2802 23.9767 20.7036C24.2121 20.1271 24.3329 19.5092 24.3324 18.8853V9.6999C24.3326 8.33147 23.7973 7.01878 22.8438 6.04964C21.8903 5.08049 20.5965 4.53398 19.246 4.52991C19.5077 4.53171 19.758 4.63831 19.9425 4.82646C20.1269 5.0146 20.2304 5.26902 20.2304 5.53419" fill="url(#paint3_linear_3020_6387)"/>
<defs>
<linearGradient id="paint0_linear_3020_6387" x1="4.81854" y1="6.01404" x2="4.81854" y2="19.4864" gradientUnits="userSpaceOnUse">
<stop offset="0.03" stop-color="#05612D"/>
<stop offset="0.3" stop-color="#017E36"/>
<stop offset="0.33" stop-color="#138838"/>
<stop offset="0.4" stop-color="#2E963C"/>
<stop offset="0.48" stop-color="#41A13F"/>
<stop offset="0.55" stop-color="#4CA740"/>
<stop offset="0.63" stop-color="#50A941"/>
<stop offset="0.73" stop-color="#57AB3C"/>
<stop offset="0.88" stop-color="#6CAF30"/>
<stop offset="0.91" stop-color="#70B02D"/>
</linearGradient>
<linearGradient id="paint1_linear_3020_6387" x1="20.2388" y1="19.4864" x2="2.29346" y2="19.4864" gradientUnits="userSpaceOnUse">
<stop offset="0.03" stop-color="#1F9CD4"/>
<stop offset="0.3" stop-color="#1470B1"/>
<stop offset="0.36" stop-color="#1A5EA2"/>
<stop offset="0.44" stop-color="#214B92"/>
<stop offset="0.53" stop-color="#254088"/>
<stop offset="0.63" stop-color="#263C85"/>
<stop offset="0.69" stop-color="#25397E"/>
<stop offset="0.79" stop-color="#223169"/>
<stop offset="0.9" stop-color="#1E2448"/>
<stop offset="0.91" stop-color="#1E2345"/>
</linearGradient>
<linearGradient id="paint2_linear_3020_6387" x1="2.6383" y1="-2.337" x2="24.179" y2="9.93695" gradientUnits="userSpaceOnUse">
<stop stop-color="#EDE229"/>
<stop offset="0.44" stop-color="#F3A30F"/>
<stop offset="0.57" stop-color="#E96316"/>
<stop offset="0.68" stop-color="#E1321B"/>
<stop offset="0.73" stop-color="#DE1F1D"/>
<stop offset="0.84" stop-color="#DC1820"/>
<stop offset="1" stop-color="#DB1222"/>
</linearGradient>
<linearGradient id="paint3_linear_3020_6387" x1="20.2388" y1="23.6368" x2="20.2388" y2="4.52991" gradientUnits="userSpaceOnUse">
<stop stop-color="#293170"/>
<stop offset="0.06" stop-color="#313272"/>
<stop offset="0.14" stop-color="#473577"/>
<stop offset="0.25" stop-color="#6A3A7F"/>
<stop offset="0.29" stop-color="#793C82"/>
<stop offset="0.44" stop-color="#803483"/>
<stop offset="0.66" stop-color="#852E83"/>
<stop offset="0.97" stop-color="#59132A"/>
<stop offset="1" stop-color="#551022"/>
</linearGradient>
</defs>
</svg>
