<svg width="479" height="235" viewBox="0 0 479 235" fill="none" xmlns="http://www.w3.org/2000/svg">
<g filter="url(#filter0_dd_3014_6000)">
<path d="M20.42 20.5C20.42 9.45431 29.3743 0.5 40.42 0.5H438.036C449.082 0.5 458.036 9.4543 458.036 20.5V174.5C458.036 185.546 449.082 194.5 438.036 194.5H40.42C29.3743 194.5 20.42 185.546 20.42 174.5V20.5Z" fill="white"/>
<path d="M20.92 20.5C20.92 9.73045 29.6504 1 40.42 1H438.036C448.806 1 457.536 9.73045 457.536 20.5V174.5C457.536 185.27 448.806 194 438.036 194H40.42C29.6504 194 20.92 185.27 20.92 174.5V20.5Z" stroke="#E8E6E1"/>
<path d="M48.8255 32.0078C48.7659 31.4496 48.5145 31.0149 48.0713 30.7038C47.6324 30.3928 47.0613 30.2372 46.3582 30.2372C45.8639 30.2372 45.4399 30.3118 45.0862 30.4609C44.7325 30.6101 44.4619 30.8125 44.2744 31.0682C44.0869 31.3239 43.991 31.6158 43.9868 31.9439C43.9868 32.2166 44.0485 32.4531 44.1721 32.6534C44.3 32.8537 44.4726 33.0241 44.6899 33.1648C44.9072 33.3011 45.148 33.4162 45.4122 33.5099C45.6764 33.6037 45.9427 33.6825 46.2112 33.7464L47.4385 34.0533C47.9328 34.1683 48.4079 34.3239 48.8639 34.5199C49.3241 34.7159 49.7353 34.9631 50.0976 35.2614C50.464 35.5597 50.7538 35.9197 50.9669 36.3416C51.1799 36.7635 51.2865 37.2578 51.2865 37.8246C51.2865 38.5916 51.0905 39.267 50.6984 39.8509C50.3064 40.4304 49.7396 40.8842 48.9981 41.2124C48.2609 41.5362 47.3682 41.6982 46.3199 41.6982C45.3014 41.6982 44.4172 41.5405 43.6672 41.2251C42.9214 40.9098 42.3376 40.4496 41.9157 39.8445C41.4981 39.2393 41.2723 38.5021 41.2382 37.6328H43.5713C43.6054 38.0888 43.746 38.468 43.9932 38.7706C44.2403 39.0732 44.562 39.299 44.9584 39.4482C45.3589 39.5973 45.8064 39.6719 46.3007 39.6719C46.8163 39.6719 47.268 39.5952 47.6558 39.4418C48.0478 39.2841 48.3547 39.0668 48.5762 38.7898C48.7978 38.5085 48.9108 38.1804 48.915 37.8054C48.9108 37.4645 48.8106 37.1832 48.6146 36.9616C48.4186 36.7358 48.1437 36.5483 47.79 36.3991C47.4406 36.2457 47.0315 36.1094 46.5628 35.9901L45.0734 35.6065C43.9953 35.3295 43.143 34.9098 42.5166 34.3473C41.8944 33.7805 41.5834 33.0284 41.5834 32.0909C41.5834 31.3196 41.7922 30.6442 42.2098 30.0646C42.6316 29.4851 43.2048 29.0355 43.9292 28.7159C44.6537 28.392 45.474 28.2301 46.3902 28.2301C47.3191 28.2301 48.1331 28.392 48.8319 28.7159C49.5351 29.0355 50.0869 29.4808 50.4875 30.0518C50.888 30.6186 51.0947 31.2706 51.1075 32.0078H48.8255ZM55.3247 41.5L52.5505 31.6818H54.9092L56.635 38.5852H56.7245L58.4887 31.6818H60.8218L62.586 38.5469H62.6819L64.3822 31.6818H66.7472L63.9667 41.5H61.5569L59.716 34.8651H59.5818L57.7408 41.5H55.3247ZM71.1881 41.6982C70.566 41.6982 70.0056 41.5874 69.507 41.3658C69.0127 41.1399 68.6206 40.8075 68.3309 40.3686C68.0454 39.9297 67.9026 39.3885 67.9026 38.745C67.9026 38.1911 68.0049 37.733 68.2094 37.3707C68.414 37.0085 68.6931 36.7188 69.0468 36.5014C69.4005 36.2841 69.7989 36.12 70.2421 36.0092C70.6895 35.8942 71.1519 35.8111 71.6292 35.7599C72.2044 35.7003 72.6711 35.647 73.029 35.6001C73.387 35.549 73.6469 35.4723 73.8088 35.37C73.975 35.2635 74.0581 35.0994 74.0581 34.8778V34.8395C74.0581 34.358 73.9154 33.9851 73.6299 33.7209C73.3444 33.4567 72.9331 33.3246 72.3962 33.3246C71.8294 33.3246 71.3799 33.4482 71.0475 33.6953C70.7194 33.9425 70.4978 34.2344 70.3827 34.571L68.2222 34.2642C68.3927 33.6676 68.6739 33.169 69.0659 32.7685C69.458 32.3636 69.9374 32.0611 70.5042 31.8608C71.0709 31.6562 71.6973 31.554 72.3834 31.554C72.8564 31.554 73.3273 31.6094 73.7961 31.7202C74.2648 31.831 74.6931 32.0142 75.0809 32.2699C75.4686 32.5213 75.7797 32.8643 76.0141 33.299C76.2527 33.7337 76.3721 34.277 76.3721 34.929V41.5H74.1476V40.1513H74.0709C73.9303 40.424 73.7321 40.6797 73.4765 40.9183C73.225 41.1527 72.9076 41.3423 72.524 41.4872C72.1448 41.6278 71.6995 41.6982 71.1881 41.6982ZM71.789 39.9979C72.2535 39.9979 72.6561 39.9062 72.9971 39.723C73.338 39.5355 73.6 39.2884 73.7833 38.9815C73.9708 38.6747 74.0645 38.3402 74.0645 37.978V36.821C73.9921 36.8807 73.8685 36.9361 73.6938 36.9872C73.5233 37.0384 73.3316 37.0831 73.1185 37.1214C72.9054 37.1598 72.6945 37.1939 72.4857 37.2237C72.2769 37.2536 72.0958 37.2791 71.9424 37.3004C71.5972 37.3473 71.2883 37.424 71.0155 37.5305C70.7428 37.6371 70.5276 37.7862 70.3699 37.978C70.2123 38.1655 70.1334 38.4084 70.1334 38.7067C70.1334 39.1328 70.289 39.4545 70.6 39.6719C70.9111 39.8892 71.3074 39.9979 71.789 39.9979ZM78.6988 45.1818V31.6818H80.9743V33.3054H81.1086C81.2279 33.0668 81.3962 32.8132 81.6135 32.5447C81.8309 32.272 82.1249 32.0398 82.4956 31.848C82.8664 31.652 83.3394 31.554 83.9147 31.554C84.6732 31.554 85.3571 31.7479 85.9665 32.1357C86.5802 32.5192 87.066 33.0881 87.4239 33.8423C87.7861 34.5923 87.9672 35.5128 87.9672 36.6037C87.9672 37.6818 87.7904 38.598 87.4367 39.3523C87.083 40.1065 86.6015 40.6818 85.9921 41.0781C85.3827 41.4744 84.6924 41.6726 83.9211 41.6726C83.3586 41.6726 82.8919 41.5788 82.5212 41.3913C82.1505 41.2038 81.8522 40.978 81.6263 40.7138C81.4047 40.4453 81.2321 40.1918 81.1086 39.9531H81.0127V45.1818H78.6988ZM80.9679 36.5909C80.9679 37.2259 81.0574 37.782 81.2364 38.2592C81.4196 38.7365 81.6817 39.1094 82.0226 39.3778C82.3678 39.642 82.7854 39.7741 83.2755 39.7741C83.7868 39.7741 84.2151 39.6378 84.5603 39.3651C84.9054 39.0881 85.1654 38.7109 85.3401 38.2337C85.5191 37.7521 85.6086 37.2045 85.6086 36.5909C85.6086 35.9815 85.5212 35.4403 85.3465 34.9673C85.1718 34.4943 84.9118 34.1236 84.5667 33.8551C84.2215 33.5866 83.7911 33.4524 83.2755 33.4524C82.7811 33.4524 82.3614 33.5824 82.0162 33.8423C81.6711 34.1023 81.409 34.4666 81.23 34.9354C81.0553 35.4041 80.9679 35.956 80.9679 36.5909Z" fill="black"/>
<rect x="40.92" y="59" width="149.808" height="115" rx="19.5" stroke="#E8E6E1"/>
<path d="M72.6132 90.5C72.5038 90.1652 72.3596 89.8653 72.1807 89.6001C72.005 89.3317 71.7945 89.103 71.5493 88.9141C71.3073 88.7251 71.0322 88.581 70.724 88.4815C70.4157 88.3821 70.0777 88.3324 69.7098 88.3324C69.1066 88.3324 68.558 88.4882 68.0642 88.7997C67.5703 89.1113 67.1776 89.5703 66.8859 90.1768C66.5942 90.7834 66.4484 91.5275 66.4484 92.4091C66.4484 93.2907 66.5959 94.0348 66.8909 94.6413C67.1859 95.2479 67.5852 95.7069 68.089 96.0185C68.5928 96.33 69.1596 96.4858 69.7893 96.4858C70.3726 96.4858 70.8864 96.3615 71.3305 96.1129C71.778 95.861 72.126 95.5064 72.3745 95.049C72.6264 94.5883 72.7524 94.0464 72.7524 93.4233L73.1302 93.5028H70.0677V92.4091H73.9456V93.5028C73.9456 94.3414 73.7666 95.0705 73.4086 95.6903C73.054 96.3101 72.5635 96.7907 71.937 97.1321C71.3139 97.4702 70.598 97.6392 69.7893 97.6392C68.8878 97.6392 68.0957 97.4271 67.4129 97.0028C66.7334 96.5786 66.2031 95.9754 65.822 95.1932C65.4441 94.411 65.2552 93.483 65.2552 92.4091C65.2552 91.6037 65.3629 90.8795 65.5784 90.2365C65.7971 89.5902 66.1054 89.04 66.5031 88.5859C66.9008 88.1319 67.3715 87.7839 67.915 87.5419C68.4586 87.3 69.0568 87.179 69.7098 87.179C70.2467 87.179 70.7472 87.2602 71.2112 87.4226C71.6785 87.5817 72.0945 87.8087 72.4591 88.1037C72.827 88.3954 73.1335 88.745 73.3788 89.1527C73.6241 89.5571 73.7931 90.0062 73.8859 90.5H72.6132ZM79.0004 97.6591C78.311 97.6591 77.7062 97.495 77.1858 97.1669C76.6688 96.8388 76.2644 96.3797 75.9727 95.7898C75.6844 95.1998 75.5402 94.5104 75.5402 93.7216C75.5402 92.9261 75.6844 92.2318 75.9727 91.6385C76.2644 91.0452 76.6688 90.5845 77.1858 90.2564C77.7062 89.9283 78.311 89.7642 79.0004 89.7642C79.6898 89.7642 80.293 89.9283 80.8101 90.2564C81.3305 90.5845 81.7348 91.0452 82.0232 91.6385C82.3148 92.2318 82.4607 92.9261 82.4607 93.7216C82.4607 94.5104 82.3148 95.1998 82.0232 95.7898C81.7348 96.3797 81.3305 96.8388 80.8101 97.1669C80.293 97.495 79.6898 97.6591 79.0004 97.6591ZM79.0004 96.6051C79.5241 96.6051 79.955 96.4709 80.293 96.2024C80.6311 95.9339 80.8814 95.581 81.0438 95.1435C81.2062 94.706 81.2874 94.232 81.2874 93.7216C81.2874 93.2112 81.2062 92.7356 81.0438 92.2947C80.8814 91.8539 80.6311 91.4976 80.293 91.2259C79.955 90.9541 79.5241 90.8182 79.0004 90.8182C78.4768 90.8182 78.0459 90.9541 77.7078 91.2259C77.3697 91.4976 77.1195 91.8539 76.9571 92.2947C76.7947 92.7356 76.7135 93.2112 76.7135 93.7216C76.7135 94.232 76.7947 94.706 76.9571 95.1435C77.1195 95.581 77.3697 95.9339 77.7078 96.2024C78.0459 96.4709 78.4768 96.6051 79.0004 96.6051ZM85.425 87.3182V97.5H84.2517V87.3182H85.425ZM90.4575 97.6591C89.8211 97.6591 89.2593 97.4983 88.7721 97.1768C88.2849 96.852 87.9037 96.3946 87.6286 95.8047C87.3535 95.2114 87.216 94.5104 87.216 93.7017C87.216 92.8996 87.3535 92.2036 87.6286 91.6136C87.9037 91.0237 88.2865 90.5679 88.7771 90.2464C89.2676 89.925 89.8344 89.7642 90.4773 89.7642C90.9745 89.7642 91.3673 89.8471 91.6556 90.0128C91.9473 90.1752 92.1693 90.3608 92.3218 90.5696C92.4776 90.7751 92.5986 90.9441 92.6847 91.0767H92.7842V87.3182H93.9575V97.5H92.8239V96.3267H92.6847C92.5986 96.4659 92.4759 96.6416 92.3168 96.8537C92.1577 97.0625 91.9307 97.2498 91.6357 97.4155C91.3407 97.5779 90.948 97.6591 90.4575 97.6591ZM90.6166 96.6051C91.0872 96.6051 91.4849 96.4825 91.8097 96.2372C92.1345 95.9886 92.3815 95.6456 92.5505 95.2081C92.7195 94.7673 92.8041 94.2585 92.8041 93.6818C92.8041 93.1117 92.7212 92.6129 92.5555 92.1854C92.3898 91.7545 92.1445 91.4197 91.8197 91.1811C91.4949 90.9392 91.0938 90.8182 90.6166 90.8182C90.1194 90.8182 89.7051 90.9458 89.3737 91.201C89.0455 91.4529 88.7986 91.7959 88.6329 92.2301C88.4705 92.661 88.3893 93.1449 88.3893 93.6818C88.3893 94.2254 88.4721 94.7192 88.6379 95.1634C88.8069 95.6042 89.0555 95.9555 89.3836 96.2173C89.715 96.4759 90.126 96.6051 90.6166 96.6051Z" fill="black" fill-opacity="0.48"/>
<g clip-path="url(#clip0_3014_6000)">
<path d="M69.1055 119.186C62.8594 125.433 62.8594 135.563 69.1055 141.814C75.3551 148.064 85.4813 148.064 91.731 141.814C97.9771 135.567 97.9771 125.436 91.731 119.186C85.4813 112.935 75.3551 112.935 69.1055 119.186ZM90.2169 140.3C84.7797 145.737 75.9672 145.737 70.5301 140.3C65.093 134.862 65.093 126.048 70.5301 120.611C75.9672 115.173 84.7797 115.173 90.2169 120.611C95.654 126.048 95.654 134.862 90.2169 140.3Z" fill="url(#paint0_linear_3014_6000)"/>
<path d="M80.4164 116.508C72.7314 116.508 66.4961 122.744 66.4961 130.434C66.4961 138.123 72.7278 144.359 80.4164 144.359C88.105 144.359 94.3368 138.127 94.3368 130.434C94.3368 122.741 88.105 116.508 80.4164 116.508Z" fill="white"/>
<path d="M81.7981 121.567H73.841C72.9317 121.567 72.1945 122.304 72.1945 123.213V134.017C72.1945 134.927 72.9317 135.664 73.841 135.664H81.7981C82.7074 135.664 83.4446 134.927 83.4446 134.017V123.213C83.4446 122.304 82.7074 121.567 81.7981 121.567Z" fill="url(#paint1_linear_3014_6000)"/>
<path d="M77.628 134.626C77.4204 134.626 77.1305 134.744 76.9838 134.891L73.1788 138.696C73.0321 138.843 73.0822 138.961 73.2898 138.961H87.6218C87.8294 138.961 87.8795 138.843 87.7327 138.696L83.9278 134.891C83.7811 134.744 83.4911 134.626 83.2835 134.626H77.6245H77.628Z" stroke="white" stroke-width="6.68" stroke-miterlimit="10"/>
<path d="M77.628 134.626C77.4204 134.626 77.1305 134.744 76.9838 134.891L73.1788 138.696C73.0321 138.843 73.0822 138.961 73.2898 138.961H87.6218C87.8294 138.961 87.8795 138.843 87.7327 138.696L83.9278 134.891C83.7811 134.744 83.4911 134.626 83.2835 134.626H77.6245H77.628Z" fill="url(#paint2_linear_3014_6000)"/>
<path d="M74.3887 123.793H81.254" stroke="white" stroke-miterlimit="10" stroke-linecap="round"/>
<path d="M74.3887 125.92H78.845" stroke="white" stroke-miterlimit="10" stroke-linecap="round"/>
<path d="M74.3887 128.046H80.4558" stroke="white" stroke-miterlimit="10" stroke-linecap="round"/>
</g>
<path d="M117.933 117.318V143.5H112.397V122.572H112.244L106.248 126.331V121.422L112.73 117.318H117.933ZM133.053 151.273C131.289 151.273 129.776 151.03 128.515 150.544C127.262 150.067 126.265 149.415 125.523 148.588C124.782 147.761 124.3 146.832 124.079 145.801L129.116 145.124C129.269 145.516 129.512 145.882 129.844 146.223C130.177 146.564 130.616 146.837 131.161 147.041C131.715 147.254 132.388 147.361 133.181 147.361C134.366 147.361 135.342 147.071 136.109 146.491C136.884 145.92 137.272 144.962 137.272 143.615V140.023H137.042C136.803 140.568 136.445 141.084 135.968 141.57C135.491 142.055 134.877 142.452 134.127 142.759C133.377 143.065 132.482 143.219 131.442 143.219C129.968 143.219 128.626 142.878 127.415 142.196C126.214 141.506 125.255 140.453 124.539 139.038C123.832 137.615 123.478 135.817 123.478 133.643C123.478 131.419 123.84 129.561 124.565 128.07C125.289 126.578 126.252 125.462 127.454 124.72C128.664 123.979 129.989 123.608 131.43 123.608C132.529 123.608 133.449 123.795 134.191 124.17C134.932 124.537 135.529 124.997 135.981 125.551C136.441 126.097 136.795 126.634 137.042 127.162H137.246V123.864H142.654V143.692C142.654 145.362 142.245 146.76 141.427 147.885C140.609 149.01 139.475 149.854 138.026 150.416C136.586 150.987 134.928 151.273 133.053 151.273ZM133.168 139.128C134.046 139.128 134.788 138.911 135.393 138.476C136.006 138.033 136.475 137.402 136.799 136.584C137.131 135.757 137.297 134.768 137.297 133.618C137.297 132.467 137.136 131.47 136.812 130.626C136.488 129.774 136.019 129.114 135.405 128.645C134.792 128.176 134.046 127.942 133.168 127.942C132.273 127.942 131.519 128.185 130.905 128.67C130.292 129.148 129.827 129.812 129.512 130.665C129.197 131.517 129.039 132.501 129.039 133.618C129.039 134.751 129.197 135.732 129.512 136.558C129.836 137.376 130.3 138.011 130.905 138.463C131.519 138.906 132.273 139.128 133.168 139.128Z" fill="black" fill-opacity="0.92"/>
<circle cx="239.378" cy="115.917" r="27.5" transform="rotate(-90 239.378 115.917)" fill="black" stroke="#F0F0F0"/>
<path d="M250.419 116.447C250.712 116.154 250.712 115.679 250.419 115.386L245.646 110.613C245.353 110.321 244.879 110.321 244.586 110.613C244.293 110.906 244.293 111.381 244.586 111.674L248.828 115.917L244.586 120.159C244.293 120.452 244.293 120.927 244.586 121.22C244.879 121.513 245.353 121.513 245.646 121.22L250.419 116.447ZM227.711 116.667L249.889 116.667L249.889 115.167L227.711 115.167L227.711 116.667Z" fill="white"/>
<rect x="287.728" y="59" width="149.808" height="115" rx="19.5" stroke="#E8E6E1"/>
<path d="M319.421 90.5C319.312 90.1652 319.168 89.8653 318.989 89.6001C318.813 89.3317 318.603 89.103 318.357 88.9141C318.115 88.7251 317.84 88.581 317.532 88.4815C317.224 88.3821 316.886 88.3324 316.518 88.3324C315.915 88.3324 315.366 88.4882 314.872 88.7997C314.378 89.1113 313.986 89.5703 313.694 90.1768C313.402 90.7834 313.256 91.5275 313.256 92.4091C313.256 93.2907 313.404 94.0348 313.699 94.6413C313.994 95.2479 314.393 95.7069 314.897 96.0185C315.401 96.33 315.968 96.4858 316.597 96.4858C317.181 96.4858 317.694 96.3615 318.139 96.1129C318.586 95.861 318.934 95.5064 319.183 95.049C319.434 94.5883 319.56 94.0464 319.56 93.4233L319.938 93.5028H316.876V92.4091H320.754V93.5028C320.754 94.3414 320.575 95.0705 320.217 95.6903C319.862 96.3101 319.371 96.7907 318.745 97.1321C318.122 97.4702 317.406 97.6392 316.597 97.6392C315.696 97.6392 314.904 97.4271 314.221 97.0028C313.541 96.5786 313.011 95.9754 312.63 95.1932C312.252 94.411 312.063 93.483 312.063 92.4091C312.063 91.6037 312.171 90.8795 312.386 90.2365C312.605 89.5902 312.913 89.04 313.311 88.5859C313.709 88.1319 314.179 87.7839 314.723 87.5419C315.267 87.3 315.865 87.179 316.518 87.179C317.055 87.179 317.555 87.2602 318.019 87.4226C318.487 87.5817 318.903 87.8087 319.267 88.1037C319.635 88.3954 319.942 88.745 320.187 89.1527C320.432 89.5571 320.601 90.0062 320.694 90.5H319.421ZM322.865 97.5V87.3182H324.098V96.4062H328.831V97.5H322.865ZM333.882 97.5H330.74V87.3182H334.022C335.009 87.3182 335.854 87.522 336.557 87.9297C337.26 88.334 337.798 88.9157 338.173 89.6747C338.547 90.4304 338.735 91.3352 338.735 92.3892C338.735 93.4498 338.546 94.3629 338.168 95.1286C337.79 95.8909 337.24 96.4775 336.517 96.8885C335.795 97.2962 334.916 97.5 333.882 97.5ZM331.973 96.4062H333.803C334.645 96.4062 335.342 96.2438 335.896 95.919C336.449 95.5942 336.862 95.1319 337.134 94.532C337.406 93.9321 337.541 93.2178 337.541 92.3892C337.541 91.5672 337.407 90.8596 337.139 90.2663C336.87 89.6697 336.469 89.2124 335.936 88.8942C335.402 88.5727 334.737 88.4119 333.942 88.4119H331.973V96.4062ZM339.822 88.4119V87.3182H347.458V88.4119H344.257V97.5H343.024V88.4119H339.822Z" fill="black" fill-opacity="0.48"/>
<g clip-path="url(#clip1_3014_6000)">
<g clip-path="url(#clip2_3014_6000)">
<path d="M327.287 114.5C318.451 114.5 311.289 121.664 311.289 130.5C311.289 139.336 318.451 146.5 327.287 146.5C336.123 146.5 343.286 139.336 343.286 130.5C343.286 121.664 336.122 114.5 327.287 114.5ZM327.287 144.358C319.599 144.358 313.366 138.123 313.366 130.435C313.366 122.746 319.599 116.511 327.287 116.511C334.976 116.511 341.209 122.745 341.209 130.434C341.209 138.122 334.976 144.356 327.287 144.356V144.358Z" fill="white"/>
<path d="M313.363 130.434C313.363 138.122 319.598 144.355 327.286 144.355C334.976 144.355 341.209 138.122 341.209 130.434C341.209 122.745 334.976 116.512 327.287 116.512C319.598 116.512 313.365 122.745 313.365 130.434H313.363Z" fill="url(#paint3_linear_3014_6000)"/>
<path d="M330.216 126.241C330.423 126.241 330.713 126.121 330.859 125.975L334.663 122.17C334.809 122.024 334.759 121.904 334.552 121.904H320.088C319.88 121.904 319.831 122.024 319.977 122.17L323.781 125.975C323.927 126.121 324.217 126.241 324.424 126.241H330.216Z" fill="white"/>
<path d="M323.093 127.572C323.093 127.364 322.974 127.075 322.828 126.929L319.024 123.124C318.878 122.978 318.758 123.027 318.758 123.234V137.7C318.758 137.907 318.878 137.956 319.024 137.81L322.828 134.005C322.974 133.859 323.093 133.569 323.093 133.362V127.57V127.572Z" fill="white"/>
<path d="M324.49 134.628C324.283 134.628 323.994 134.747 323.848 134.894L320.044 138.699C319.898 138.845 319.947 138.964 320.154 138.964H334.486C334.693 138.964 334.742 138.845 334.596 138.699L330.792 134.894C330.646 134.747 330.357 134.628 330.15 134.628H324.49Z" fill="white"/>
<path d="M328.629 130.434C328.422 130.434 328.373 130.553 328.519 130.701L335.551 137.744C335.697 137.89 335.817 137.841 335.817 137.633V130.809C335.817 130.602 335.647 130.434 335.441 130.434H328.63H328.629Z" fill="white"/>
</g>
</g>
<path d="M364.802 117.318V143.5H359.266V122.572H359.113L353.117 126.331V121.422L359.598 117.318H364.802ZM381.29 144.075C379.091 144.067 377.199 143.526 375.614 142.452C374.037 141.378 372.822 139.822 371.97 137.786C371.126 135.749 370.709 133.298 370.717 130.435C370.717 127.58 371.139 125.146 371.983 123.135C372.835 121.124 374.05 119.594 375.626 118.545C377.212 117.489 379.099 116.96 381.29 116.96C383.48 116.96 385.364 117.489 386.94 118.545C388.526 119.602 389.744 121.136 390.597 123.148C391.449 125.151 391.871 127.58 391.862 130.435C391.862 133.307 391.436 135.761 390.584 137.798C389.74 139.835 388.53 141.391 386.953 142.464C385.376 143.538 383.489 144.075 381.29 144.075ZM381.29 139.486C382.79 139.486 383.987 138.732 384.882 137.223C385.777 135.714 386.22 133.452 386.212 130.435C386.212 128.449 386.007 126.795 385.598 125.474C385.197 124.153 384.626 123.161 383.885 122.496C383.152 121.831 382.287 121.499 381.29 121.499C379.798 121.499 378.605 122.244 377.71 123.736C376.815 125.227 376.364 127.46 376.355 130.435C376.355 132.446 376.555 134.125 376.956 135.472C377.365 136.81 377.94 137.815 378.682 138.489C379.423 139.153 380.293 139.486 381.29 139.486ZM406.075 144.075C403.876 144.067 401.984 143.526 400.399 142.452C398.822 141.378 397.608 139.822 396.755 137.786C395.912 135.749 395.494 133.298 395.503 130.435C395.503 127.58 395.924 125.146 396.768 123.135C397.62 121.124 398.835 119.594 400.412 118.545C401.997 117.489 403.885 116.96 406.075 116.96C408.265 116.96 410.149 117.489 411.726 118.545C413.311 119.602 414.53 121.136 415.382 123.148C416.234 125.151 416.656 127.58 416.647 130.435C416.647 133.307 416.221 135.761 415.369 137.798C414.525 139.835 413.315 141.391 411.738 142.464C410.162 143.538 408.274 144.075 406.075 144.075ZM406.075 139.486C407.575 139.486 408.772 138.732 409.667 137.223C410.562 135.714 411.005 133.452 410.997 130.435C410.997 128.449 410.792 126.795 410.383 125.474C409.983 124.153 409.412 123.161 408.67 122.496C407.937 121.831 407.072 121.499 406.075 121.499C404.584 121.499 403.39 122.244 402.495 123.736C401.601 125.227 401.149 127.46 401.14 130.435C401.14 132.446 401.341 134.125 401.741 135.472C402.15 136.81 402.726 137.815 403.467 138.489C404.209 139.153 405.078 139.486 406.075 139.486Z" fill="black" fill-opacity="0.92"/>
</g>
<defs>
<filter id="filter0_dd_3014_6000" x="0.419998" y="0.5" width="477.616" height="234" filterUnits="userSpaceOnUse" color-interpolation-filters="sRGB">
<feFlood flood-opacity="0" result="BackgroundImageFix"/>
<feColorMatrix in="SourceAlpha" type="matrix" values="0 0 0 0 0 0 0 0 0 0 0 0 0 0 0 0 0 0 127 0" result="hardAlpha"/>
<feMorphology radius="5" operator="erode" in="SourceAlpha" result="effect1_dropShadow_3014_6000"/>
<feOffset dy="10"/>
<feGaussianBlur stdDeviation="5"/>
<feColorMatrix type="matrix" values="0 0 0 0 0 0 0 0 0 0 0 0 0 0 0 0 0 0 0.04 0"/>
<feBlend mode="normal" in2="BackgroundImageFix" result="effect1_dropShadow_3014_6000"/>
<feColorMatrix in="SourceAlpha" type="matrix" values="0 0 0 0 0 0 0 0 0 0 0 0 0 0 0 0 0 0 127 0" result="hardAlpha"/>
<feMorphology radius="5" operator="erode" in="SourceAlpha" result="effect2_dropShadow_3014_6000"/>
<feOffset dy="20"/>
<feGaussianBlur stdDeviation="12.5"/>
<feColorMatrix type="matrix" values="0 0 0 0 0 0 0 0 0 0 0 0 0 0 0 0 0 0 0.1 0"/>
<feBlend mode="normal" in2="effect1_dropShadow_3014_6000" result="effect2_dropShadow_3014_6000"/>
<feBlend mode="normal" in="SourceGraphic" in2="effect2_dropShadow_3014_6000" result="shape"/>
</filter>
<linearGradient id="paint0_linear_3014_6000" x1="69.1069" y1="141.811" x2="91.7318" y2="119.189" gradientUnits="userSpaceOnUse">
<stop stop-color="#5E4D15"/>
<stop offset="0.06" stop-color="#7C6517"/>
<stop offset="0.14" stop-color="#C09E44"/>
<stop offset="0.18" stop-color="#DBB556"/>
<stop offset="0.21" stop-color="#D1AB4F"/>
<stop offset="0.27" stop-color="#B6933E"/>
<stop offset="0.31" stop-color="#A07F31"/>
<stop offset="0.41" stop-color="#73571B"/>
<stop offset="0.46" stop-color="#5E4411"/>
<stop offset="0.49" stop-color="#6D5014"/>
<stop offset="0.55" stop-color="#96721E"/>
<stop offset="0.59" stop-color="#B38A26"/>
<stop offset="0.62" stop-color="#C09934"/>
<stop offset="0.65" stop-color="#C6A03B"/>
<stop offset="0.66" stop-color="#C9A542"/>
<stop offset="0.68" stop-color="#D3B655"/>
<stop offset="0.71" stop-color="#E4D075"/>
<stop offset="0.73" stop-color="#F8F19D"/>
<stop offset="0.78" stop-color="#F9F2A1"/>
<stop offset="0.82" stop-color="#E6D47F"/>
<stop offset="0.89" stop-color="#C7A449"/>
<stop offset="0.93" stop-color="#BC9234"/>
</linearGradient>
<linearGradient id="paint1_linear_3014_6000" x1="62.9417" y1="143.497" x2="91.3153" y2="115.126" gradientUnits="userSpaceOnUse">
<stop/>
<stop offset="0.06" stop-color="#232323"/>
<stop offset="0.1" stop-color="#4F4F4F"/>
<stop offset="0.16" stop-color="#939393"/>
<stop offset="0.19" stop-color="#AEAEAE"/>
<stop offset="0.24" stop-color="#A4A4A4"/>
<stop offset="0.34" stop-color="#898989"/>
<stop offset="0.35" stop-color="#878787"/>
<stop offset="0.36" stop-color="#7B7B7B"/>
<stop offset="0.42" stop-color="#454545"/>
<stop offset="0.44" stop-color="#303030"/>
<stop offset="0.46" stop-color="#3F3F3F"/>
<stop offset="0.49" stop-color="#686868"/>
<stop offset="0.53" stop-color="#B0B0B0"/>
<stop offset="0.65" stop-color="#AFAFAF"/>
<stop offset="0.67" stop-color="#B6B6B6"/>
<stop offset="0.7" stop-color="#C9C9C9"/>
<stop offset="0.74" stop-color="#E9E9E9"/>
<stop offset="0.75" stop-color="#EDEDED"/>
<stop offset="0.83" stop-color="#EEEEEE"/>
<stop offset="0.86" stop-color="#C9C9C9"/>
<stop offset="0.9" stop-color="#939393"/>
<stop offset="0.93" stop-color="#7E7E7E"/>
</linearGradient>
<linearGradient id="paint2_linear_3014_6000" x1="69.9538" y1="149.339" x2="99.7701" y2="119.526" gradientUnits="userSpaceOnUse">
<stop stop-color="#5E4D15"/>
<stop offset="0.06" stop-color="#7C6517"/>
<stop offset="0.21" stop-color="#C09E44"/>
<stop offset="0.29" stop-color="#DBB556"/>
<stop offset="0.3" stop-color="#D1AB4F"/>
<stop offset="0.32" stop-color="#B6933E"/>
<stop offset="0.33" stop-color="#A07F31"/>
<stop offset="0.4" stop-color="#73571B"/>
<stop offset="0.44" stop-color="#5E4411"/>
<stop offset="0.45" stop-color="#6D5014"/>
<stop offset="0.46" stop-color="#96721E"/>
<stop offset="0.48" stop-color="#B38A26"/>
<stop offset="0.57" stop-color="#C09934"/>
<stop offset="0.65" stop-color="#C6A03B"/>
<stop offset="0.66" stop-color="#C9A542"/>
<stop offset="0.68" stop-color="#D3B655"/>
<stop offset="0.71" stop-color="#E4D075"/>
<stop offset="0.73" stop-color="#F8F19D"/>
<stop offset="0.78" stop-color="#F9F2A1"/>
<stop offset="0.82" stop-color="#E6D47F"/>
<stop offset="0.89" stop-color="#C7A449"/>
<stop offset="0.93" stop-color="#BC9234"/>
</linearGradient>
<linearGradient id="paint3_linear_3014_6000" x1="317.442" y1="140.278" x2="337.131" y2="120.589" gradientUnits="userSpaceOnUse">
<stop stop-color="#5E4D15"/>
<stop offset="0.06" stop-color="#7C6517"/>
<stop offset="0.14" stop-color="#C09E44"/>
<stop offset="0.18" stop-color="#DBB556"/>
<stop offset="0.21" stop-color="#D1AB4F"/>
<stop offset="0.27" stop-color="#B6933E"/>
<stop offset="0.31" stop-color="#A07F31"/>
<stop offset="0.41" stop-color="#73571B"/>
<stop offset="0.46" stop-color="#5E4411"/>
<stop offset="0.49" stop-color="#6D5014"/>
<stop offset="0.55" stop-color="#96721E"/>
<stop offset="0.59" stop-color="#B38A26"/>
<stop offset="0.62" stop-color="#C09934"/>
<stop offset="0.65" stop-color="#C6A03B"/>
<stop offset="0.66" stop-color="#C9A542"/>
<stop offset="0.68" stop-color="#D3B655"/>
<stop offset="0.71" stop-color="#E4D075"/>
<stop offset="0.73" stop-color="#F8F19D"/>
<stop offset="0.78" stop-color="#F9F2A1"/>
<stop offset="0.82" stop-color="#E6D47F"/>
<stop offset="0.89" stop-color="#C7A449"/>
<stop offset="0.93" stop-color="#BC9234"/>
</linearGradient>
<clipPath id="clip0_3014_6000">
<rect width="32" height="32" fill="white" transform="translate(64.42 114.5)"/>
</clipPath>
<clipPath id="clip1_3014_6000">
<rect width="32.0607" height="32" fill="white" transform="translate(311.228 114.5)"/>
</clipPath>
<clipPath id="clip2_3014_6000">
<rect width="32" height="32" fill="white" transform="translate(311.289 114.5)"/>
</clipPath>
</defs>
</svg>
