<svg width="42" height="42" viewBox="0 0 42 42" fill="none" xmlns="http://www.w3.org/2000/svg">
<path fill-rule="evenodd" clip-rule="evenodd" d="M18.6229 16.2719L24.4574 19.8158L28.3181 25.5125L18.6061 31.0174L9.20355 25.5363L12.5539 19.8266L18.6229 16.2719ZM13.683 21.976L17.5825 24.1764V28.0343L12.0281 24.7965L13.683 21.976ZM19.6441 28.0592L25.3584 24.8203L23.4181 21.9571L19.6441 24.1656V28.0592ZM18.604 22.3856L21.7174 20.5637L18.6037 18.6724L15.375 20.5635L18.604 22.3856Z" fill="black"/>
<mask id="mask0_2027_463" style="mask-type:alpha" maskUnits="userSpaceOnUse" x="0" y="0" width="42" height="42">
<rect x="0.538818" y="0.272339" width="41.4186" height="41.4186" fill="#D9D9D9"/>
</mask>
<g mask="url(#mask0_2027_463)">
<path d="M7.97289 37.3764C7.10115 37.3764 6.36326 37.0744 5.75924 36.4704C5.15522 35.8664 4.85321 35.1285 4.85321 34.2567V7.70648C4.85321 6.83473 5.15522 6.09684 5.75924 5.49282C6.36326 4.8888 7.10115 4.58679 7.97289 4.58679H21.6795L30.7397 13.647V21.662H28.1511V14.9414H20.3852V7.17541H7.97289C7.84012 7.17541 7.71841 7.23072 7.60776 7.34134C7.49714 7.452 7.44183 7.57371 7.44183 7.70648V34.2567C7.44183 34.3895 7.49714 34.5112 7.60776 34.6219C7.71841 34.7325 7.84012 34.7878 7.97289 34.7878H25.5956V37.3764H7.97289ZM33.793 37.3764L27.5039 31.0707L29.306 29.2255L32.4987 32.3917V24.6157H35.0873V32.3917L38.28 29.2421L40.082 31.0707L33.793 37.3764Z" fill="black"/>
</g>
</svg>
